<?xml version="1.0" encoding="utf-8"?>
<!-- Generator: Adobe Illustrator 27.3.1, SVG Export Plug-In . SVG Version: 6.00 Build 0)  -->
<svg version="1.1" id="Layer_1" xmlns="http://www.w3.org/2000/svg" xmlns:xlink="http://www.w3.org/1999/xlink" x="0px" y="0px"
	 viewBox="0 0 4000 4000" style="enable-background:new 0 0 4000 4000;" xml:space="preserve">
<style type="text/css">
	.st0{fill:#6E7288;}
</style>
<path class="st0" d="M3835.3,2843.9c-43.1-155.9-133.4-254-298.1-289.6c-102.1-22.1-196.1-72.2-243.9-179.6
	c-27.2-61.2-76.5-92.1-147.3-97.6c-42.1-3.3-87.5-22-122.5-46.5c-114-79.9-234.7-141.5-372.2-169.1c-24.2-4.8-45.7-22.5-68.5-34.3
	c2.2-6.5,4.4-12.9,6.7-19.4c59.7-15.4,122.8-23.5,177.9-49c31.8-14.7,73.3-58.7,71.6-87.2c-8.3-143.4,26.3-277.8,66.6-412
	c29.9-99.3,25.4-190.4-42.4-275.5c-43.6-54.8-63.1-115-29.8-187.8c42.4-92.9-3.3-174.7-49-253.6c-20-34.6-46.5-66.6-59.5-103.5
	c-9.9-28-5-61.9-3.2-93c0.8-14.1,11.9-27.3,15.2-41.7c22.6-98.4-108.1-324.3-202.3-359.4C2447,112.4,2360,76.9,2276.5,35.2
	c-145.9-73.1-345-18.9-480,43.9c-20.6,19.8-50,28.8-76.8,40.4c-110.9,48-190,138.6-241.6,254.3c-18,40.4-43.9,79.8-74.4,111.7
	c-182.1,190.6-177.5,429.9-174.2,667.3c1.2,89,54.3,156,136.5,191.2c75.5,32.3,117.2,84.6,114.6,166.3
	c-3.3,102.4,47.7,161.1,138.6,198.5c19.2,7.9,41,47.9,36.6,67.5c-15.9,70.7,10.8,123.9,56.7,169.2c37.2,36.8,30.1,76.6,6.3,107.3
	c-19.5,25.2-59.4,53.3-87,50.3c-84.3-9.2-151.1,19.9-216.2,65.9c-55.1,38.9-112.6,74.4-168.3,112.4
	c-108.1,73.6-222.1,129.2-351.9,159.7c-98.2,23-189,75.8-284.8,110.7c-61.8,22.5-126.6,36.8-190.2,54.2c-9.5,2.6-24.3-1.7-28.9,3.8
	c-14.8,17.6-41.1,45-35.9,56.4c31.6,69.9-130.3,136.6-2.3,204.2c6.5,3.4,12.2,8.4,24.7,17.1c-111,144.1-56.9,315.2-85.2,472.8
	c-20.3,113.1-39,217.7-123.9,304.7c-92.7,94.9-150.8,202.6-135.7,335C476.6,3477.3,1452,3114.3,2584,3114.3
	c503.8,0,976.5,71.9,1385.2,197.7C3919.2,3157.8,3878.6,3000.3,3835.3,2843.9L3835.3,2843.9z M2618.8,2000.1l0.2-0.2l0.5,0.5
	L2618.8,2000.1L2618.8,2000.1z M2620,1999.7l-0.3-0.9c0.1,0.2,0.4,0.1,0.5,0L2620,1999.7L2620,1999.7z M2651.1,533.2
	c0.6-0.6,1.1-1.2,1.4-1.6C2651.9,532.5,2651.4,532.9,2651.1,533.2z M2662.5,518.7l-0.1,1.8l-1.2-0.1
	C2661.6,520.2,2662.2,519.2,2662.5,518.7L2662.5,518.7z M2659.2,525l0.4-0.8c0.5-0.3,0.9-0.7,1.4-1
	C2660.4,523.8,2659.8,524.4,2659.2,525L2659.2,525z M2398.9,568.7c0.3,1-0.9,0.2-2.9,0.1C2397,568.8,2398,568.7,2398.9,568.7z
	 M2370.8,570l0.5,0.9l-1.1-0.9H2370.8z M2337.3,569.3l1.9,0.5c-1.1,0-1.7,0-2.1-0.3L2337.3,569.3L2337.3,569.3z M2284.4,572.3
	l-2.3-0.4C2283.1,572.1,2283.9,572.2,2284.4,572.3z M2182.2,571.6c3.5,0.4,0.6-0.9,4.4-0.5c1.1,1-0.1,0.8-2.5,1.2
	c-0.2,0.1-0.5,0.1-1.2,0.2c0.4-0.1,0.8-0.2,1.2-0.2C2185.1,572,2181.3,572,2182.2,571.6z M2143.6,575l-0.7,1.6l-0.1-1.5L2143.6,575
	L2143.6,575z M2095.3,573.3c4.1-0.1-0.3,0.4-0.6,0.7C2091.7,573.8,2095,573.5,2095.3,573.3z M2098.3,576l-3.2,0.2
	c-0.5-0.3,0.7-0.4,1.5-0.5C2097.8,575.6,2098.7,575.8,2098.3,576L2098.3,576z M2086.8,573.9l-0.1,0.9c-0.5-0.2-0.6-0.4-1.4-0.6
	L2086.8,573.9z M2059.5,577.3c0.5-0.1,0.8-0.2,0.8-0.3h3C2063.3,577.2,2061.3,577.2,2059.5,577.3c-0.8,0.1-1.9,0.3-2.4,0.3
	C2057.6,577.5,2058.5,577.4,2059.5,577.3L2059.5,577.3z M2059.8,577.9c0,0.2-0.2,0.3-0.5,0.4C2059.5,578.2,2059.7,578,2059.8,577.9z
	 M2055.5,577.1l-2.1,0.2h-0.9C2053.6,577.1,2054.6,577.1,2055.5,577.1z M2050.3,577.9l-0.9,0.7l-0.8-0.7H2050.3L2050.3,577.9z
	 M2050.3,579.7c-1.9,0.5-3.8,1.2-3.4,0.2c-0.1,0-0.1,0-0.2,0C2048.5,579.5,2050.1,579.2,2050.3,579.7L2050.3,579.7z M2046,580.2
	c-0.9,0.3-1.6,0.6-1.4,0.2C2045,580.3,2045.5,580.2,2046,580.2z M2029.9,581.9c1.7-0.3,0.7,0.2-0.9,0.7l-0.2-0.3
	C2029.1,582.1,2029.6,582.1,2029.9,581.9L2029.9,581.9z M2016.3,588.6l-0.3-0.3l2.3-0.4c-1.3,0.7-2.6,1.3-3.8,2.1
	C2014.6,589.7,2013.9,589.5,2016.3,588.6L2016.3,588.6z M2012.6,594.5l0.8-0.7c-0.6,0.6-1.2,1.2-1.7,1.9
	C2012,595.3,2012.3,594.9,2012.6,594.5L2012.6,594.5z M2008.8,595.4c0.3-0.2,0.6-0.3,0.8-0.5h-0.1c0.3-0.2,0.5-0.3,0.7-0.4
	c-0.2,0.1-0.4,0.3-0.7,0.4h1.2C2009.6,595.5,2009.1,595.4,2008.8,595.4c-0.1,0.1-0.1,0.1-0.2,0.1
	C2008.7,595.4,2008.7,595.4,2008.8,595.4L2008.8,595.4z M2009.2,2157.6l-0.5,0.5l-1-0.1L2009.2,2157.6L2009.2,2157.6z M2008.2,594.6
	l-0.1,0.4l-0.9,0.5l-2,2c0.5-0.6-0.1-0.5-0.2-0.6l2.2-1.5L2008.2,594.6L2008.2,594.6z M2006.5,2156.5l-0.3,0.5l-0.5-0.5H2006.5z
	 M2004.9,599.7c-0.3-0.2-1.6,0.7-2.4,1.1l1.1-1.3c-0.3-0.1-0.1-0.5,1.7-1.8c-0.6,0.6-1.2,1.2-1.7,1.8
	C2003.9,599.6,2004.9,599.4,2004.9,599.7L2004.9,599.7z M2006.4,595.2c-0.1,0-0.2,0-0.3,0C2006.4,595.1,2006.5,595.1,2006.4,595.2z
	 M2001.5,596.4c0.5-0.4,0.5-0.2,0.2,0c0.2,0.1-0.6,0.9,0.4,0.4c1.1-0.7,1.1-1.1,1.4-1.4c1.3-0.3,2-0.3,2.7-0.2
	c-0.7,0.2-2.6,0.9-4,1.7c-0.1,0.1-0.2,0.2-0.2,0.3c-2,1.3-0.8-0.2-0.3-0.8C2001.6,596.4,2001.6,596.3,2001.5,596.4z M2000.2,599.3
	c2.7-1.5,0.5,0.8-0.3,2C2001.2,599.5,1999.7,600.3,2000.2,599.3z M2001.5,2154.2c-0.2,0-0.1,0.2-0.1,0.4c-0.2-0.2-0.4-0.5-0.9-0.7
	L2001.5,2154.2z M1996,2151.8c0,0,0,0.1,0.1,0.1c0.2,0.2,0.4,0.4,0.6,0.5c-0.3-0.3-0.5-0.4-0.6-0.5c-0.2-0.2-0.5-0.4-0.8-0.5
	C1995.6,2151.6,1995.9,2151.7,1996,2151.8C1996.1,2151.8,1996.6,2152,1996,2151.8L1996,2151.8z M1994.8,609.7c0.3-0.7-1,0.7-1.5,1
	c0.3-0.7,0.7-1.3,1.1-1.9C1995.7,608,1996.2,607.9,1994.8,609.7z M1994.7,2151.1c-0.1-0.3-0.4,0.6-0.7,0.2
	C1991.7,2150.6,1995.5,2150.6,1994.7,2151.1z M1994.7,607.6l-1.4,2c0.5-0.9,0.6-1.5,0.7-1.1C1994,607.5,1994.3,607.7,1994.7,607.6
	l0.7-1C1995.1,607.3,1994.9,607.5,1994.7,607.6L1994.7,607.6z M1994.7,605.5l0.5-0.6l-2.6,4.2L1994.7,605.5z M1991.3,610.7
	c-1.1,2,0.1,0.8,1,0C1989.9,614.1,1988.8,614.2,1991.3,610.7z M1990.8,613.3c-0.1,0.1-0.2,0.4,0.1,0.3c-0.5,0.7-0.7,1-0.9,1.3
	c0.9-0.7-0.9,1.4,0,0c-0.1,0.1-0.1,0.1-0.3,0.2C1990.4,613.9,1990.7,613.4,1990.8,613.3L1990.8,613.3z M1982.7,619.8l1.1-1.4
	c0.3,0.1-1.2,1.9-1.4,2.7C1982.5,620.7,1982.6,620.3,1982.7,619.8L1982.7,619.8z M1980.7,627.8c0.3-0.7,0.6-1.4,0.8-2.2
	c0.2-0.8,0.6-1.6,0.8-2.4c0.6-1.6,1.1-3,2-3.4c-0.8,1-1.4,2.7-2.1,4.5c-0.4,0.9-0.6,1.8-0.8,2.8c-0.3,0.9-0.5,1.8-0.8,2.7l-0.4-1.5
	L1980.7,627.8L1980.7,627.8z M1981.5,652.5c-0.1-0.1-0.7,0.4-0.8-0.6C1980.6,651.9,1981.1,650.9,1981.5,652.5z M1979.1,632.7
	c0,0.9,0,1.8,0.1,2.6l-0.2-0.3C1979,634.3,1979.1,633.5,1979.1,632.7L1979.1,632.7z M1756.4,1975.2l-0.4-0.2l-0.1-0.9L1756.4,1975.2
	L1756.4,1975.2z M1754.6,1973.4l-0.6,0.8c0-0.3-0.4-0.6-0.6-0.8H1754.6L1754.6,1973.4z M1850.3,2072.2c0.5-0.9,0.4,0.1,1.2,0.7
	C1851.1,2072.7,1850.6,2072.5,1850.3,2072.2z M1862.5,2079.7l-0.2-0.2l0.3-0.9L1862.5,2079.7L1862.5,2079.7z M1875.6,2089.7l-0.5-1
	c0.5,0.4,0.7,0.6,0.7,0.9L1875.6,2089.7L1875.6,2089.7z M1941.6,2129.9c-1.3-1.3-0.7,0.6-2.1-0.7c0.1-1.1,0.5-0.6,1.7-0.4
	c0.1,0,0.3,0,0.6,0.1c-0.2,0-0.4-0.1-0.6-0.1C1940.6,2128.9,1942.2,2129.9,1941.6,2129.9L1941.6,2129.9z M1979.8,2150.4
	c-1.8-0.9,0.3-0.3,0.6-0.5C1981.6,2150.9,1980,2150.3,1979.8,2150.4z M1980.4,2148c-0.6-0.2-0.9-0.6-0.6-0.7l1.5,0.6
	C1981.4,2148.2,1980.8,2148,1980.4,2148L1980.4,2148z M1983.8,2152l0.5-0.8c0.1,0.3,0.1,0.5,0.3,0.9L1983.8,2152L1983.8,2152z
	 M1996.9,2156.2c-0.2-0.1-0.4-0.1-0.5,0.1l-1.2-0.9C1995.3,2155.2,1996.1,2155.8,1996.9,2156.2c0.4,0.1,0.9,0.3,1.1,0.4
	C1997.8,2156.6,1997.4,2156.4,1996.9,2156.2L1996.9,2156.2z M1998.4,2157.6l0.9,0.5l0.3,0.3L1998.4,2157.6L1998.4,2157.6z
	 M1997.6,2155.5c0.6,0.1,1.3,0.7,1.3,1l0.1-1c-1.5-1.2-3.2-1.2-4.6-1.4c1,0.9-1.6-0.2-1.1,0.8l1,0.4c0.3,0.5-0.7,0.3-1.4,0.3
	c-2.5-2.1-8-4.3-8.6-5.5c0.5,0.5,1.6,0.9,2.2,0.9l-1.1-1.1c1.1,0.6,1.5,1.7,3.3,2.3c0-0.7,1.5-0.8,0.7-2.1c-2.6-2.5-3.2,0-6.7-2.2
	c-0.4,0,1.2-0.4-0.9-1.2c-2.7-0.8-5.2-0.6-5.8,0.5c1.2,0.2,3.6,0.7,3.5,1.7c-1.2-0.2-3.1-1-3.5-0.6c-0.5-1.5,2.1,0.8,1.1-0.7
	c-0.7-0.4-1.2-0.3-1.6-0.3c0.7-0.1-0.3-1-0.4-1.4c-2.3-1.3-3.4-2.5-5.8-4c0,0.1,0.1,0.2-0.1,0h0.1c-0.1-0.2-0.2-0.7,0.1-0.9
	c-1.3-0.4-3.9,0-3.8,0.8c-1.4-0.8-1.3-1.3-2.6-1.7c1.4,1.9-0.3-0.4-1,0.4c-1.3-0.6-0.2-0.7-0.6-1.2c-0.3,0-0.9,0-1.1,0.2
	c0.1,0.2,0.2,0.4,0.5,0.7c-0.5-0.4-0.6-0.6-0.5-0.7c-0.4-1.1,2.5-0.9,2.1-2.2c-0.3-0.9-2.4-3.3-2.6-3.4c-1,0.4-2.7,3.6-2.4,5.1
	c-0.4,0.5-0.8-1.2-1.3-1.6c-1.1-1.8-2.8-0.7-3.9-1.8l1.3,0.1c-0.1-0.4-2.2-1.2-2.6-1.1c0.1-0.3,1.9-0.9,1.5-1.6
	c-2.2-1.5-5.4-1.2-5.8-0.3l4.1,1.2c-0.3,0.8-3-0.8-3.3,0.2l-3.1-2.2c0.4,0.2,1.8,0.8,1.6,0.1c-1.4-0.8-0.7-0.6-1.4-1.5
	c2.2,0,6.5-0.6,8.3-1.1l-2-0.5l-0.2-0.7c-2.5-0.7-6.2,1-7.3,1.4c-1.2-0.9,0.2-2.2,0.7-2.4c-2.4-1.6-3.8,0.7-6.2-1l0.7,0.9
	c-0.7-0.2-2.6-1.8-2.6-1.4c-0.2-0.7-0.1-1.9,0.5-1.9l-3,0.1c0.4,0,0.9-1.3,1.2-1.5c-0.8-0.6-2.2,0.4-2,1c-1.1-1.8-1-1.1-1.8-3
	c-0.6-0.2-0.8,1.4-0.5,1.7c-1.4-0.4-2-0.9-2.4-1.4h-0.1v-0.1c-0.5-0.5-0.9-0.9-2.1-0.7l2.5-1.3l-0.4,2l0.1,0.1
	c2.2,0.6,2.2-2.5,3.2-3.2l-6.4,1.2c0.3-0.1,1.3-1.1,1.4-1.3c-1,0.9-5.8-1.9-8-3.5l0.4,0.2c0.6-0.1-0.4-1-1.4-1.5
	c-0.3-0.1-0.6-0.2-0.8-0.3c0.3-0.1,0.4,0.1,0.8,0.3c-1-1.8-3,0.4-4-1.5c1.3,1,1.9,0.7,2.1,0.2c-1.4-0.3-3.8-2.4-4.1-0.8
	c-0.6-0.7-1.3-1-0.9-1.6l-3.3-1.1c0.3,0,0.7-0.3-0.1-0.9c1.5,1.2,3.8,1,4.1,2.4c0.6-0.8,0.2-1.6,1.4-1.8c-3.3-1.6-5.8-1.3-8.3-1.6
	l-2.3-2.3l-0.3,0.3l0.1-1.2c-0.5,0-0.8,0-0.8-0.1s0.2-0.2,0.4-0.2c-0.3-0.1-0.6-0.2-0.8-0.2c-0.1,0.1-0.1,0.3-0.1,0.4
	c-0.2-0.3-0.2-0.4,0.1-0.4c0.2-0.6,1-0.8,1.9-1c-0.1-0.1-0.1-0.2-0.1-0.3c-1.7-0.2-3.6-0.5-2.9,0.9l0.8,1c-0.4-0.4-0.7-0.8-0.8-1
	l-1.2-1.6c-2.4-0.3-2-0.3-4.7-1.1c0.1-0.4,0.8-0.3,0.6-0.8c-2.3-0.1-3.2-3.8-4.1-3.2c-1.4-0.6-1.1,0.4-2.1,0.1
	c0.1-0.1,0.3-0.2,0.1-0.4h-1.4c-0.2-0.5,1.2,0.2,0.3-0.9c-2.2-0.8-3.6-1.2-4.9-2.6c-2.3-1.4,0.1,1.9-1.7,0.5
	c0.1-0.7,0.3-1.5-0.9-2.4c-0.9-0.1-1.1,0.4-2.3-0.1l0.6-0.8c-1-0.6-1.9-1.1-1.5-1.7c-1-0.2-1.6-0.6-1.9-1.1c-1.8-0.6,0,2.4,0.1,2.9
	c-1.1-1.6-2.3-2-2.5-3.5l1.4,0.7c-2.1-2.9-3.4-0.7-3.5-3.3c0.9,0.7,2.3,1.1,2.1,0.2l-1.7-0.5c0-0.3,0.9,0.4,0.4-0.3
	c-0.5-0.1-1.6-0.2-2.1-0.2l-0.3,0.2c-0.2-0.1,0-0.2,0.3-0.2l0.1-0.1c-0.8-0.5-1.6-1-2.3-1.5c0.3,0.1,0.5-0.1,0.1-0.4l-1.9-0.7
	c-0.2,0-0.3-0.1-0.6-0.2l0.6,0.2c0.6,0.1,0.3-0.5-0.3-1.1c-1.9-1.7-2.9,0.6-3.9-1.4c0.2,0.2,0.3,0.1,0.6,0.3l-0.6-0.9
	c-1.4,1.5-5-3.3-6.4-1.8c-0.7-1.5,0.2-0.5,2.3-0.1l-0.9-1.4c0.6,0.3,0.9,0.7,1.6,1c-1.1-1.9-3.3-2.1-4.5-2.3
	c-0.4-0.7,1.4-0.9-0.6-1.9c-2.7-1.6-0.4,1.6-2.1,0.6l-0.4-1.7c-2.4-0.8-3.4-2.4-4.9-3.8c-0.4-0.2-0.7-0.3-0.8-0.2l0.1,0.1h-0.2
	c-0.3,0.2-0.1,0.8-1,0.1l1-0.1l0.1-0.1c-1.4-1.6-4.2-1.9-5.3-3.1c0.4,0.1-0.3-1.1-0.3-1.4l-2.4-1.1c1,0.4,1.3-0.1,1.8-0.4
	c-0.7-0.5-1.3-0.5-1.8-0.8c0.4,0.1,0.9,0.1,0.7-0.4l-3-1.1c0.1,0.2,0.3,0.4,0.6,0.6c-0.6-0.5-2.1-1.2-2.7-2.3
	c0.2-0.1,0.7-0.1,0.9-0.2c0.3,1.1,1.1,1,1.7,0.9c-1.7-1.2-0.3-0.4-0.8-1.4c-1.2-0.9-2.2-0.6-2.2,0c-1.2-1.2-1.5-1.7-3.2-2.3l0.8-0.4
	l-1.4-0.8h1.6c-2-2.3-1.3,0.8-3.7-1.7l0.5-0.6c-1.2-0.6-2.3,0.1-2.5-1.3c-1.2-0.5,1,2.2-1.4,0.4c-0.2-0.6-0.8-1.6-1.4-2.2
	c-0.8-0.3-0.2,0.9,0.4,1.3c-3.4-2.5-0.4-3.6-4-5.4c0.7,1.3-1.8,0.4,0.7,2.4c-1.5-0.6-1.7-2.7-3.4-3.1l1.4-0.1
	c-0.4-0.4-1.2-0.5-1.5-0.6l0.6-0.5c-2.3-0.3-2.4-2.8-4.4-2.3c1.5-0.5-1.2-0.9-1.4-1.8c1.8,0.4,3.5,3.1,4.4,2.3
	c-0.3-0.8-1.2-0.8-1.6-1.5c-0.5-0.2-0.7-0.3-0.1-0.1c0,0.1,0.1,0.1,0.1,0.1c0.5,0.2,1.3,0.5,1.6,0.4c-1.4-2.2-3.4-2-4.8-2.8l2.2,1.6
	c-1,0.8-1.1-0.6-2.2-0.4c-0.6-1.4-2-1.3-2.6-2.4c0.2,0.2,0.3,0.1,0.5,0.3c-2.2-1.9-1.6-3.9-2.4-4.7c-0.8-0.9-2.8-1.8-2.6-0.9
	c-0.9-0.4,3.2,2.3,0.9,2.3c-0.1-2.4-3.1-1.7-4.9-5.1c1.6,0.6,0-1.4,1.3-0.8c-1.4-1.1-1.6-0.9-2.5-1.1v-0.8c-2.5-0.6-1.2,0.5-4.1-1.4
	c1.1,0.5-0.5-1.5,0.5-1.2c-0.7-0.7-1.5-1.2-2.2-1.4h0.2c-2.8-2.1-1.6-2.4-4.3-4.2v0.5c-3.6-2.2-6.9-6.3-10.3-9l0.8,1.2
	c-0.5-0.5-2.4-1.6-3-2.8c-0.1-0.1-0.2-0.2-0.1-0.2c0,0.1,0.1,0.1,0.1,0.2c0.2,0.2,0.7,0.4,0.8,0.6c0.3-0.3,0.3-1-0.4-1.8l-0.7,0.1
	v-0.6c-1.1-1.1-0.3,0.9-1.3-0.2c0.6-1.8-4.6-5-4.4-7c-1.6,0.1,1.9,2.2,0.3,2.2c-0.2-0.5-0.2-0.8-0.8-1.6l-0.3,0.7
	c-3-3.7-3.9-5.4-6.8-8.4h0.2c-0.8-1.3-1.5-1.8-2.4-1.9c0-0.5,0.9,0.2,0.7-0.4c-3.1-0.7-2.6-4.8-4.6-5.2c1.2-0.8-0.1-4.3,1.8-4
	l-0.8-0.7c1-0.4,2.3,2.5,3.5,2.3l1.6,3.2c0.2-0.3,1-0.3,0.7-0.8c-0.2-0.2-0.4-0.5-0.6-0.6c0.3,0.3,0.5,0.5,0.6,0.6
	c0.6,0.6,1.1,1.1,0.7-0.1c3.6,7.7,11.2,12,15.9,18.7c0.4,0.3,0.5-0.1,0.5-0.4c0.4,1.7,1.3,0.7,2,1.1l0.6,2.5
	c0.9,0.3,0.7-0.4,0.9-0.6c3.1,2.7,5.1,6.4,8,8.1c0.4,1.1-0.9,0.6-0.1,1.7c-0.2-1.2,0.6-0.6,1.5,0.1c0.8,0.6,1.7,1.3,1.7,0.8
	c0.1,1.9,3.4,3.5,1.6,4.6c1.1,1.2,1.6,0.3,1.4-0.2c1.4,1.4,2.5,2.4,4.1,3c0.2,0.6,1.9,1.9,3.6,3.5c1.7,1.5,3.4,3.2,3.6,4.3
	c-0.2-1.5,0.4-0.3,1.6,0.1l-0.2-1.3l1.8,1.7c0.5,0.3,0.5,0.4,0.5,0.5c0.3,0.3-0.4,0.3,0.3,1.2c1.3,1.2,1.6,0.9,2.7,1.2l-0.1-0.3
	l0.9,0.7c0.6,0.6-2.9-1.3-1,0.8c0.2-0.2,2.2,0.1,2.3,1c-1.1-1-1.3-0.4-1.1,0.2l1.5,1.4l0.2-1.3c4.4,3.8,8.5,8.2,13.3,12.1
	c-0.7,0.7,3.4,2.8,2.1,3.5l-0.1-0.3c-1.3-0.8-0.4,1.1,0.7,1.8c-0.7-1.1,2.7,0.3,0.4-1.8l2.3,1c2.8-1.3,4.9,4.2,8.4,5.8
	c-0.3-0.1-0.4,0-0.5,0c3.1,1.3,5.4,5,6.3,5.1l-0.2,0.8c2.9,0.8,3.2,0.9,5.6,3.3c-0.1,0.1-0.6,0-0.2,0.5c1,0,1.9,0.1,3.7,1.6
	l-0.2,0.1l3,2c-1.4,1.9,5.8,2.4,5.2,5.1c1-0.1,3.2,1.2,4.3,1.6c0.1-0.1,0.3-0.1,0.7,0c0,0.2-0.3,0.1-0.7,0c-0.1,0.1-0.1,0.2,0.1,0.4
	c1.8-0.2,3,2.6,4.3,3.4c1,0.3,0.9-0.2,0.7-0.8c1.1,1.9,5.1,2.2,5.4,2.9c1.1,0.9-0.1,1,0,1.7c1.9,1,0.9-1.9,2.7,0.5
	c-0.3-0.1-0.9-0.4-0.8-0.1c0.8,0.8,0.9,4.1,2.1,4.3l-0.3-0.8c2,0.7,2.8,4.2,4,3.1l0.2-0.7c2.3,2.7,1.4,0.6,3.8,3.2l-0.1,0.1
	c1.3,0.7,1.5,1.9,2.8,1.4l-0.3-0.4c1.6,1,1.7,1.1,3.3,2.2c0.3,0,1.1,0.4,1.2,0.8c0.6-0.7,4,2.1,4.7,2.6c-1.4-0.7-1,0-0.8,0.6
	c1.2-0.2,1.8,0.1,2.5,1.2c0.8-0.9,1.7-1.9,3.8-0.6c-0.4-0.1-1-0.3-0.9,0.1c0.1,0.4,0.7,0.4,0.9,0.5c0.1,0.4-0.7,0.1-0.7,0.6
	c2-0.1,2.4,1.5,4.7,2.4c-0.8-0.1-0.4,0.5-0.4,1c0.9-1.1,2.1,2.8,2.3,0.8c3.4,3.4,10.1,6.4,11,8.3c0.2,0.7,1.7,0.7,2.4,1.1l-0.4,0.5
	c2.5,0.3,1.7,0.6,4.6,1.1c-1.3,0.1-1.1,0.6-0.4,1.6l2.2-0.1l-0.2,1c0.8,0.1,1.5,0.6,2.1,1.2c1.2-0.5,3.6,1.1,4.3,0.8
	c0.1,1.5,2.1,0.9,2,2.2c0.3,0,0.7,0.1,1.1,0.1c-0.1-0.7,0.1-1.3,0.6-0.7c0.1,0,0.1,0.1,0.2,0.1l0.1-0.7c0.3-0.6,0.7,0.6,1.2,1.6
	c0.2,0.3,0.4,0.5,0.6,0.8c0.1,0.1,0.2,0.1,0.2,0.1c-0.1,0-0.1,0-0.2-0.1c0.3,0.4,0.7,0.7,1.4,0.8c1.7,2.3,5.9,1.7,7.6,4.5
	c-0.3-0.4-0.8-0.7-1.1-0.6c2.1,1.2,3.7,3.3,5.3,3.6l0.3-0.6c1.7,0.6,3,1.1,4.2,1.9l0.4-0.6c1.7,1.3,6.2,2.5,6.6,4.5
	c0.8-0.3,2.4,1.6,3.6,2v0.7c1.3,0.9,2.2,1.2,3.1,1.5c-0.1-0.1-0.2-0.2-0.3-0.3c0.9,0,1.6,0.6,2.1,1.1c0.5,0.3,1,0.7,1.6,1.4
	c-0.5,0.4-0.9-0.5-1.6-1.4c-0.6-0.4-1.2-0.6-1.8-0.8c2.1,2.6,5.3,3,7.7,4.4l-0.1,0.1l2.7,1c-0.9,0.1,0.7-0.1,1.3,0.5
	c0.9,0.2,2.1,1,2.8,1.8l1.6,0.9c-1.9-0.6-0.3,0.8-0.5,1.5l1.3,0.1c0.2,0.5-0.9,0.1-0.2,0.6c0.8,0,2.8,1.1,3.8,0.7
	c0-0.2-0.2-0.5-0.4-0.7c-0.1,0-0.1,0,0,0l0,0c0,0,0,0,0.1,0s0.3-0.1,0.4-0.1c-0.1-0.1-0.3-0.2-0.4-0.3c0.5,0.1,0.6,0.2,0.4,0.3
	c1.2,0.8,0.8,0.3,0.9,0c0.9,1.6,1.9,1.4,2.5,2.8c-0.3-1.3,3.4,1.8,3.1,0.2c0.6,1.5,0.7,0.4,1,1.6c-1.4-1-3.3-0.8-4.7-1l0.9,1.1
	C1999.6,2157.9,1998.5,2155.8,1997.6,2155.5L1997.6,2155.5z M1959.8,2136.9l1.1-1.2l-0.7,1.4L1959.8,2136.9L1959.8,2136.9z
	 M2001.5,2159.1l-0.7-0.5l0.7-0.3V2159.1z M2003.3,2158c-0.9-0.3-1.7-0.5-1.5-1.1c1,0.2,2,0.3,1.4,1
	C2003.2,2158,2003.2,2158,2003.3,2158L2003.3,2158z M2004.2,2158.4c-0.2-0.1-0.5-0.3-0.8-0.4
	C2004,2158.2,2004.5,2158.2,2004.2,2158.4z M2010.8,2163.2c-0.2,0-0.4-0.1-0.6-0.1c-0.7-0.5-0.1-0.5,0.7-0.2L2010.8,2163.2
	L2010.8,2163.2z M2017.7,2164.5l-0.1,0.4l-0.8-0.9l2.2,0.5C2018.7,2164.6,2018.8,2165.1,2017.7,2164.5L2017.7,2164.5z
	 M2019.7,2162.8c-0.3,0-0.6-0.1-1-0.1c-0.4,0.1-0.8,0.1-1.3-0.2c-0.2,0-0.2-0.1-0.1-0.1c-0.7-0.3-1.4-0.6-2.1-1
	c-0.4-0.1-0.8-0.3-1.4-0.4c1.6,1.1-1.7,0.3,0.8,1.1c-1-0.1-0.7,0.6-2.2,0c-0.5-1,0.8-0.7,1.5-1.1c-1.2-0.4-1.8-0.6-2.3-1l-0.5-0.1
	h0.2c-0.8-0.4-1.6-0.7-2.5-1.1l-0.1,0.1c0.6,1.5,0.6,3.6-0.8,3.5c-1-1.1-2.6-1.3-2.9-0.8c-0.3-0.3,0.3-0.3,0.3-0.5l-1.6-0.3
	c0.1-1.1,3-0.2,2.6-1.2c0.7,0.6,0.2,1,1.9,1.4c1.3,0-0.9-1.5-1.2-2c1.4,0.2,1.5,0,1.6-0.2l-0.1-0.1l0.1,0.1c0.1-0.2,0.4-0.3,1.3-0.2
	c0.6,0.7,0.9,1.1,1.4,1.5l2.5,0.7c0,0,0,0,0-0.1c-0.3-0.2-0.6-0.5-0.8-0.7c0.2-0.1,0.6,0.4,0.8,0.7c0.3,0.3,0.7,0.6,1.1,0.8
	c0.7,0.2,1.3,0.4,1.9,0.4c0.8,0.3,0.3,0.5,0.2,0.6c0.5,0.2,0.9,0.3,1.3,0.4c0.3-0.1,0.6-0.1,0.8-0.1c0-0.1,0-0.2,0.1,0h-0.1
	C2019.6,2162.6,2019.7,2162.7,2019.7,2162.8L2019.7,2162.8C2019.8,2162.9,2019.8,2162.9,2019.7,2162.8L2019.7,2162.8z M2018,591.6
	c1.9-0.5,3.2-1.1,4.5-1.7c0.7-0.5,1.2-0.9,1.9-1.3c-0.6,0.5-1.2,0.9-1.9,1.3c-1.1,0.8-2.3,1.7-3.8,2.5
	C2019.6,591.7,2017.3,592.4,2018,591.6L2018,591.6z M2019,2160.2c-0.6,0.1,0.4,0.8-0.2,1c-0.8-0.7-1.5-1-2.2-1.1
	c-0.5,0.1-0.9,0.1-1.2,0.1c0.4-0.1,0.8-0.1,1.2-0.1C2017.3,2160.1,2018.1,2160,2019,2160.2L2019,2160.2z M2021.2,2162.3l1.5-0.4
	l-0.8,0.3L2021.2,2162.3z M2022.7,2163.8l-0.3-0.8c0.6,0.4,0.7,0.8,0.7,0.9c0.1,0,0.1,0,0.1,0.1c-0.1,0.1-0.1,0-0.1-0.1
	C2023,2163.9,2022.9,2163.9,2022.7,2163.8L2022.7,2163.8L2022.7,2163.8z M2023.1,2164.8l0.5,0.2h1.5c-0.4,0.1-0.3,0.4-0.3,0.6
	l-1.2-0.6h-0.7L2023.1,2164.8L2023.1,2164.8z M2025.2,2168.4c-0.3-0.1-0.2-0.1,0-0.2c0-0.2,0.6-0.2,0.1-0.5c-0.6-0.2-0.8-0.1-1,0
	c-0.5-0.7-0.6-1.2-0.7-1.8c-0.1-0.1-0.1-0.1,0-0.1c0,0.1,0,0.1,0,0.1c0.2,0.4,1,1.2,1.8,1.6l0.2-0.1c1,0.6,0.1,0.7-0.4,0.7
	C2025.2,2168.2,2025.2,2168.3,2025.2,2168.4L2025.2,2168.4z M2025.2,2164.8c0.4,0,0.9,0,1.3,0c0-0.3-0.3-0.8-0.2-1
	c0,0.3,0.7,0.7,1.1,1h-0.9C2026.5,2165.1,2026.2,2165.2,2025.2,2164.8L2025.2,2164.8z M2027,2167.4c-1.3-1,0.3-0.9,1.2-1
	C2026.9,2166.6,2027.6,2167.2,2027,2167.4z M2025.8,587.4L2025.8,587.4c0.8-0.1,1.5-0.2,2.1-0.3
	C2027.7,587.3,2026.5,587.4,2025.8,587.4c-0.7,0.1-1.6,0.4-2.5,0.7c-1.3,0.6-2.5,1-3.4,1.8c-1.5,0.7-1,0.1-0.9-0.2
	c-0.9,0.4-1.7,0.8-2.4,1.2c-0.4,0.3-0.7,0.7-1.2,1c0.2,0,0.2,0.1-0.1,0.1c0.1,0,0.1-0.1,0.1-0.1c-0.1,0-0.3,0-0.4,0
	s-0.1,0.1-0.2,0.2c-0.1-0.1,0.1-0.1,0.2-0.2c0.5-0.3,1-0.7,1.6-1c0.5-0.5,1.1-0.9,2.2-1.2c0.3-0.2,0.3-0.1,0.3,0
	c1.3-0.7,2.8-1.1,4.3-1.6c0.8-0.3,1.6-0.7,2.6-1.1c-3.7,0.9,2.4-1.8-2.4,0.1c1.7-1,0.6-1.1,3.7-2.2c1.8,0.2-0.7,1.3-1.2,2.2
	c2.3-0.8,3.6-1.3,4.7-1.5l1-0.4l-0.3,0.2c1.7-0.5,3.5-0.9,5.2-1.3V584c-2.4-0.5-4.7-2-2.2-3.1c1.4,0,2.8-0.3,3.9-0.7
	c1.1-0.3,1.8-0.8,1.9-1.1c0.9,0-0.2,0.5-0.1,0.6l3-1c1,0.9-4.9,2.5-3.3,2.9c-1.8,0-1.3-0.6-4.7,0.5c-2.1,1.1,2.9,0.3,3.9,0.4
	c-2.5,1-2.5,1.2-2.5,1.5c0.1,0,0.2,0,0.2,0.1l-0.3,0.1c-0.1,0.2-0.4,0.5-2.1,1.2c-1.7,0-2.6,0-3.8,0.3
	C2029,586,2027.4,586.8,2025.8,587.4L2025.8,587.4z M2044.1,582.8l-1.4,0.7l0.1-0.6L2044.1,582.8L2044.1,582.8z M2031.2,2167.9
	l-0.4-0.1l2.6-0.2L2031.2,2167.9z M2032.9,2166.8c-0.6,0.5-0.5,0.2-0.6,0h-0.6c0.4-0.2,0.5-0.1,0.6,0h1.3
	C2033,2166.9,2032.7,2167.1,2032.9,2166.8L2032.9,2166.8z M2032.9,2166.3c-0.5-0.6-0.7-0.9,0.5-0.8c-0.4,0.1,0.6,0.4,0.7,0.7
	L2032.9,2166.3L2032.9,2166.3z M2034.4,2167.9c1.2-0.1,0.4-0.4-0.1-0.8C2036.4,2167.5,2036.5,2168.3,2034.4,2167.9z M2036.8,2167
	c0,0,0.1,0.1,0.2,0.1c-0.8-0.1-1.1-0.1-1.1-0.1c0.1,0,0.3-0.1,0.2-0.3C2036.4,2166.9,2036.7,2167,2036.8,2167
	C2036.4,2166.5,2037.7,2167.2,2036.8,2167L2036.8,2167z M2037,584.9l0.4-0.8l1.8-0.7L2037,584.9L2037,584.9z M2040,2171.5l-0.8-0.5
	c0-0.3,1.1,0.3,1.5,0.3L2040,2171.5L2040,2171.5z M2044.4,2171.3l-0.2-0.3c-1.4-0.6-3.8,0.3-4.4-1c1.2,0.6,3.6,0.3,5.4,0.5
	L2044.4,2171.3z M2048,2171.3l-1.2,0.2l1.4-0.5L2048,2171.3L2048,2171.3z M2053.4,581.8c0.4-0.1,0-0.3-0.1-0.4c0.6,0,1.1,0.2,2.4,0
	C2054.9,581.5,2054.1,581.6,2053.4,581.8L2053.4,581.8z M2056.8,2170.5c0,0.2-0.4-0.6,0.4-0.7
	C2057.2,2169.9,2057.3,2170.6,2056.8,2170.5z M2068.3,580.3c0.5,0.2,0.1-0.7,1-0.6C2074.1,579.1,2067.4,581.1,2068.3,580.3z
	 M2443,1983.6c0.1-0.1,0.2-0.7,0.5-0.6C2443.5,1982.9,2443.5,1983.6,2443,1983.6z M2447.9,1983.4l0.2-0.2l0.7-0.2L2447.9,1983.4
	L2447.9,1983.4z M2433,577.4c0.5-0.1,0.7-0.3,0.7-0.3c-6.6,0.9-14.8-0.7-16.3-0.2l-0.6-0.7c-5.6,1.2-6.3,1.3-13,0.8
	c0.1-0.1,0.9-0.3-0.2-0.5c-1.6,0.6-3.2,1.1-7.9,1l0.2-0.2l-7.2,0.2c0.1-2.3-12.4,1.5-14.5-1c-1.4,0.7-6.7,0.9-9,1.3
	c0,0.1-0.3,0.3-1.1,0.4c-0.2-0.2,0.3-0.3,1.1-0.4c0-0.1-0.2-0.2-0.6-0.3c-2.8,1.3-8-0.4-11.1-0.2c-2,0.3-1.1,0.7-0.3,1.1
	c-4-1-10.9,1.2-12.4,0.7c-2.9-0.1-1.1-0.9-1.9-1.4c-4.3,0.2,0.7,2.1-5,1.2c0.7-0.1,1.9-0.2,1.4-0.3c-2.2-0.2-6.2-2.8-8.4-2.3
	l1.5,0.4c-4,0.6-9.5-1.8-10.2-0.3l0.4,0.7c-6.9-0.9-2.9,0.3-10-0.5l0.1-0.1c-3.1,0.2-4.7-0.7-6.2,0.4l1.1,0.2c-3.8,0.1-4.1,0-8,0
	c-0.5,0.1-2.3,0.3-2.9,0c-0.2,1-9,0.5-10.7,0.4c3.1-0.2,1.6-0.6,0.7-1c-1.8,0.8-3.1,0.9-5.6,0.3c-0.4,1.2-0.9,2.5-5.8,2.6
	c0.8-0.2,2-0.3,1.5-0.5s-1.6,0-2,0.1c-0.5-0.2,1.1-0.4,0.5-0.9c-3.3,1.2-5.8,0.1-10.6,0.5c1.5-0.4,0.2-0.6-0.3-1
	c-0.4,1.4-6.6-1.2-4.8,0.6c-9.5-1-24,0-27.7-1.1c-1-0.5-3.6,0.3-5.3,0.3l0.2-0.6c-4.6,1.1-3.6,0.4-9,1.5c2.2-0.7,1.3-1-1-1.6
	l-3.7,1.3l-0.7-0.9c-1.5,0.4-3.2,0.2-4.9,0.1l0,0c-1.5,1-7.3,1-8.2,1.5c-1.7-1.3-4.5,0.3-5.7-0.8c-0.6,0.2-1.2,0.3-2,0.5
	c0.8,0.5,1.1,1.2-0.4,0.9c-0.1,0-0.2,0-0.4,0l0.6,0.7c0.2,0.7-1.9-0.2-3.8-0.7c-0.6-0.1-1.3-0.2-1.9-0.3c-0.2,0-0.4,0-0.6,0
	c0.1,0,0.2,0,0.3,0c-0.9-0.2-1.9-0.3-3.2,0c-5.4-1.1-11.9,1.6-17.8,0.1c0.9,0.2,2.1,0.2,2.5,0c-4.9,0.1-9.9-0.9-13-0.4l0.2,0.7
	c-3.6,0.3-6.4,0.5-9.3,0.5l-0.1,0.8c-4.2-0.3-13.4,1-16-0.6c-1,0.6-5.9-0.2-8.3,0l-0.6-0.6c-3.1-0.2-5.1,0-6.9,0.2
	c0.3,0,0.6,0.1,0.9,0.2c-1.6,0.5-3.3,0.3-4.7,0c-1.1,0-2.5-0.1-4.1-0.4c0.5-0.5,2.1,0,4.1,0.4c1.5,0,2.7-0.1,3.9-0.2
	c-6.4-1.2-12.3,0-17.9,0l-0.1-0.2l-5.6,0.5c1.5-0.5-1.1,0.4-2.8,0.3c-1.8,0.3-4.7,0.2-6.8-0.1l-3.6,0.1c3.9-0.6-0.3-0.8-0.6-1.5
	l-2.3,0.6c-0.9-0.3,1.4-0.6-0.2-0.7c-1.5,0.4-6,0.7-7.4,1.5c0.2,0.2,0.8,0.3,1.5,0.3c0.2-0.1,0.2,0,0.1,0c0.1,0,0.1,0,0.2,0
	c0.8,0,1.3,0.1,1.6,0.1c0.5,0,0.9,0,1.4,0c-0.5,0-0.9,0.1-1.1,0.1c-0.2,0.1-1.2,0.1,0,0c0.1,0,0-0.1-0.3-0.1c-0.6,0-1.1,0-1.6-0.1
	c-0.1,0-0.1,0-0.2,0c-0.2,0.1-0.5,0.2-0.6,0.3c0.3,0,0.6,0,1.1,0c-1.1,0.2-1.2,0.1-1.1,0c-2.8,0.1-1.8,0.3-1.6,0.6
	c-3.1-0.8-4.8,0-7.1-0.7c1.9,0.8-7.6,0.9-5.4,1.9c-2.5-0.7-1.6,0.2-3.2-0.4c3.3-0.3,6.5-1.7,9.2-2.5c-0.9-0.1-1.8-0.2-2.7-0.3
	c1.5-1.4,5.6-0.3,7.3-0.7c-1.1,0.3-3,0.3-3.3,0.1l0.8,0.8c3.8,0,6.8-1,9.5-1.6c-2.6-0.2,3.1-0.7,1.2-1.3l-2,0.2c-1-0.3,1-0.7,2.1-1
	c6.5,0.3,18.3-0.5,20.6,0.3c-1.3-0.2-3.7,0-4.9,0.3l3,0.3c-2.4,0-4.4-0.7-8-0.4c0.6,0.6-2,1.5,0.8,2.2c6.9,0.8,5.6-1.6,14-1.5
	c0.8-0.2-1.8,1,2.7,0.6c5.6-0.6,9.7-2,9.7-3.2c-2.4,0.4-7.1,1.2-7.8,0.2c2.4-0.4,6.4-0.6,6.6-1.2c2.4,1.1-4.4,0.3-1.2,1.2
	c1.6,0,2.4-0.4,3.1-0.6c-1.1,0.5,1.5,0.7,2,1c5.4,0,8.4,0.4,14.2,0.5c-0.2-0.1-0.3-0.1,0.1,0h-0.1c0.3,0.2,0.9,0.5,0.8,0.8
	c2.8-0.3,6.8-1.9,5.8-2.6c3.3-0.1,3.5,0.5,6.3,0.1c-4.5-0.9,0.9,0.2,1.4-0.9c2.9-0.1,1,0.5,2.3,0.7c0.5-0.1,1.6-0.5,1.7-0.7
	c-0.3-0.1-0.8-0.3-1.6-0.4c1.3,0,1.7,0.2,1.6,0.4c1.8,0.8-3.4,2-1.3,3c1.4,0.6,7.6,1.6,8,1.7c1.4-0.9,1-4.5-1.1-5.6
	c0.2-0.6,2.7,0.6,4,0.7c3.6,1,5.5-0.8,8.6-0.4l-2.3,0.5c0.5,0.3,4.9-0.1,5.6-0.4c0.1,0.3-2.3,1.8-0.9,2.2c5.4,0.2,10.6-1.7,10.2-2.8
	l-8.3,1.1c-0.3-0.8,5.9-0.9,5.6-1.9l7.7,0.3c-1,0-3.9,0.3-2.8,0.7c3.3-0.1,1.7,0.2,3.9,0.5c-3.8,1.1-10.7,3.9-13.1,5.2l4-0.6l1,0.5
	c5.2-0.7,9.8-4,11.2-4.9c3,0.2,1.9,2,1.2,2.4c5.8,0.1,5.7-2.6,11.6-2.3l-2.2-0.4c1.4-0.2,6.4,0.2,5.9-0.2c1.1,0.4,2.1,1.4,1.2,1.8
	l4.9-1.6c-0.8,0.2-0.3,1.6-0.6,1.9c2,0,3.4-1.5,2.5-1.9c3.8,1,2.9,0.4,6.1,1.6c1.2-0.1-0.1-1.5-1-1.7c2.7-0.4,4.3-0.2,5.6-0.1
	c0.1,0,0.1,0,0.1,0h0.1c1.4,0.2,2.5,0.3,4.4-0.6l-2.9,2.5l-1.5-1.9c0,0-0.1,0-0.2,0c-4.5,0.6-1.2,3.3-2.1,4.4l9.7-4.4
	c-0.3,0.3-1.1,1.7-1,1.8c0.8-1.3,11.9-1.5,17.4-1.3h-0.8c-1.1,0.5,3.6,0.8,5.5,0.3c-0.3,0.3-0.8,0.2-1.6,0.2c3.6,1,4.7-2,8.4-0.8
	c-3.4-0.1-4,0.4-3.8,0.9c2.8-0.5,9.1,0,7.8-1.5c1.8,0.3,3.4,0.1,3.2,0.9l6.7-0.9c-0.5,0.2-0.9,0.6,1.1,0.7c-3.8-0.2-7.5,1.2-9.4,0.3
	c-0.1,0.9,1.3,1.4-0.5,2.2c7.3-0.5,11.3-2.1,15.9-3.2l6.4,0.7l0.3-0.4l1.1,1.1c0.8-0.2,1.3-0.5,1.5-0.4c0.1,0.1-0.1,0.2-0.4,0.4
	c0.7-0.1,1.3-0.2,1.6-0.3c-0.1-0.1-0.1-0.3-0.4-0.4c0.7,0.1,0.7,0.3,0.4,0.4c0.3,0.6-0.9,1.2-2.1,1.8c0.2,0.1,0.4,0.1,0.6,0.2
	c3.1-0.7,6.6-1.6,3.8-2.3l3.8,0.6c4.4-1.1,3.6-0.9,9-1.7c0.3,0.4-1.1,0.7-0.2,1c3.9-1.2,9.6,1.4,10.4,0.3c3.2-0.3,1.3-0.9,3.3-1.2
	c-0.1,0.1-0.3,0.3,0.3,0.4l2.4-0.8c1,0.3-2.2,0.5,0.5,0.9c4.6-0.6,7.3-1,11.1-0.7c5.5-0.2-2.4-1.5,2.3-1.4c0.7,0.6,1.3,1.4,4.2,1.5
	c1.5-0.4,1.3-0.9,3.9-1.2l-0.2,1c2.4,0,4.3-0.2,4.3,0.5c2-0.4,3.3-0.4,4.3-0.2c3.6-0.5-2.7-2-3.5-2.3c3.6,0.7,6,0.3,8.1,1.5
	l-3.2,0.3c6.8,1.2,6.4-1.4,9.5,0.6c-2.3-0.1-5.1,0.5-3.7,1l3.3-0.5c0.4,0.3-1.9,0.2-0.4,0.5c1-0.2,2.9-0.7,3.8-1l0.2-0.3
	c0.4,0,0.2,0.1-0.2,0.3l-0.1,0.1l5.5-0.2c-0.6,0.1-0.6,0.3,0.3,0.3l4-0.5c0.3-0.1,0.7-0.1,1.3-0.2l-1.3,0.2c-1.2,0.2,0,0.5,1.8,0.7
	c5.1,0.3,4.1-2.2,8-1.2c-0.6,0-0.7,0.1-1.2,0.1l2,0.4c0.4-2,12-0.2,12.4-2.3c2.9,0.8,0.2,0.5-3.5,1.5l3.1,0.6
	c-1.2,0.1-2.3-0.1-3.6,0.1c4.1,0.8,7.9-0.3,10.1-0.8c1.6,0.3-1.2,1.5,3.2,1.2c6.2-0.4-1.2-1.5,2.6-1.8l2.7,1c4.8-0.8,8.4-0.1,12.4,0
	c0.9-0.1,1.4-0.2,1.6-0.3h-0.1l0.3-0.1c0.2-0.3-0.9-0.7,1.5-0.7l-1.5,0.7l-0.1,0.1c4.3,0.4,9-1.1,12.2-0.7c-0.7,0.2,1.9,0.7,2.2,0.9
	l5.4-0.6c-2.1,0.3-2,0.9-2.5,1.4c1.8-0.1,2.7-0.4,3.9-0.5c-0.8,0.2-1.5,0.4-0.6,0.7l6.1-1c-0.4-0.1-1.1-0.1-1.7-0.2
	c1.5,0,4.8-0.4,7,0.1c-0.2,0.2-0.9,0.5-1.1,0.7c-1.9-0.7-2.9-0.1-3.8,0.4c4.2-0.1,1.1,0.2,3.1,0.6c3,0,4.2-0.8,3.4-1.4
	c3.4,0.2,4.4,0.4,7.9-0.2l-0.6,0.8l3.2-0.3l-2.6,1c6.1,0.5,1.1-1.4,7.8-1v0.7c2.6-0.3,3.5-1.5,5.5-0.7c2.5-0.5-4.3-1,1.6-1.2
	c1,0.4,3.3,0.7,5,0.8c1.6-0.3-0.7-0.7-2.1-0.8c8.3-0.2,5.2,2.5,13,1.5c-2.7-0.5,2.3-1.4-4.2-1.4c3.1-0.5,6.1,1,9.3,0.2l-2.1,0.9
	c1.1,0,2.4-0.3,3.1-0.5l-0.3,0.7c3.9-1.3,7.4,0.5,9.7-1.2c-1.6,1.3,2.9-0.1,4.5,0.3c-3.2,1-9.3,0.2-9.7,1.4c1.5,0.3,2.9-0.3,4.3,0.1
	c0.9-0.2,1.5-0.2,0.3,0c-0.1,0-0.2,0-0.3,0c-1,0.2-2.5,0.5-2.9,0.8c5,0.6,7.9-0.9,10.9-1.3l-5.4,0.4c0.4-1.2,2.4-0.3,3.9-1.3
	c2.7,0.6,4.8-0.4,6.9-0.1c-0.6,0-0.6,0.1-1.2,0.2c5.8-0.3,7.6,1.6,9.9,1.5c2.3,0,6.6-0.9,5-1.3c1.9-0.5-7.7,0.8-4.5-0.9
	c3.4,1.6,6.8-1.1,14.1-0.5c-3.1,0.9,2,0.8-0.8,1.6c3.4-0.5,3.6-0.7,5-1.4l1.1,0.4c4.3-1.8,0.9-1.2,7.6-2.7c-2.2,0.7,2.8,0.5,1.1,1.1
	c1.9-0.2,3.7-0.7,5-1.2l-0.2,0.1c6.8-1.4,5.7-0.2,11.8-2l-0.7-0.2c3.9-1.2,8.4-2.3,12.9-3.5s9-2.5,12.9-4.1
	c-0.8,0.2-1.6,0.4-2.4,0.6c0.6-0.2,1.6-0.7,2.8-1.1c1.5-0.6,3.2-1.2,4.5-1.5c0.2-0.1,0.4-0.2,0.4-0.1c-0.1,0-0.3,0-0.4,0.1
	c-0.5,0.2-1.3,0.7-1.7,0.8c0.2,0.3,1.3,0.5,3.3-0.1l0.5-0.8l0.9,0.1c2.9-1.2-1.1-0.4,1.7-1.6c1.1,0.4,4.2-0.8,7.4-2.3
	c1.6-0.7,3.1-1.5,4.5-2.1s2.5-1,3.3-1c0.6-1.1-0.6-0.3-1.9,0.3c-1.3,0.6-2.5,1.3-1.8,0.3c0.9-0.3,1.4-0.2,3.2-1.2l-0.9-0.3
	c2-1.1,3.8-1.9,5.4-2.8s2.9-1.6,4.3-2.4c1.3-0.8,2.6-1.6,3.9-2.6c1.3-1,2.7-2.1,4.3-3.4l-0.2,0.3c2.4-1.7,3.5-2.9,4.1-4.2
	c0.7-0.2-0.8,1.4,0.3,0.8c0.6-1.2,1.4-2.3,2.4-3.1c0.9-0.9,1.9-1.6,2.8-2.4c1.9-1.4,3.7-2.7,4.1-4.4c0.4,0.6,2-0.2,3.4-0.8
	s2.4-1.1,2,0.4l1.1-1.9c0.1,0.6-0.8,2-2,3.5c-1.1,1.4-2.3,2.9-2.3,3.7c-1.9,1.5-3.6,3.1-5.5,4.5c0.4,0.1,0,1.3,0.9,0.6
	c-1.2,1.2-2.3,2.4-0.3,1.1c-6.9,5.2-13.5,10.4-20.6,15s-14.7,8.5-22.5,10.9c-1,0.5-0.3,0.6,0.2,0.6c-3.2,0.2-2.5,1.5-4.1,2.2
	l-4.6,0.2c-1.6,1-0.1,0.9-0.2,1.2c-7.9,2.9-16.2,3.6-22.6,5.7c-2.2,0,0.3-1.2-2.5-0.8c3.8,0.6-6.9,2-5.7,2.6
	c-3.1-0.7-9.8,1.3-8.9-0.8c-3.4,0.3-2.7,1.2-1.6,1.3c-3.9,0.4-7.1,0.8-10.2,1.8c-1.1-0.1-5.5,0.5-10.2,0.8
	c-4.6,0.4-9.5,0.5-11.2-0.2c2.4,0.9-0.1,0.5-2.4,1.1l2.1,0.8l-5.2,0.1c-1.1,0.1-1.4,0.1-1.4,0c-0.9,0,0.2-0.5-2-0.7
	c-3.5,0.1-3.7,0.5-5.6,1l0.6,0.1l-2.4,0.2c-1.8,0,6.2-1,0.4-1.3c-0.1,0.2-3.4,1.5-5,0.9c2.9,0,2.6-0.6,1.5-0.8h-4.1l1.4,1.1
	c-11.8,0.1-23.9-0.7-36.4-0.6c0.2-1-8.8,0-7.7-1.5l0.5,0.1c3.1-0.2-0.9-1.1-3.4-1c2.6,0.4-4.7,1.5,1.7,1.6l-4.9,0.7
	C2450.9,579.5,2440.5,576.6,2433,577.4L2433,577.4z M2553.1,1996.1c0.2,0,0.4-0.1,0.6-0.1
	C2553.8,1996.9,2553.5,1996.2,2553.1,1996.1z M2547.1,1997.7l-0.2-0.9h0.1L2547.1,1997.7L2547.1,1997.7z M2539.6,1996.3
	c-0.3-0.1-0.4-0.1-0.5-0.3l0.1-0.2L2539.6,1996.3L2539.6,1996.3z M2502.8,1992.7c0.7,0.6,0.3-0.8,1.1-0.3c0.1,1.1-0.2,0.8-0.8,1.1
	c-0.1,0.1-0.1,0.1-0.3,0.2c0.1-0.1,0.2-0.1,0.3-0.2C2503.4,1993.1,2502.5,1993,2502.8,1992.7z M2493.1,1993.9l-0.5,1.5l0.3-1.5
	H2493.1z M2482.1,1990.1c-0.6-0.4,0.2-0.4,0.3-0.6C2483.4,1989.6,2482.2,1989.8,2482.1,1990.1z M2482.4,1992.3h-0.8
	c-0.1-0.3,0.3-0.3,0.5-0.4C2482.4,1991.9,2482.5,1992.1,2482.4,1992.3z M2480.3,1989.5l-0.3,0.9c-0.1-0.3,0-0.4-0.2-0.6
	L2480.3,1989.5z M2472.8,1989.9c0.1-0.1,0.4,0,0.6,0.1c0.1,0,0.2-0.1,0.3-0.2l0.6,0.4c-0.1,0.2-0.5-0.1-0.9-0.2
	C2473.2,1990,2472.9,1990,2472.8,1989.9L2472.8,1989.9z M2472.6,1989.1l-0.5-0.2l-0.2-0.2L2472.6,1989.1L2472.6,1989.1z
	 M2471.4,1988.9l-0.4,0.5l0.1-0.8L2471.4,1988.9L2471.4,1988.9z M2470,1990.2c0.5,0,0.9-0.1,0.8,0.5
	C2470.2,1990.8,2469.7,1991,2470,1990.2C2470.1,1990.2,2470,1990.2,2470,1990.2L2470,1990.2z M2466.3,1987.6l0.1-0.3
	c0.1-0.1,0.2,0.1,0.3,0C2467,1987.5,2466.7,1987.7,2466.3,1987.6L2466.3,1987.6z M2463.2,1987.9h-1.1c0.1-0.2,0.2-0.7,0.7-0.3
	l0.1-0.3L2463.2,1987.9L2463.2,1987.9z M2449.3,1984.1l0.6-0.7v0.3c0.6,0.6,2-0.2,2,1C2451.4,1984.2,2450.1,1984.3,2449.3,1984.1
	L2449.3,1984.1z M2451.7,1983.5l0.5-0.2l0.3,0.4C2452.4,1984,2452,1983.4,2451.7,1983.5z M2453.2,1987.7c-0.2-0.1-0.3-0.2-0.4-0.2
	c0.1,0.4-0.4-0.1,0,0c0,0,0-0.1-0.1-0.1C2453.7,1987.5,2453.2,1987.2,2453.2,1987.7L2453.2,1987.7z M2454.3,1986.5
	c-0.7,0.2-0.3,0.4-0.1,0.8C2453.1,1987,2453.2,1986.3,2454.3,1986.5z M2454.3,1988.7c0.2-0.1-0.2-0.3-0.3-0.6l0.7-0.2
	C2454.9,1988.4,2454.9,1988.7,2454.3,1988.7z M2455.2,1987.4l-0.7,0.1c0.3-0.1,0.6-0.4,0.4-0.1
	C2455.3,1986.9,2455.2,1987.2,2455.2,1987.4l0.3-0.1C2455.2,1987.6,2455.2,1987.5,2455.2,1987.4L2455.2,1987.4z M2454.7,1986.7
	l1.3-0.5l0.2,0.1L2454.7,1986.7L2454.7,1986.7z M2458.2,1986.2c0.5,0.8-0.3,0.9-0.8,1.1C2458.1,1987,2457.8,1986.6,2458.2,1986.2z
	 M2458,1988.7c-0.1,0.3,0,0.7-0.1,0.9c0.1-0.3-0.3-0.6-0.4-0.8L2458,1988.7c0.1-0.3,0.2-0.4,0.7-0.2L2458,1988.7L2458,1988.7z
	 M2459.3,1985.3c0,0,0-0.1,0-0.2C2459.4,1985.2,2459.4,1985.2,2459.3,1985.3c-0.1,0.2-0.3,0.2-0.1,0.5c0.3,0.2,0.4-0.1,0.6-0.1
	c0.1,0.6,0.1,1,0.1,1.5c-0.1-0.3-0.4-0.9-0.7-1.2l-0.1,0.1C2458.5,1985.5,2459,1985.4,2459.3,1985.3L2459.3,1985.3z M2458.8,1988.2
	c0.2-0.1,0.2-0.4,0.2-0.6l0.6,0.4l0.4-0.1l-0.1,0.2l-0.2-0.1L2458.8,1988.2L2458.8,1988.2z M2459.7,1988.9c0.1,0,0.1,0.1,0.2,0.1
	l0,0v0.7C2459.7,1989.5,2459.7,1989.1,2459.7,1988.9L2459.7,1988.9C2459.7,1988.8,2459.7,1988.9,2459.7,1988.9L2459.7,1988.9z
	 M2459.7,1990.8l0.5-0.4l0.4-0.2L2459.7,1990.8L2459.7,1990.8z M2462.8,1991.4c-0.4,0.2-0.9,0.5-1.3,0.4c0.4-0.2-0.1-0.7,0.2-1
	C2462.1,1991.3,2462.4,1991.5,2462.8,1991.4c0.3-0.1,0.5-0.3,0.7-0.3C2463.3,1991.3,2463,1991.4,2462.8,1991.4z M2466.7,1992.2
	l0.4-0.6l0.6-0.1L2466.7,1992.2L2466.7,1992.2z M2467.9,1990.4c-0.7,0.2-0.8,0.4-0.9,0.6v0.1h-0.1c-0.1,0.2-0.2,0.4-0.8,0.5
	c-0.3-0.6-0.4-0.9-0.7-1.1c-0.4,0-0.9,0-1.3,0v0.1c0.1,0.2,0.3,0.3,0.4,0.5c-0.1,0.1-0.3-0.3-0.4-0.5c-0.2-0.2-0.4-0.3-0.6-0.5
	c-0.4-0.1-0.6-0.1-1,0c-0.4-0.1-0.1-0.4,0-0.6c-0.2-0.1-0.5-0.1-0.7-0.1c-0.1,0.1-0.3,0.2-0.5,0.3c0,0.1,0,0.2-0.1,0h0.1
	c0-0.1,0-0.1,0-0.2h-0.1c0-0.1,0.1-0.1,0.1,0c0.1-0.1,0.3-0.1,0.5-0.1c0.2-0.1,0.4-0.2,0.7,0c0.1,0,0.1,0.1,0,0.1
	c0.4,0.1,0.7,0.3,1,0.6c0.2,0.1,0.4,0.1,0.7,0.1c-0.8-0.7,1-0.6-0.3-0.9c0.5-0.1,0.5-0.7,1.2-0.5c0.2,0.8-0.6,0.9-0.9,1.4
	c0.6,0.1,0.9,0.2,1.2,0.3h0.3l-0.1,0.1l1.3,0.5l0.1-0.1c-0.2-1.2,0-3.2,0.7-3.5c0.4,0.8,1.3,0.5,1.5-0.1c0.1,0.2-0.2,0.4-0.2,0.6
	l0.8-0.2c-0.1,1.1-1.6,1-1.5,1.8c-0.3-0.4,0-0.9-0.9-0.8C2466.7,1989.3,2467.8,1990.1,2467.9,1990.4L2467.9,1990.4z M2469.9,1990.1
	c-0.3,0-0.6,0.2-0.4-0.1C2469.6,1990.1,2469.8,1990.1,2469.9,1990.1z M2468.2,1992.4l0.2-0.6l0.2,0.3L2468.2,1992.4L2468.2,1992.4z
	 M2470.7,1993.2c0.1,0,0.1-0.2,0.1-0.4c0.1,0.2,0.2,0.3,0.5,0.4H2470.7z M2474.4,1994c0.1,0.3,0.2-0.7,0.4-0.5
	C2476,1993.5,2473.9,1994.7,2474.4,1994z M2582.4,2004.2c-0.2,0,0-0.5-0.5-0.7c-0.8,0-0.9,0.5-1.3,1l0.1,0.1l-0.6,0.1
	c-0.4,0,1.4-1,0-1.3c0,0.2-0.7,1.4-1.1,0.8c0.7,0,0.6-0.6,0.3-0.8h-1l0.4,1.1c-2.8,0.2-5.8-0.6-8.8-0.4c0-1-2.1,0-1.9-1.4l0.1,0.1
	c0.7-0.2-0.2-1.1-0.8-0.9c0.6,0.4-1.1,1.5,0.4,1.6l-1.1,0.7c-0.6,2.8-3.2-0.2-4.9,0.7c0.1-0.1,0.2-0.3,0.2-0.3
	c-1.6,0.9-3.6-0.8-3.9-0.3l-0.1-0.8c-1.4,1.2-1.6,1.2-3.2,0.8c0-0.1,0.2-0.3-0.1-0.5c-0.4,0.6-0.8,1.1-1.9,0.9l0.1-0.2l-1.8,0.1
	c0.1-2.3-3,1.3-3.4-1.2c-0.4,0.7-1.6,0.8-2.2,1.1c0,0.2-0.1,0.3-0.3,0.4c0-0.2,0.1-0.3,0.3-0.4c0-0.1,0-0.2-0.1-0.3
	c-0.7,1.2-1.9-0.5-2.6-0.3c-0.5,0.3-0.3,0.7-0.1,1.1c-0.9-1-2.7,0.9-3,0.5c-0.7-0.2-0.2-0.9-0.4-1.4c-1.1,0.1,0,2.1-1.3,1.1
	c0.2-0.1,0.5-0.2,0.4-0.3c-0.5-0.2-1.3-3-1.8-2.5l0.3,0.5c-1,0.5-2.1-2.1-2.4-0.5v0.7c-1.6-1.1-0.7,0.2-2.3-0.7v-0.1
	c-0.7,0.1-1.1-0.8-1.5,0.3l0.2,0.2c-0.9,0-1-0.1-1.9-0.3c-0.1,0.1-0.6,0.2-0.7-0.1c-0.1,1-2.2,0.2-2.6,0.1c0.8-0.1,0.5-0.5,0.3-0.9
	c-0.5,0.7-0.8,0.8-1.4,0.1c-0.2,1.2-0.5,2.5-1.7,2.4c0.2-0.2,0.5-0.2,0.4-0.5s-0.4,0-0.5,0.1c-0.1-0.3,0.3-0.4,0.2-0.8
	c-0.9,1.1-1.4-0.1-2.6,0.2c0.4-0.3,0.1-0.6,0.1-1c-0.3,1.4-1.4-1.4-1.2,0.4c-2.1-1.4-5.7-0.9-6.4-2.2c-0.1-0.5-0.9,0.2-1.3,0.2
	l0.1-0.6c-1.3,0.9-0.9,0.3-2.4,1.2c0.6-0.6,0.5-1,0.1-1.6l-1.1,1.1v-0.9c-0.4,0.3-0.8,0.1-1.2-0.2c-0.5,0.9-1.9,0.6-2.2,1.1
	c-0.2-1.3-1.1,0.1-1.2-1.1c-0.2,0.2-0.4,0.3-0.6,0.3c0.1,0.6,0.1,1.2-0.3,0.9h-0.1v0.7c-0.1,0.7-0.4-0.3-0.7-0.9
	c-0.1-0.1-0.3-0.3-0.4-0.4c-0.1,0-0.1,0-0.1-0.1h0.1c-0.2-0.2-0.4-0.3-0.8-0.2c-1.1-1.3-3.1,1-4.2-0.8c0.2,0.2,0.5,0.3,0.6,0.1
	c-1.2-0.2-2.1-1.5-3-1.1l-0.1,0.7c-0.9,0.1-1.6,0.2-2.3,0l-0.2,0.7c-0.9-0.5-3.4,0.2-3.6-1.4c-0.4,0.5-1.3-0.5-2-0.4v-0.6
	c-0.7-0.4-1.2-0.3-1.7-0.2c0.1,0.1,0.1,0.1,0.1,0.2c-0.5,0.3-0.8,0.1-1.1-0.3c-0.3-0.1-0.5-0.3-0.9-0.6c0.2-0.5,0.5,0.1,0.9,0.6
	c0.3,0.1,0.6,0.1,1,0.1c-1.2-1.6-2.9-0.8-4.2-1.2v-0.2l-1.4,0.1c0.5-0.4-0.4,0.3-0.7,0.1c-0.5,0.2-1.1-0.2-1.5-0.7l-0.8-0.3
	c1-0.1,0.1-0.8,0.3-1.5l-0.7,0.4c-0.1-0.4,0.5-0.4,0.1-0.7c-0.5,0.2-1.5-0.1-2,0.5c0,0.2,0.1,0.4,0.2,0.6l0,0v0.1
	c0.2,0.1,0.3,0.2,0.3,0.3c0.1,0.1,0.3,0.2,0.4,0.2c-0.2-0.1-0.3-0.1-0.4-0.1c-0.1,0.1-0.3-0.1,0,0v-0.1c-0.1-0.1-0.2-0.2-0.3-0.3
	c0,0,0,0-0.1-0.1c-0.1,0.1-0.2,0.1-0.2,0.2c0.1,0,0.1,0.1,0.2,0.1c-0.3,0.1-0.3,0-0.2-0.1c-0.6-0.3-0.5,0-0.5,0.3
	c-0.4-1.2-1-0.7-1.3-1.9c0.2,1.2-1.8-0.6-1.6,0.7c-0.3-1.2-0.4-0.2-0.5-1.2c0.7,0.5,1.8-0.2,2.5-0.5l-0.4-0.8c0.7-1,1.2,0.6,1.6,0.6
	c-0.3,0.1-0.6-0.2-0.6-0.5l-0.1,0.9c0.8,0.6,1.7,0.1,2.4-0.1c-0.5-0.5,0.9-0.3,0.6-1.1h-0.5c-0.1-0.4,0.4-0.5,0.7-0.7
	c1.3,1.1,4.2,1.2,4.5,2.1c-0.2-0.3-0.9-0.3-1.2-0.1l0.6,0.6c-0.6-0.1-0.8-1-1.7-0.9c0,0.6-0.8,1.2-0.4,2.2c1.4,1.3,1.7-1.1,3.6-0.4
	c0.2-0.1-0.6,0.8,0.5,0.8c1.5-0.2,2.7-1.3,3.1-2.5c-0.6,0.2-1.9,0.7-1.9-0.3c0.6-0.2,1.6-0.2,1.8-0.8c0.3,1.2-1.1,0.1-0.6,1.1
	c0.4,0.1,0.6-0.2,0.9-0.3c-0.4,0.4,0.2,0.8,0.2,1.1c1.2,0.3,1.8,1,3.2,1.4c0-0.1,0-0.1,0,0l0,0c0,0.2,0.1,0.5,0,0.8
	c0.7-0.2,2-1.5,1.9-2.2c0.8,0.1,0.7,0.6,1.4,0.5c-0.8-1.2,0.2,0.2,0.5-0.8c0.7,0,0.1,0.5,0.4,0.8c0.1-0.1,0.5-0.4,0.6-0.6
	c-0.1-0.2-0.1-0.3-0.3-0.5c0.3,0.1,0.4,0.3,0.3,0.5c0.2,0.8-1.2,1.8-1,2.8c0.2,0.6,1.4,2,1.5,2.1c0.5-0.8,1.2-4.3,0.9-5.6
	c0.2-0.6,0.5,0.8,0.8,0.9c0.6,1.1,1.4-0.5,2.1,0.1l-0.6,0.4c0.1,0.3,1.1,0.2,1.4-0.1c-0.1,0.3-0.9,1.6-0.6,2.1
	c1.2,0.5,2.8-1.2,2.9-2.2c-0.7,0.2-1.4,0.5-2.2,0.7c0.1-0.8,1.6-0.6,1.7-1.6l1.7,0.6c-0.2,0-1,0.1-0.8,0.6c0.8,0.1,0.4,0.2,0.8,0.7
	c-1.1,0.9-3.2,3.3-4.1,4.5l1.1-0.4l0.1,0.5c1.4-0.4,3.1-3.5,3.6-4.3c0.6,0.3,0.1,2.1-0.2,2.4c1.4,0.3,1.8-2.3,3.1-1.8l-0.4-0.5
	c0.3-0.1,1.4,0.4,1.4,0.2c0.2,0.6,0.2,1.7-0.1,1.9l1.5-1.4c-0.2,0.3-0.3,1.6-0.4,1.8c0.5,0.2,1.1-1.5,0.9-1.8c0.8,1.2,0.6,0.6,1.2,2
	c0.3-0.1,0.2-1.5,0.1-1.7c0.7-0.3,1.1-0.1,1.3,0.2l0,0v0.1c0.3,0.2,0.6,0.4,1.1-0.4l-1.1,2.3l-0.1-1.9l0,0c-1.2,0.5-0.8,3.2-1.2,4.2
	l3-3.9c-0.1,0.2-0.5,1.6-0.5,1.8c0.4-1.2,3-1,4.3-0.7h-0.2c-0.2,0.3,0.3,0.7,0.8,0.7c0.1,0,0.3-0.1,0.4-0.1
	c-0.1,0.2-0.2,0.2-0.4,0.1c0.7,1.1,1.4-1.8,2.1-0.5c-0.8-0.2-1,0.3-1,0.8c0.7-0.4,2.1,0.3,2-1.2c0.4,0.4,0.8,0.2,0.6,1l1.7-0.7
	c-0.1,0.2-0.3,0.6,0.1,0.7c-0.9-0.3-1.9,1-2.2-0.1c-0.1,0.9,0.1,1.5-0.4,2.2c1.8-0.2,2.9-1.7,4.1-2.7l1.4,0.8l0.1-0.4l0.1,1.1
	c0.2-0.2,0.4-0.4,0.4-0.3s0,0.2-0.1,0.4c0.2-0.1,0.3-0.1,0.4-0.2c0-0.1,0-0.3-0.1-0.4c0.1,0.2,0.1,0.3,0.1,0.4
	c0,0.6-0.4,1.2-0.7,1.8c0,0.1,0.1,0.2,0.1,0.2c0.8-0.6,1.7-1.4,1.2-2.2l-0.6-0.5c0.2,0.2,0.4,0.3,0.6,0.5l0.8,0.7
	c1.1-1,1-0.8,2.3-1.4c0,0.4-0.3,0.7-0.1,1c1-1.1,2.1,1.7,2.4,0.6c0.8-0.2,0.4-0.9,0.9-1.2c-0.1,0.1-0.1,0.3,0,0.4l0.6-0.7
	c0.2,0.3-0.6,0.5,0,0.9c1.1-0.5,1.8-0.8,2.7-0.4c1.3-0.1-0.4-1.6,0.6-1.3c0.1,0.7,0.2,1.4,0.9,1.6c0.4-0.4,0.4-0.9,1-1.1l-0.1,1
	c0.6,0,1-0.1,1,0.6c0.5-0.4,0.8-0.3,1-0.1c0.9-0.4-0.5-2-0.7-2.4c0.8,0.8,1.4,0.4,1.8,1.6l-0.8,0.2c1.5,1.3,1.6-1.3,2.2,0.8
	c-0.6-0.1-1.2,0.4-0.9,0.9l0.8-0.5c0.1,0.3-0.5,0.2-0.1,0.5c0.2-0.2,0.7-0.7,1-1l0.1-0.3c0.1,0,0,0.1-0.1,0.3v0.1l1.3-0.1
	c-0.1,0.1-0.2,0.3,0.1,0.3l1-0.5c-0.3,0.2,0,0.6,0.4,0.7c1.2,0.3,1.1-2.1,1.9-1.1c-0.1,0-0.2,0.1-0.3,0.1l0.5,0.5
	c0.2-2.1,2.8-0.1,3-2.2c0.6,0.9,0,0.5-0.9,1.4l0.7,0.6c-0.3,0.1-0.6-0.1-0.9,0.1c0.9,0.9,1.9-0.2,2.4-0.7c0.4,0.3-0.3,1.6,0.7,1.2
	c1.5-0.4-0.3-1.5,0.6-1.8l0.6,1.1c1.1-0.8,2-0.1,2.9,0.1c0.2-0.1,0.3-0.2,0.4-0.3l0,0l0.1-0.1c0.1-0.3-0.2-0.7,0.4-0.7l-0.4,0.7v0.1
	c1,0.5,2.1-1,2.9-0.7c-0.2,0.2,0.4,0.7,0.5,0.9l1.4-0.7c-0.6,0.3-0.6,0.9-0.7,1.5c0.4-0.1,0.6-0.4,0.9-0.5c-0.2,0.2-0.4,0.4-0.1,0.7
	c0.5-0.3,1-0.7,1.4-1c-0.1-0.1-0.2-0.1-0.4-0.2c0.4,0,1.1-0.4,1.6,0.1c-0.1,0.2-0.2,0.5-0.3,0.7c-0.4-0.7-0.7-0.1-0.9,0.4
	c1-0.1,0.2,0.2,0.7,0.6c0.7-0.1,1-0.9,0.8-1.4c0.8,0.2,1.1,0.4,1.9-0.3l-0.1,0.8l0.7-0.3l-0.6,1c1.5,0.5,0.2-1.4,1.8-1v0.7
	c0.6-0.3,0.8-1.6,1.3-0.7c0.6-0.5-1.1-1,0.3-1.2c0.3,0.4,0.8,0.6,1.2,0.8c0.4-0.3-0.2-0.8-0.6-0.8c2-0.3,1.4,2.5,3.2,1.5
	c-0.7-0.5,0.5-1.4-1.1-1.4c0.7-0.4,1.5,1,2.2,0.2l-0.4,1c0.3,0,0.6-0.4,0.7-0.5v0.7c0.9-1.3,1.8,0.5,2.2-1.2
	c-0.3,1.3,0.7-0.1,1.1,0.4c-0.7,1-2.2,0.1-2.2,1.3c0.4,0.3,0.7-0.3,1,0.1c0.2-0.2,0.4-0.2,0.1,0.1c0,0-0.1,0-0.1-0.1
	c-0.2,0.2-0.6,0.5-0.6,0.8c1.2,0.6,1.8-0.8,2.5-1.2l-1.3,0.4c0-1.2,0.6-0.2,0.9-1.2c0.7,0.6,1.1-0.4,1.7,0c-0.1,0-0.1,0.1-0.3,0.1
	c1.4-0.1,1.9,1.8,2.5,1.8c0.6,0.1,1.6-0.6,1.1-1.1c0.4-0.4-1.8,0.5-1.1-1.1c0.9,1.7,1.6-0.7,3.4,0.3c-0.7,0.7,0.5,1-0.1,1.5
	c0.8-0.2,0.8-0.5,1.1-1.1l0.3,0.5c1-1.3,0.1-1.1,1.7-2c-0.5,0.5,0.7,0.7,0.4,1.2c0.5,0,0.9-0.2,1.2-0.6l-0.1,0.1
	c1.6-0.5,1.4,0.6,2.9-0.2l-0.2-0.3c1.9-1.1,4.4-0.8,6.3-1.5l-0.7-0.2c0.3,0,1.3-0.7,1.9-0.3c0.1,0,0.1,0,0.1,0.1l-0.1-0.1
	c-0.1,0.1-0.3,0.2-0.4,0.2c0.1,0.4,0.4,0.9,0.9,0.9l0.1-0.6l0.3,0.4c0.7-0.1-0.3-0.8,0.4-0.9c0.7,1.6,3.2-0.2,4.1,1.1
	c0.3-1.3-1.4,0-1-1.1c0.2,0.2,0.4,0.4,0.9,0.4l-0.3-0.7c2.3,0.1,3.2,0.5,5.2,0l-0.1,0.2c0.8,0.2,1.1-0.1,1.3-0.7
	c0.2,0.3-0.3,0.6,0.1,0.8c0.9-2,2.7,0.9,3.2-0.5c0.2,1.4,2.1,2.5,1.6,3.8l0.5-0.3c0,1-1.6,0.3-1.7,1.3l-1.8-0.7
	c0.1,0.3-0.1,0.9,0.2,1c0.2-0.1,0.4-0.1,0.5-0.2c-0.3,0.2-0.4,0.2-0.5,0.2c-0.4,0.1-0.7,0.2-0.1,0.6c-2.2-0.9-4.1-0.6-6.1-0.1
	c-1.9,0.4-3.9,0.9-5.9,0.6c-0.3,0.1-0.1,0.4,0.1,0.6c-0.8-0.8-0.6,0.6-1,0.8l-1.2-1.2c-0.4,0.5,0,0.8,0,1.1c-1.9,0.5-4-0.5-5.5,0.4
	c-0.6-0.4,0-1.1-0.7-1.2c1.1,1.3-1.9,0.8-1.2,1.8c-0.8-1.4-2.5-0.1-2.4-2.1c-0.8,0-0.6,0.9-0.3,1.1c-1,0-1.7,0.1-2.4,0.8
	c-0.3-0.2-1.3,0-2.4,0.1c-1.1,0.1-2.3,0-2.8-0.7c0.6,1,0,0.5-0.5,1l0.6,0.8h-1.2C2582.5,2004.2,2582.5,2004.2,2582.4,2004.2
	L2582.4,2004.2z"/>
<path d="M1753.4,1973.4l1.2-0.1l-0.6,0.8C1754,1973.9,1753.6,1973.6,1753.4,1973.4L1753.4,1973.4z"/>
<polygon points="1756,1975 1755.9,1974.1 1756.4,1975.2 "/>
<path d="M1759.6,1979.9c-0.2-0.2-0.4-0.5-0.6-0.6C1759.3,1979.5,1759.5,1979.7,1759.6,1979.9z"/>
<path d="M1772.6,2003.1c0,0.1,0.1,0.1,0.1,0.2C1772.6,2003.2,1772.5,2003.1,1772.6,2003.1z"/>
<path d="M1810.6,2035.8L1810.6,2035.8C1810.2,2035.8,1810,2035.6,1810.6,2035.8z"/>
<path d="M1842,2065l1-0.1C1842.7,2065.1,1842.9,2065.7,1842,2065z"/>
<path d="M1843,2064.9l0.1-0.1l0.1,0.1H1843L1843,2064.9z"/>
<path d="M1851.5,2072.9c-0.4-0.3-0.8-0.5-1.2-0.7C1850.8,2071.3,1850.7,2072.2,1851.5,2072.9z"/>
<polygon points="1862.3,2079.5 1862.6,2078.6 1862.6,2079.7 "/>
<path d="M1863.5,2079.4l0.6,0.2C1864,2079.6,1863.8,2079.5,1863.5,2079.4z"/>
<path d="M1868.2,2082.2l-0.3,0.2C1867.8,2082.3,1867.9,2082.2,1868.2,2082.2z"/>
<path d="M1869,2075c0.1-0.1,0.3-0.1,0.7,0C1869.7,2075.2,1869.4,2075.1,1869,2075z"/>
<path d="M1875.8,2089.6l-0.2,0.1l-0.5-1C1875.6,2089.1,1875.8,2089.3,1875.8,2089.6L1875.8,2089.6z"/>
<path d="M1899.8,2103c-0.4-0.4-0.7-0.8-0.8-1L1899.8,2103z"/>
<path d="M1900.1,2102.4c-0.1,0.1-0.1,0.3-0.1,0.4C1899.8,2102.5,1899.9,2102.4,1900.1,2102.4z"/>
<path d="M1917,2112.8c-0.3-0.1-0.6-0.2-0.8-0.3C1916.5,2112.4,1916.6,2112.6,1917,2112.8z"/>
<path d="M1927.7,2120.8C1927.7,2120.8,1927.8,2120.9,1927.7,2120.8L1927.7,2120.8L1927.7,2120.8z"/>
<path d="M1928.1,2118.8l-0.4,2c-0.5-0.5-0.9-0.9-2.1-0.7L1928.1,2118.8z"/>
<path d="M1941.8,2128.9c-0.2,0-0.4-0.1-0.6-0.1C1941.3,2128.8,1941.5,2128.8,1941.8,2128.9z"/>
<path d="M1941.2,2128.8c-0.6,0,1,1,0.5,1.1c-1.3-1.3-0.7,0.6-2.1-0.7C1939.6,2128.1,1940,2128.6,1941.2,2128.8L1941.2,2128.8z"/>
<path d="M1960.2,2139.6c0.1,0.2,0.2,0.4,0.5,0.7C1960.2,2140,1960.1,2139.8,1960.2,2139.6z"/>
<polygon points="1960.2,2137.1 1959.8,2136.9 1960.9,2135.7 "/>
<path d="M1969.2,2141.9L1969.2,2141.9C1969.3,2142.1,1969.3,2142.1,1969.2,2141.9z"/>
<path d="M1978.6,2142.5c-0.6-0.4-1.2-0.6-1.8-0.8c-0.1-0.1-0.2-0.2-0.3-0.3C1977.5,2141.4,1978.1,2141.9,1978.6,2142.5
	L1978.6,2142.5z"/>
<path d="M1979.2,635.4l-0.2-0.3c-0.1-0.8,0.1-1.5,0.1-2.3C1979.1,633.6,1979.1,634.5,1979.2,635.4L1979.2,635.4z"/>
<path d="M1978.6,2142.5c0.5,0.3,1,0.7,1.6,1.4C1979.7,2144.2,1979.3,2143.4,1978.6,2142.5z"/>
<path d="M1979.8,2150.4c-1.8-0.9,0.3-0.3,0.6-0.5C1981.6,2150.8,1980,2150.2,1979.8,2150.4z"/>
<path d="M1979.8,2147.2l1.5,0.6c0.1,0.3-0.5,0.1-0.9,0.1C1979.8,2147.7,1979.5,2147.4,1979.8,2147.2L1979.8,2147.2z"/>
<path d="M1981.5,652.5c-0.1-0.1-0.7,0.4-0.8-0.6C1980.6,651.9,1981.1,650.9,1981.5,652.5z"/>
<path d="M1980.7,629.6l-0.4-1.5l0.4-0.4c0.3-0.7,0.6-1.4,0.8-2.2c0.2-0.8,0.6-1.6,0.8-2.4c0.6-1.6,1.1-3,2-3.4
	c-0.8,1-1.4,2.7-2.1,4.5c-0.4,0.9-0.6,1.8-0.8,2.8C1981.2,627.9,1981,628.8,1980.7,629.6L1980.7,629.6z"/>
<path d="M1982.4,621.2c0.1-0.5,0.2-0.9,0.3-1.4l1.1-1.4C1984.2,618.5,1982.7,620.3,1982.4,621.2L1982.4,621.2z"/>
<path d="M1984.2,2151.2c0.1,0.3,0.1,0.5,0.3,0.9l-0.8-0.1L1984.2,2151.2L1984.2,2151.2z"/>
<path d="M1990,615C1990.9,614.3,1989.1,616.4,1990,615L1990,615z"/>
<path d="M1990,615c-0.1,0.1-0.1,0.1-0.3,0.2c0.7-1.3,1-1.8,1.1-1.9c-0.1,0.1-0.2,0.4,0.1,0.3C1990.4,614.3,1990.2,614.7,1990,615
	L1990,615z"/>
<path d="M1991.3,610.7c-1.1,2,0.1,0.8,1,0C1989.8,614.1,1988.8,614.1,1991.3,610.7z"/>
<path d="M1994.7,607.6l-1.4,2c0.5-0.9,0.6-1.5,0.7-1.1C1994,607.5,1994.3,607.7,1994.7,607.6L1994.7,607.6z"/>
<path d="M1994.7,2151.1c-0.1-0.3-0.4,0.6-0.7,0.2C1991.7,2150.6,1995.5,2150.6,1994.7,2151.1z"/>
<polygon points="1995.2,604.9 1992.6,609.1 1994.7,605.5 "/>
<path d="M1994.7,607.6l0.7-1C1995.1,607.3,1994.9,607.5,1994.7,607.6z"/>
<path d="M1994.5,608.7c1.2-0.7,1.7-0.9,0.3,0.9c0.3-0.7-1,0.7-1.5,1C1993.7,610,1994.1,609.4,1994.5,608.7z"/>
<path d="M1995.2,2151.4c0.4,0.2,0.6,0.3,0.8,0.4c0,0,0,0.1,0.1,0.1C1995.8,2151.8,1995.5,2151.6,1995.2,2151.4L1995.2,2151.4z"/>
<path d="M1996,2151.8C1996.1,2151.8,1996.6,2152,1996,2151.8L1996,2151.8z"/>
<path d="M1996.7,2152.4c-0.3-0.3-0.5-0.4-0.6-0.5C1996.3,2152.1,1996.5,2152.3,1996.7,2152.4z"/>
<path d="M1996.9,2156.2c-0.2-0.1-0.4-0.1-0.5,0.1l-1.2-0.9C1995.3,2155.2,1996.1,2155.8,1996.9,2156.2L1996.9,2156.2z"/>
<path d="M1997.2,2152.4c-0.1-0.1-0.3-0.2-0.4-0.3C1997.2,2152.2,1997.3,2152.3,1997.2,2152.4z"/>
<path d="M1996.9,2156.2c0.4,0.1,0.9,0.3,1.1,0.4C1997.8,2156.6,1997.4,2156.4,1996.9,2156.2z"/>
<polygon points="1999.3,2158.1 1999.6,2158.4 1998.4,2157.6 "/>
<path d="M1999.8,601.3c1.3-1.8-0.2-1,0.3-2C2002.8,597.8,2000.7,600.1,1999.8,601.3z"/>
<path d="M2000.5,2153.9l1.1,0.4c-0.2,0-0.1,0.2-0.1,0.4C2001.2,2154.3,2001,2154.1,2000.5,2153.9z"/>
<polygon points="2000.8,2158.6 2001.6,2158.3 2001.5,2159.1 "/>
<path d="M2001.7,596.4c0,0-0.1-0.1-0.2,0C2002,596,2001.9,596.2,2001.7,596.4z"/>
<path d="M2003.1,2157.9c0,0,0.1,0.1,0.2,0.1c-0.9-0.3-1.7-0.5-1.5-1.1C2002.7,2157.1,2003.7,2157.3,2003.1,2157.9L2003.1,2157.9z"/>
<path d="M2004.2,2158.4c-0.2-0.1-0.5-0.3-0.8-0.4C2004,2158.2,2004.5,2158.2,2004.2,2158.4z"/>
<path d="M2005.3,597.7c-0.6,0.6-1.2,1.2-1.7,1.8C2003.3,599.4,2003.5,599,2005.3,597.7z"/>
<path d="M2002.5,600.8l1.1-1.3c0.3,0.1,1.2-0.1,1.3,0.2C2004.6,599.4,2003.3,600.3,2002.5,600.8L2002.5,600.8z"/>
<path d="M2001.7,596.4c0.2,0.1-0.6,0.9,0.4,0.4c1.1-0.7,1.1-1.1,1.4-1.4c1.3-0.3,2-0.3,2.7-0.2c-0.7,0.2-2.6,0.9-4,1.7
	c-0.1,0.1-0.2,0.2-0.2,0.3C1999.9,598.5,2001.2,597,2001.7,596.4z"/>
<path d="M2006.4,595.2c-0.1,0-0.2,0-0.3,0C2006.4,595.1,2006.5,595.1,2006.4,595.2z"/>
<polygon points="2006.1,2157 2005.6,2156.5 2006.4,2156.5 "/>
<path d="M2004.9,597l2.2-1.5l-2,2C2005.6,597,2005.1,597.1,2004.9,597L2004.9,597z"/>
<polygon points="2008,595 2007.2,595.5 2008.2,594.6 "/>
<path d="M2008.8,595.4c-0.1,0.1-0.1,0.1-0.2,0.1C2008.7,595.4,2008.8,595.4,2008.8,595.4z"/>
<polygon points="2008.8,2158.5 2008.9,2158.5 2008.9,2158.6 "/>
<path d="M2008.9,2158.6c0.6,1.5,0.6,3.6-0.8,3.5c-1-1.1-2.6-1.3-2.9-0.8c-0.3-0.3,0.3-0.3,0.3-0.5l-1.6-0.3c0.1-1.1,3-0.2,2.6-1.2
	c0.7,0.6,0.2,1,1.9,1.4c1.3,0-0.9-1.5-1.2-2C2008.6,2159.1,2008.7,2158.8,2008.9,2158.6z"/>
<polygon points="2007.7,2157.9 2009.2,2157.6 2008.7,2158.1 "/>
<path d="M2010.3,594.5c-0.2,0.1-0.4,0.3-0.7,0.4h-0.1C2009.9,594.7,2010.1,594.6,2010.3,594.5L2010.3,594.5z"/>
<path d="M2010.8,2162.9l-0.1,0.3c-0.2,0-0.4-0.1-0.6-0.1C2009.4,2162.6,2010.1,2162.6,2010.8,2162.9L2010.8,2162.9z"/>
<path d="M2008.8,595.4c0.3-0.2,0.6-0.3,0.8-0.5h1.2C2009.6,595.5,2009.1,595.4,2008.8,595.4z"/>
<path d="M2011.7,2159.8l-0.5-0.1h0.2c-0.8-0.4-1.6-0.7-2.5-1.1c0.1-0.2,0.4-0.3,1.3-0.2C2010.9,2159.1,2011.2,2159.5,2011.7,2159.8
	L2011.7,2159.8z"/>
<path d="M2013.4,593.8c-0.6,0.6-1.2,1.2-1.7,1.9c0.3-0.4,0.6-0.8,0.9-1.2L2013.4,593.8L2013.4,593.8z"/>
<path d="M2014.2,2160.4c-0.3-0.2-0.6-0.5-0.8-0.7C2013.6,2159.6,2014,2160.1,2014.2,2160.4z"/>
<path d="M2014.2,2160.4c0.3,0.3,0.7,0.6,1.1,0.8c-0.4-0.1-0.8-0.3-1.4-0.4c1.6,1.1-1.7,0.3,0.8,1.1c-1-0.1-0.7,0.6-2.2,0
	c-0.5-1,0.8-0.7,1.5-1.1c-1.2-0.4-1.8-0.6-2.3-1L2014.2,2160.4C2014.2,2160.5,2014.2,2160.5,2014.2,2160.4L2014.2,2160.4z"/>
<path d="M2015,591.9c-0.1,0-0.1,0.1-0.2,0.2C2014.7,591.9,2014.8,591.9,2015,591.9z"/>
<path d="M2015.3,592L2015.3,592C2015.6,591.9,2015.7,591.9,2015.3,592z"/>
<path d="M2015,591.9c0.5-0.3,1-0.7,1.6-1c-0.4,0.3-0.7,0.7-1.2,1C2015.3,591.8,2015.1,591.8,2015,591.9L2015,591.9z"/>
<path d="M2016.6,2160.1c-0.5,0.1-0.9,0.1-1.2,0.1C2015.8,2160.1,2016.2,2160.1,2016.6,2160.1z"/>
<path d="M2017.4,2162.2c-0.7-0.3-1.4-0.6-2.1-1c0.7,0.2,1.3,0.4,1.9,0.4C2018.1,2161.9,2017.6,2162.1,2017.4,2162.2L2017.4,2162.2z"
	/>
<path d="M2014.5,590c0.2-0.3-0.6-0.6,1.8-1.5l-0.3-0.3l2.3-0.4C2017,588.6,2015.7,589.3,2014.5,590L2014.5,590z"/>
<path d="M2017.4,2162.2c0.5,0.2,0.9,0.3,1.3,0.4c-0.4,0.1-0.8,0.1-1.3-0.2C2017.3,2162.4,2017.4,2162.3,2017.4,2162.2z"/>
<path d="M2019,2160.2c-0.6,0.1,0.4,0.8-0.2,1c-0.8-0.7-1.5-1-2.2-1.1C2017.3,2160.1,2018.1,2160,2019,2160.2L2019,2160.2z"/>
<path d="M2016.8,2164l2.2,0.5c-0.2,0.2-0.1,0.7-1.2,0.1l-0.1,0.4L2016.8,2164L2016.8,2164z"/>
<path d="M2019,589.6c-0.9,0.4-1.7,0.8-2.4,1.2c0.5-0.5,1.1-0.9,2.2-1.2C2019.1,589.4,2019.1,589.5,2019,589.6L2019,589.6z"/>
<path d="M2018.8,592.4c0.9-0.7-1.5,0-0.7-0.8c1.9-0.5,3.2-1.1,4.5-1.7C2021.4,590.7,2020.2,591.6,2018.8,592.4L2018.8,592.4z"/>
<path d="M2019.6,2162.5c0,0.1,0.1,0.2,0.1,0.2c-0.3,0-0.6-0.1-1-0.1C2019,2162.6,2019.3,2162.5,2019.6,2162.5z"/>
<path d="M2019.7,2162.5L2019.7,2162.5C2019.6,2162.4,2019.6,2162.3,2019.7,2162.5z"/>
<path d="M2019.7,2162.8L2019.7,2162.8C2019.8,2162.9,2019.8,2162.9,2019.7,2162.8z"/>
<path d="M2019,589.6c1.3-0.7,2.8-1.1,4.3-1.6c-1.3,0.6-2.5,1-3.4,1.8C2018.5,590.5,2018.9,589.9,2019,589.6z"/>
<polygon points="2022.6,2161.9 2021.8,2162.2 2021.2,2162.3 "/>
<path d="M2024.4,588.6c-0.6,0.5-1.2,0.9-1.9,1.3C2023.2,589.4,2023.8,589,2024.4,588.6z"/>
<path d="M2023.2,2164c-0.2-0.1-0.3-0.1-0.5-0.1l0,0l-0.3-0.8C2023.1,2163.4,2023.1,2163.8,2023.2,2164z"/>
<path d="M2023.2,2164c0,0,0.1,0,0.1,0.1C2023.2,2164.1,2023.2,2164.1,2023.2,2164z"/>
<polygon points="2023.6,2165 2022.9,2165 2023.1,2164.8 "/>
<path d="M2023.6,2165.7v0.1C2023.6,2165.8,2023.5,2165.7,2023.6,2165.7z"/>
<path d="M2024.8,2165.6l-1.2-0.6h1.5C2024.7,2165.1,2024.9,2165.4,2024.8,2165.6z"/>
<path d="M2025.2,2168.2c0,0,0,0.1,0,0.2C2024.9,2168.2,2025,2168.2,2025.2,2168.2z"/>
<path d="M2025.2,2168.2c0-0.2,0.6-0.2,0.1-0.5c-0.6-0.2-0.8-0.1-1,0c-0.5-0.7-0.6-1.2-0.7-1.8c0.2,0.4,1,1.2,1.8,1.6l0.2-0.1
	C2026.6,2168.1,2025.6,2168.1,2025.2,2168.2L2025.2,2168.2z"/>
<path d="M2025.2,2164.8c0.4,0,0.9,0,1.3,0C2026.5,2165.1,2026.2,2165.2,2025.2,2164.8z"/>
<path d="M2025.9,587.3c0.7-0.1,1.4-0.2,2-0.3C2027.8,587.3,2026.6,587.4,2025.9,587.3z"/>
<path d="M2027.4,2164.8h-0.9c0-0.3-0.3-0.8-0.2-1C2026.3,2164.2,2027,2164.5,2027.4,2164.8L2027.4,2164.8z"/>
<path d="M2028.1,2166.4c-1.2,0.2-0.5,0.7-1.2,1C2025.7,2166.4,2027.3,2166.5,2028.1,2166.4z"/>
<path d="M2025.9,586.9c2.3-0.8,3.6-1.3,4.7-1.5c-1.6,0.6-3.2,1.3-4.8,1.9h0.1c-0.8,0.1-1.7,0.4-2.6,0.7
	C2024.1,587.7,2025,587.3,2025.9,586.9c-3.7,0.8,2.4-1.9-2.4,0c1.7-1,0.6-1.1,3.7-2.2C2029,584.9,2026.5,586.1,2025.9,586.9
	L2025.9,586.9z"/>
<path d="M2029,582.6l-0.2-0.3c0.3-0.2,0.8-0.2,1.1-0.4C2031.6,581.6,2030.6,582.1,2029,582.6L2029,582.6z"/>
<path d="M2032.3,2166.8h-0.6C2032.1,2166.6,2032.2,2166.6,2032.3,2166.8z"/>
<polygon points="2030.8,2167.8 2033.4,2167.6 2031.2,2167.9 "/>
<path d="M2032.3,2166.8h1.3c-0.6,0.1-0.9,0.3-0.7,0.1C2032.3,2167.3,2032.4,2167,2032.3,2166.8L2032.3,2166.8z"/>
<path d="M2034.1,2166.2l-1.2,0.1c-0.5-0.6-0.7-0.9,0.5-0.8C2033,2165.6,2033.9,2165.9,2034.1,2166.2L2034.1,2166.2z"/>
<path d="M2034.3,2167.9c1.2-0.1,0.4-0.4-0.1-0.8C2036.4,2167.5,2036.5,2168.3,2034.3,2167.9z"/>
<path d="M2034.4,585.2c-1.7,0-2.6,0-3.8,0.3l1-0.4l-0.3,0.2c1.7-0.5,3.5-0.9,5.2-1.3C2036.4,584.1,2036.1,584.5,2034.4,585.2
	L2034.4,585.2z"/>
<path d="M2036.8,583.9l-0.3,0.1v-0.1C2036.6,583.8,2036.7,583.8,2036.8,583.9z"/>
<path d="M2036,2166.8c0.4,0.1,0.6,0.2,0.8,0.2c0.1,0.1,0.1,0.1,0.2,0.1c-0.8-0.1-1.1-0.1-1.1-0.1S2036.1,2167,2036,2166.8
	L2036,2166.8z"/>
<path d="M2036.8,2167C2036.3,2166.5,2037.6,2167.1,2036.8,2167L2036.8,2167z"/>
<polygon points="2037.3,584.1 2039.1,583.3 2036.9,584.9 "/>
<path d="M2040.7,2171.3l-0.7,0.2l-0.8-0.5C2039.2,2170.7,2040.2,2171.3,2040.7,2171.3L2040.7,2171.3z"/>
<path d="M2036.5,583.8c-2.4-0.5-4.7-2-2.2-3.1c1.4,0,2.8-0.3,3.9-0.7c1.1-0.3,1.8-0.8,1.9-1.1c0.9,0-0.2,0.5-0.1,0.6l3-1
	c1,0.9-4.9,2.5-3.3,2.9c-1.8,0-1.3-0.6-4.7,0.5c-2.1,1.1,2.9,0.3,3.9,0.4C2036.5,583.3,2036.5,583.5,2036.5,583.8L2036.5,583.8z"/>
<polygon points="2042.8,582.8 2044.1,582.8 2042.7,583.5 "/>
<path d="M2039.8,2170c1.2,0.6,3.6,0.3,5.4,0.5l-0.8,0.8l-0.2-0.3C2042.8,2170.3,2040.4,2171.3,2039.8,2170z"/>
<path d="M2044.6,580.4c0.5,0,0.9-0.1,1.4-0.2C2045.1,580.4,2044.4,580.7,2044.6,580.4z"/>
<polygon points="2046.8,2171.5 2048.1,2171 2047.9,2171.3 "/>
<path d="M2047,579.9c-0.1,0-0.1,0-0.2,0c1.7-0.4,3.3-0.8,3.5-0.2C2048.4,580.3,2046.6,580.9,2047,579.9L2047,579.9z"/>
<polygon points="2049.3,578.6 2048.6,577.9 2050.3,577.9 "/>
<path d="M2055.6,581.4c-0.8,0.1-1.5,0.3-2.3,0.4c0.4-0.1,0-0.3-0.1-0.4C2053.9,581.4,2054.4,581.5,2055.6,581.4L2055.6,581.4z"/>
<path d="M2053.4,577.2h-0.9c1-0.1,2-0.1,3-0.1L2053.4,577.2z"/>
<path d="M2057.2,2169.8c-0.1,0.1,0.1,0.8-0.4,0.7C2056.8,2170.6,2056.4,2169.9,2057.2,2169.8z"/>
<path d="M2059.5,577.3c-0.8,0.2-1.9,0.3-2.4,0.3C2057.6,577.5,2058.5,577.4,2059.5,577.3z"/>
<path d="M2059.3,578.2c0.2-0.1,0.4-0.2,0.5-0.4C2059.8,578,2059.6,578.2,2059.3,578.2z"/>
<path d="M2059.5,577.3c0.5-0.1,0.8-0.2,0.8-0.3h3C2063.3,577.2,2061.3,577.2,2059.5,577.3L2059.5,577.3z"/>
<path d="M2062.8,580.5c0.3,0,0.6,0,1.1,0C2062.8,580.7,2062.6,580.6,2062.8,580.5z"/>
<path d="M2065.1,580.3c-0.6,0-1.1,0-1.6-0.1C2064.4,580.2,2064.8,580.3,2065.1,580.3z"/>
<path d="M2065.4,580.4C2065.2,580.5,2064.2,580.5,2065.4,580.4L2065.4,580.4z"/>
<path d="M2065.1,580.3c0.5,0,0.9,0,1.4,0c-0.5,0-0.9,0.1-1.1,0.1C2065.4,580.4,2065.3,580.3,2065.1,580.3L2065.1,580.3z"/>
<path d="M2068.3,580.3c0.5,0.2,0.1-0.7,1-0.6C2074.1,579.1,2067.4,581.1,2068.3,580.3z"/>
<path d="M2086.7,574.8c-0.5-0.2-0.6-0.4-1.4-0.6l1.5-0.4L2086.7,574.8z"/>
<path d="M2095.3,573.3c4.1-0.1-0.3,0.4-0.6,0.7C2091.8,573.8,2095,573.5,2095.3,573.3z"/>
<path d="M2096.6,575.7c1.2-0.1,2.1,0,1.8,0.3l-3.2,0.2C2094.6,576,2095.8,575.9,2096.6,575.7L2096.6,575.7z"/>
<path d="M2105.1,579.5c-1.1,0-2.5-0.1-4.1-0.4C2101.5,578.6,2103.1,579.2,2105.1,579.5z"/>
<path d="M2109,579.3c0.3,0,0.6,0.1,0.9,0.2c-1.6,0.5-3.3,0.3-4.7,0C2106.6,579.6,2107.8,579.5,2109,579.3L2109,579.3z"/>
<path d="M2122.1,575.3h-0.1C2121.8,575.2,2121.8,575.2,2122.1,575.3z"/>
<path d="M2140.2,572.8c-0.3-0.1-0.8-0.3-1.6-0.4C2139.9,572.4,2140.2,572.6,2140.2,572.8z"/>
<polygon points="2142.9,576.5 2142.8,575 2143.6,575 "/>
<path d="M2183,572.5c0.4-0.1,0.8-0.2,1.2-0.2C2184,572.4,2183.6,572.4,2183,572.5z"/>
<path d="M2182.2,571.6c3.5,0.4,0.6-0.9,4.4-0.5c1.1,1-0.1,0.8-2.5,1.2C2185.1,572,2181.3,572,2182.2,571.6z"/>
<path d="M2215.6,572.1c0,0-0.1,0-0.2,0C2215.5,572,2215.5,572,2215.6,572.1L2215.6,572.1L2215.6,572.1z"/>
<path d="M2217.1,574l-1.5-1.9c1.4,0.2,2.5,0.3,4.4-0.6L2217.1,574L2217.1,574z"/>
<path d="M2282.4,572.7c-0.1-0.1-0.1-0.3-0.4-0.4C2282.7,572.4,2282.7,572.6,2282.4,572.7z"/>
<path d="M2284.4,572.3l-2.3-0.4C2283.1,572.1,2283.9,572.2,2284.4,572.3z"/>
<path d="M2339.2,569.9c-1.1,0-1.7,0-2.1-0.3l0.2-0.2L2339.2,569.9L2339.2,569.9z"/>
<path d="M2358,571.2l0.2-0.3C2358.7,570.9,2358.5,571.1,2358,571.2z"/>
<path d="M2365.1,577.5c0,0.1-0.3,0.3-1.1,0.4C2363.8,577.8,2364.3,577.6,2365.1,577.5z"/>
<path d="M2369,570.7l-1.3,0.2C2368,570.9,2368.4,570.8,2369,570.7z"/>
<polygon points="2371.3,570.8 2370.2,569.9 2370.8,570 "/>
<path d="M2396,568.8c1,0,2-0.2,2.9-0.1C2399.2,569.7,2398.1,568.9,2396,568.8z"/>
<path d="M2419.3,570l-0.1,0.1h-0.1L2419.3,570L2419.3,570z"/>
<path d="M2420.9,569.4l-1.5,0.7C2419.5,569.7,2418.5,569.4,2420.9,569.4z"/>
<path d="M2443.4,1983c0.1-0.2,0,0.6-0.5,0.6C2443.1,1983.5,2443.2,1982.9,2443.4,1983z"/>
<polygon points="2448.1,1983.2 2448.7,1983.1 2447.9,1983.4 "/>
<path d="M2451.9,1984.7c-0.5-0.5-1.8-0.4-2.6-0.6l0.6-0.7v0.3C2450.4,1984.3,2451.9,1983.5,2451.9,1984.7L2451.9,1984.7z"/>
<path d="M2452.2,1983.2l0.3,0.4c-0.1,0.3-0.5-0.3-0.8-0.2L2452.2,1983.2z"/>
<path d="M2452.8,1987.5C2452.9,1987.9,2452.3,1987.3,2452.8,1987.5L2452.8,1987.5z"/>
<path d="M2453.1,1987.7c-0.2-0.1-0.3-0.2-0.4-0.2c0,0,0-0.1-0.1-0.1C2453.7,1987.5,2453.2,1987.2,2453.1,1987.7L2453.1,1987.7z"/>
<path d="M2454.2,1987.2c-1.1-0.2-1-1,0.1-0.8C2453.6,1986.7,2454,1986.9,2454.2,1987.2z"/>
<path d="M2454.7,1987.9c0.2,0.5,0.2,0.8-0.4,0.8c0.2-0.1-0.2-0.3-0.3-0.6L2454.7,1987.9z"/>
<path d="M2455.2,1987.4l-0.7,0.1c0.3-0.1,0.6-0.4,0.4-0.1C2455.3,1986.9,2455.1,1987.2,2455.2,1987.4L2455.2,1987.4z"/>
<path d="M2455.2,1987.4l0.3-0.1C2455.2,1987.6,2455.2,1987.5,2455.2,1987.4z"/>
<polygon points="2456,1986.2 2456.2,1986.3 2454.7,1986.7 "/>
<path d="M2457.5,1988.8l0.5-0.1c-0.1,0.3,0,0.7-0.1,0.9C2458,1989.3,2457.6,1989,2457.5,1988.8L2457.5,1988.8z"/>
<path d="M2457.4,1987.3c0.7-0.3,0.4-0.8,0.8-1.1C2458.7,1987,2457.8,1987.1,2457.4,1987.3z"/>
<path d="M2458.7,1988.5l-0.7,0.2C2458,1988.4,2458.2,1988.3,2458.7,1988.5z"/>
<path d="M2459.2,1985.2c0,0,0-0.1,0-0.2C2459.4,1985.2,2459.4,1985.2,2459.2,1985.2z"/>
<path d="M2459,1987.7l0.6,0.4l-0.8,0.2C2459,1988.1,2459,1987.8,2459,1987.7L2459,1987.7z"/>
<path d="M2459.7,1988.9L2459.7,1988.9C2459.7,1988.8,2459.7,1988.8,2459.7,1988.9z"/>
<path d="M2459.2,1985.2c-0.1,0.2-0.3,0.2-0.1,0.5c0.3,0.2,0.4-0.1,0.6-0.1c0.1,0.6,0.1,1,0.1,1.5c-0.1-0.3-0.4-0.9-0.7-1.2l-0.1,0.1
	C2458.5,1985.5,2459,1985.4,2459.2,1985.2L2459.2,1985.2z"/>
<path d="M2460,1989.7c-0.3-0.3-0.3-0.6-0.3-0.8c0.1,0,0.1,0.1,0.2,0.1l0,0L2460,1989.7L2460,1989.7z"/>
<polygon points="2459.8,1988.2 2459.6,1988 2460,1987.9 "/>
<polygon points="2460.2,1990.4 2460.6,1990.2 2459.7,1990.8 "/>
<path d="M2461.4,1989.5L2461.4,1989.5C2461.4,1989.4,2461.4,1989.5,2461.4,1989.5z"/>
<path d="M2461.4,1989.7L2461.4,1989.7C2461.4,1989.8,2461.4,1989.9,2461.4,1989.7z"/>
<path d="M2461.4,1989.5c0.1-0.1,0.3-0.1,0.5-0.1c-0.1,0.1-0.3,0.2-0.5,0.3C2461.4,1989.7,2461.4,1989.6,2461.4,1989.5z"/>
<path d="M2462.6,1989.6c-0.2-0.1-0.5-0.1-0.7-0.1C2462.1,1989.4,2462.3,1989.3,2462.6,1989.6
	C2462.7,1989.4,2462.7,1989.5,2462.6,1989.6z"/>
<path d="M2462.8,1991.4c-0.4,0.2-0.9,0.5-1.3,0.4c0.4-0.2-0.1-0.7,0.2-1C2462.1,1991.3,2462.4,1991.5,2462.8,1991.4z"/>
<path d="M2463.2,1987.8h-1.1c0.1-0.2,0.2-0.7,0.7-0.3l0.1-0.3L2463.2,1987.8L2463.2,1987.8z"/>
<path d="M2462.8,1991.4c0.3-0.1,0.5-0.3,0.7-0.3C2463.3,1991.3,2463,1991.4,2462.8,1991.4z"/>
<path d="M2462.6,1989.6c0.4,0.1,0.7,0.3,1,0.6c-0.4-0.1-0.6-0.1-1,0C2462.2,1990.1,2462.5,1989.8,2462.6,1989.6L2462.6,1989.6z"/>
<path d="M2464.2,1990.6c0.1,0.2,0.3,0.3,0.4,0.5C2464.4,1991.3,2464.3,1990.9,2464.2,1990.6z"/>
<path d="M2464.3,1990.3c0.6,0.1,0.9,0.2,1.2,0.3c-0.4,0-0.9,0-1.3,0v0.1c-0.2-0.2-0.4-0.3-0.6-0.5
	C2463.8,1990.2,2464.1,1990.2,2464.3,1990.3c-0.8-0.7,1-0.7-0.3-0.9c0.5-0.1,0.5-0.7,1.2-0.5
	C2465.4,1989.7,2464.7,1989.7,2464.3,1990.3L2464.3,1990.3z"/>
<path d="M2466.3,1987.6l0.1-0.3c0.1-0.1,0.2,0.1,0.3,0C2467,1987.5,2466.7,1987.7,2466.3,1987.6L2466.3,1987.6z"/>
<path d="M2465.7,1990.7l1.3,0.5c-0.1,0.2-0.2,0.4-0.8,0.5c-0.3-0.6-0.4-0.9-0.7-1.1h0.3L2465.7,1990.7L2465.7,1990.7z"/>
<path d="M2466.9,1991.2L2466.9,1991.2C2467,1991.1,2467,1991.2,2466.9,1991.2L2466.9,1991.2L2466.9,1991.2z"/>
<polygon points="2467,1991.5 2467.6,1991.4 2466.7,1992.2 "/>
<polygon points="2468.4,1991.8 2468.6,1992.2 2468.2,1992.4 "/>
<path d="M2469.5,1990c0.1,0.1,0.3,0.1,0.4,0.1C2469.6,1990.2,2469.3,1990.3,2469.5,1990z"/>
<path d="M2467.9,1990.4c-0.7,0.2-0.8,0.4-0.9,0.6c-0.2-1.2,0-3.2,0.7-3.5c0.4,0.8,1.3,0.5,1.5-0.1c0.1,0.2-0.2,0.4-0.2,0.6l0.8-0.2
	c-0.1,1.1-1.6,1-1.5,1.8c-0.3-0.4,0-0.9-0.9-0.8C2466.7,1989.3,2467.8,1990,2467.9,1990.4L2467.9,1990.4z"/>
<path d="M2470.1,1990.2C2470.1,1990.2,2470,1990.1,2470.1,1990.2c0.4,0,0.8-0.1,0.7,0.5C2470.2,1990.8,2469.7,1990.9,2470.1,1990.2
	L2470.1,1990.2z"/>
<path d="M2471.3,1993.2h-0.6c0.1,0,0.1-0.2,0.1-0.4C2471,1992.9,2471,1993.1,2471.3,1993.2z"/>
<polygon points="2471.4,1988.9 2470.9,1989.4 2471,1988.6 "/>
<polygon points="2472.6,1989.1 2472.2,1988.9 2472,1988.7 "/>
<path d="M2473.1,1993.5c0.1,0,0.1,0.1,0.2,0.1C2473,1993.7,2473,1993.6,2473.1,1993.5z"/>
<path d="M2473.3,1990c-0.2,0-0.5,0-0.6-0.1C2472.9,1989.8,2473.1,1989.9,2473.3,1990z"/>
<path d="M2473.7,1993.6c-0.1-0.1-0.2-0.2-0.3-0.3C2473.5,1993.5,2473.6,1993.6,2473.7,1993.6z"/>
<path d="M2473.7,1993.7C2473.6,1993.8,2473.4,1993.7,2473.7,1993.7L2473.7,1993.7z"/>
<path d="M2473.7,1993.7L2473.7,1993.7c0.1,0,0.3,0.1,0.4,0.1C2473.9,1993.8,2473.8,1993.8,2473.7,1993.7z"/>
<path d="M2473.3,1990c0.1,0,0.2-0.1,0.3-0.2l0.6,0.4C2474.2,1990.4,2473.8,1990.1,2473.3,1990L2473.3,1990z"/>
<path d="M2474.4,1994c0.1,0.3,0.2-0.7,0.4-0.5C2476,1993.5,2473.9,1994.7,2474.4,1994z"/>
<path d="M2480,1990.3c-0.1-0.3,0-0.4-0.2-0.6l0.4-0.3L2480,1990.3z"/>
<path d="M2482,1991.9c0.3,0,0.5,0.2,0.3,0.4h-0.8C2481.5,1992,2481.8,1992,2482,1991.9z"/>
<path d="M2483.1,1996.1c-0.3-0.1-0.5-0.3-0.9-0.6C2482.5,1995,2482.7,1995.6,2483.1,1996.1z"/>
<path d="M2482.1,1990.1c-0.6-0.4,0.2-0.4,0.3-0.6C2483.3,1989.6,2482.2,1989.8,2482.1,1990.1z"/>
<path d="M2484.1,1996.2c0.1,0.1,0.1,0.1,0.1,0.2c-0.5,0.3-0.8,0.1-1.1-0.3C2483.4,1996.2,2483.7,1996.2,2484.1,1996.2L2484.1,1996.2
	z"/>
<path d="M2488,1993.1L2488,1993.1C2488,1993,2488,1992.9,2488,1993.1z"/>
<path d="M2492.8,1991.6c-0.1-0.2-0.1-0.3-0.3-0.5C2492.8,1991.2,2492.9,1991.4,2492.8,1991.6z"/>
<polygon points="2493.1,1993.9 2492.6,1995.4 2492.9,1993.9 "/>
<path d="M2502.8,1993.6c0.1-0.1,0.2-0.1,0.3-0.2C2503,1993.4,2502.9,1993.5,2502.8,1993.6z"/>
<path d="M2503.1,1993.4c0.3-0.3-0.6-0.4-0.3-0.8c0.7,0.6,0.3-0.8,1.1-0.3C2503.9,1993.4,2503.7,1993.1,2503.1,1993.4z"/>
<path d="M2506.5,572c-0.1,0-0.2,0-0.3,0C2507.2,571.7,2507.7,571.7,2506.5,572z"/>
<path d="M2510.4,1994.6L2510.4,1994.6L2510.4,1994.6L2510.4,1994.6z"/>
<path d="M2510.4,1996.6l-0.1-1.9c0.3,0.2,0.6,0.4,1.1-0.4L2510.4,1996.6z"/>
<path d="M2516.5,1996.7c0.1,0,0.3-0.1,0.4-0.1C2516.8,1996.8,2516.7,1996.7,2516.5,1996.7z"/>
<path d="M2526,1997.6c0-0.1,0-0.3-0.1-0.4C2526.1,1997.3,2526.1,1997.5,2526,1997.6z"/>
<path d="M2526.6,1997.4l-0.6-0.5C2526.2,1997,2526.4,1997.2,2526.6,1997.4z"/>
<path d="M2539.6,1996.2c-0.3-0.1-0.4-0.1-0.5-0.3l0.1-0.2L2539.6,1996.2L2539.6,1996.2z"/>
<path d="M2543.9,1997.9l0.1-0.3C2544.1,1997.6,2544.1,1997.8,2543.9,1997.9z"/>
<path d="M2545.3,2004.3c0,0.2-0.1,0.3-0.3,0.4C2545,2004.5,2545.1,2004.4,2545.3,2004.3z"/>
<polygon points="2547.1,1997.7 2546.9,1996.8 2547,1996.8 "/>
<path d="M2553.1,1996.1c0.2,0,0.4-0.1,0.6-0.1C2553.7,1996.9,2553.5,1996.2,2553.1,1996.1z"/>
<path d="M2558.4,1997.4L2558.4,1997.4L2558.4,1997.4L2558.4,1997.4z"/>
<path d="M2558.8,1996.7l-0.4,0.7C2558.5,1997.1,2558.3,1996.7,2558.8,1996.7z"/>
<path d="M2579.1,1999.2L2579.1,1999.2C2579.3,1999,2579.4,1998.9,2579.1,1999.2z"/>
<path d="M2602.7,1995.2l-0.1-0.1C2602.6,1995.1,2602.7,1995.1,2602.7,1995.2z"/>
<path d="M2604.1,555.3c-0.1,0-0.3,0-0.4,0.1C2603.9,555.3,2604.1,555.2,2604.1,555.3z"/>
<path d="M2616.4,1999.7c-0.3,0.2-0.4,0.2-0.5,0.2C2616.1,1999.8,2616.3,1999.7,2616.4,1999.7z"/>
<polygon points="2618.9,1999.9 2619.4,2000.3 2618.8,2000.1 "/>
<path d="M2620.2,1998.8l-0.2,0.9l-0.3-0.9C2619.8,1999,2620.1,1998.9,2620.2,1998.8L2620.2,1998.8z"/>
<path d="M2651.1,533.2c0.6-0.6,1.1-1.2,1.4-1.6C2651.9,532.5,2651.4,532.9,2651.1,533.2z"/>
<path d="M2659.6,524.2c0.5-0.3,0.9-0.7,1.4-1c-0.6,0.6-1.2,1.3-1.8,1.8L2659.6,524.2L2659.6,524.2z"/>
<path d="M2662.5,518.7l-0.1,1.8l-1.2-0.1C2661.6,520.2,2662.2,519.2,2662.5,518.7L2662.5,518.7z"/>
</svg>
