<?xml version="1.0" encoding="utf-8"?>
<!-- Generator: Adobe Illustrator 27.3.1, SVG Export Plug-In . SVG Version: 6.00 Build 0)  -->
<svg version="1.1" id="Layer_1" xmlns="http://www.w3.org/2000/svg" xmlns:xlink="http://www.w3.org/1999/xlink" x="0px" y="0px"
	 viewBox="0 0 4000 4000" style="enable-background:new 0 0 4000 4000;" xml:space="preserve">
<style type="text/css">
	.st0{fill:#07844E;}
</style>
<path class="st0" d="M3290,2879.8c5.4-47.8-178.8-149.8-176.9-197.8c2.1-52.9-18.5-96.5-68.3-122.1c-5.2-2.7-9.3-5.8-12.1-9.3
	c-1.1-0.3-2.1-0.6-3.1-1.1c-0.4,0-0.2,0.4-0.1,0.6c-0.8-1.1-1.1,0.3-1.6,0.3l-1.2-1.6c-0.7,0.3-0.3,0.8-0.4,1
	c-2.9-0.3-5.3-2.1-7.7-1.9c-0.6-0.6,0.4-1-0.5-1.4c0.9,1.6-2.6,0.1-2.3,1c-0.7-1.5-3.3-1.1-2.4-2.9c-1.1-0.4-1.1,0.6-0.9,0.9
	c-1.3-0.4-2.3-0.6-3.6-0.3c-0.3-0.3-1.8-0.5-3.4-0.9c-1.5-0.4-3.1-1-3.5-1.9c0.5,1.2-0.2,0.5-1.1,0.7l0.5,1l-1.7-0.6
	c-0.4,0-0.5-0.1-0.4-0.1c-0.3-0.1,0.2-0.5-0.5-0.9c-1.1-0.4-1.3,0.1-2.1,0.3l0.1,0.2l-0.8-0.1c-0.6-0.2,2.3-0.3,0.5-1.2
	c-0.1,0.2-1.5,1-1.9,0.3c1,0.3,1-0.3,0.7-0.6l-1.4-0.4l0.2,1.2c-3.9-1.1-7.7-3.1-11.9-4.2c0.3-0.9-2.9-0.9-2.1-2.2l0.1,0.2
	c1.1,0.2,0-1.1-0.8-1.2c0.7,0.7-2,0.9,0.1,1.7l-1.8,0.2c-0.9,1.1-1.9,0.8-3.1,0.1c-1.2-0.7-2.5-1.6-3.8-1.6c0.2-0.1,0.3-0.2,0.3-0.2
	c-2.4,0.1-4.6-2.3-5.3-2.1l0-0.8c-2.2,0.5-2.5,0.5-4.5-0.7c0.1-0.1,0.4-0.2,0.1-0.5c-0.7,0.3-1.4,0.7-2.9,0l0.1-0.2l-2.4-0.7
	c0.8-2.1-4.5-0.1-4.4-2.7c-0.7,0.5-2.5,0-3.3,0.1c0,0.1-0.2,0.2-0.5,0.2c0-0.2,0.2-0.2,0.5-0.2c0-0.1,0-0.2-0.1-0.4
	c-1.3,0.8-2.5-1.3-3.5-1.5c-0.8,0-0.6,0.5-0.5,1c-0.9-1.4-3.9-0.4-4.2-0.9c-0.9-0.4,0-1-0.1-1.5c-1.4-0.3-0.5,2-2,0.4
	c0.2,0,0.7,0.1,0.6-0.1c-0.6-0.5-0.9-3.4-1.8-3.2l0.3,0.6c-1.5,0.1-2.4-2.9-3.1-1.6l-0.1,0.7c-1.9-1.8-1.1-0.1-3-1.8l0.1-0.1
	c-1-0.3-1.2-1.3-2.1-0.4l0.3,0.3c-1.2-0.4-1.3-0.6-2.5-1.1c-0.2,0.1-0.9-0.1-0.9-0.4c-0.4,0.9-3-0.8-3.6-1.1c1,0.3,0.7-0.3,0.6-0.8
	c-0.9,0.5-1.3,0.4-1.9-0.5c-0.6,1.1-1.3,2.1-2.9,1.5c0.3-0.1,0.8,0,0.7-0.3c-0.1-0.3-0.5-0.2-0.7-0.2c-0.1-0.3,0.5-0.2,0.5-0.7
	c-1.5,0.6-1.9-0.7-3.6-1c0.6-0.1,0.3-0.5,0.3-1c-0.7,1.2-1.6-2-1.7-0.1c-2.5-2.3-7.5-3.6-8.2-5.1c-0.1-0.6-1.3-0.2-1.8-0.5l0.3-0.5
	c-1.9,0.3-1.3-0.2-3.5,0c1-0.3,0.9-0.7,0.4-1.6l-1.7,0.6l0.2-0.9c-0.6,0.1-1.1-0.3-1.5-0.7c-0.9,0.7-2.6-0.3-3.2,0
	c0-1.4-1.5-0.4-1.4-1.6c-0.2,0.1-0.5,0.1-0.8,0.1c0,0.6-0.2,1.2-0.5,0.7c0,0-0.1,0-0.1-0.1l-0.1,0.7c-0.2,0.6-0.5-0.5-0.8-1.3
	c-0.1-0.2-0.3-0.4-0.4-0.6c-0.1,0-0.1-0.1-0.2-0.1c0,0,0.1,0,0.1,0c-0.2-0.3-0.5-0.5-1-0.5c-1.1-1.8-4.4-0.5-5.5-2.8
	c0.2,0.3,0.6,0.6,0.8,0.4c-1.5-0.8-2.6-2.5-3.8-2.5l-0.2,0.6c-1.2-0.3-2.2-0.6-3.1-1.1l-0.4,0.6c-1.2-0.9-4.5-1.4-4.6-3.2
	c-0.6,0.3-1.7-1.1-2.5-1.4l0.1-0.6c-0.9-0.7-1.5-0.9-2.2-1.1c0.1,0.1,0.1,0.2,0.2,0.3c-0.7,0.1-1.1-0.3-1.4-0.8
	c-0.3-0.2-0.7-0.6-1-1.1c0.4-0.4,0.6,0.4,1,1.1c0.4,0.3,0.8,0.4,1.2,0.5c-1.3-2.2-3.7-2.1-5.3-3.2l0.1-0.1l-1.9-0.6
	c0.7-0.2-0.5,0.1-0.9-0.3c-0.7-0.1-1.5-0.7-1.9-1.4l-1.1-0.6c1.4,0.4,0.3-0.8,0.6-1.4l-1,0.1c-0.1-0.4,0.7-0.2,0.3-0.6
	c-0.6,0.1-2-0.8-2.7-0.5c0,0.2,0.1,0.4,0.2,0.7c0.1,0,0.1,0,0,0v0c0,0,0,0,0,0c-0.1,0-0.2,0.1-0.3,0.1c0.1,0.1,0.2,0.1,0.3,0.2
	c-0.4-0.1-0.4-0.2-0.3-0.2c-0.8-0.6-0.6-0.2-0.7,0.1c-0.4-1.5-1.3-1.2-1.4-2.7c0.3,1.8-2.2-1.4-2.3,0.2c-0.2-1.4-0.5-0.3-0.4-1.4
	c0.9,0.9,2.4,0.6,3.4,0.8l-0.5-1c1-0.6,1.4,1.1,2,1.4c-0.4-0.1-0.7-0.5-0.7-0.8l-0.2,0.9c0.9,1,2.2,1,3.2,1.1
	c-0.6-0.7,1.2,0.1,1-0.8l-0.6-0.3c-0.1-0.4,0.6-0.3,1.1-0.4c1.5,1.8,5.4,3.2,5.7,4.3c-0.3-0.4-1.1-0.7-1.6-0.6l0.7,0.8
	c-0.8-0.4-0.9-1.4-2.1-1.8c-0.1,0.6-1.3,0.8-0.9,2c1.6,2,2.5-0.3,4.9,1.3c0.3,0-1,0.5,0.5,1c2,0.5,3.8,0,4.4-1.1
	c-0.9-0.1-2.6-0.2-2.4-1.2c0.9,0.1,2.2,0.6,2.6,0.1c0.2,1.4-1.5-0.5-1,0.8c0.5,0.3,0.9,0.1,1.2,0.1c-0.5,0.2,0.1,0.9,0.1,1.2
	c1.6,0.9,2.3,1.9,4,2.9c0-0.1,0-0.1,0,0l0,0c0,0.2,0.1,0.6-0.1,0.8c1,0.2,3-0.5,3-1.3c1,0.5,0.8,1,1.8,1.1c-0.9-1.6,0.2,0.3,0.8-0.5
	c0.9,0.4,0.1,0.6,0.3,1c0.2,0,0.7-0.1,0.9-0.4c0-0.2-0.1-0.4-0.3-0.6c0.4,0.2,0.4,0.4,0.3,0.6c0.2,1-2,1.2-1.8,2.4
	c0.2,0.7,1.5,2.6,1.6,2.8c0.8-0.5,2.4-3.8,2.3-5.1c0.4-0.5,0.5,1,0.9,1.3c0.6,1.4,2,0.2,2.8,1.1l-0.9,0.1c0,0.3,1.5,0.8,1.9,0.6
	c-0.1,0.3-1.5,1.1-1.3,1.7c1.6,1.1,4,0.1,4.4-0.8c-1-0.1-2-0.2-3-0.4c0.3-0.8,2.2,0.2,2.6-0.8l2.2,1.4c-0.3-0.1-1.3-0.4-1.2,0.2
	c1,0.5,0.4,0.4,0.9,1.1c-1.6,0.4-5,1.7-6.4,2.5l1.5,0.1l0.1,0.6c1.9,0.2,4.8-2,5.6-2.6c0.8,0.6-0.3,2.1-0.7,2.3
	c1.8,1,2.9-1.4,4.6-0.2l-0.5-0.7c0.5,0.1,1.9,1.1,1.9,0.8c0.1,0.5,0,1.5-0.4,1.8l2.1-0.6c-0.3,0.2-0.8,1.4-0.9,1.6
	c0.6,0.4,1.8-0.9,1.5-1.4c0.8,1.6,0.7,0.9,1.2,2.5c0.4,0.1,0.6-1.4,0.4-1.7c1,0.1,1.4,0.4,1.8,0.8c0,0,0,0,0.1,0l0,0.1
	c0.4,0.4,0.7,0.6,1.6,0.1l-1.9,1.8l0.4-1.9l0-0.1c-1.7-0.1-1.8,2.7-2.5,3.6l4.9-2.5c-0.2,0.2-1,1.3-1.1,1.5c0.8-1,4.3,0.4,5.9,1.4
	l-0.2-0.1c-0.4,0.2,0.3,0.8,1,1.1c0.2,0.1,0.4,0.1,0.6,0.1c-0.2,0.2-0.3,0.1-0.6-0.1c0.7,1.4,2.3-1.1,2.9,0.5
	c-1-0.6-1.4-0.2-1.6,0.3c1.1,0,2.8,1.4,3-0.2c0.4,0.5,1,0.6,0.6,1.3l2.5,0.1c-0.2,0.1-0.5,0.4,0.1,0.8c-1.1-0.7-2.8,0.1-3-1.1
	c-0.4,0.8-0.2,1.5-1.1,1.9c2.5,0.6,4.4-0.3,6.3-0.7l1.8,1.5l0.2-0.4l-0.1,1.1c0.3-0.1,0.6-0.2,0.6-0.1c0,0.1-0.1,0.2-0.3,0.3
	c0.2,0,0.5,0,0.6,0c0-0.1,0.1-0.3,0-0.4c0.2,0.2,0.1,0.4,0,0.4c-0.1,0.6-0.8,1-1.4,1.4c0,0.1,0.1,0.2,0.1,0.2
	c1.2-0.2,2.7-0.5,2.1-1.6l-0.6-0.7c0.3,0.3,0.5,0.5,0.6,0.7l0.9,1.1c1.8-0.4,1.5-0.3,3.5-0.3c-0.1,0.4-0.6,0.5-0.4,0.9
	c1.7-0.6,2.5,2.6,3.1,1.7c1.1,0.2,0.8-0.7,1.5-0.7c-0.1,0.1-0.2,0.3-0.1,0.4l1-0.4c0.2,0.4-0.9,0.2-0.2,0.9c1.7,0.1,2.7,0,3.8,0.8
	c1.8,0.5-0.2-1.7,1.2-1c0,0.7-0.1,1.4,0.8,1.9c0.6-0.2,0.8-0.7,1.7-0.6l-0.4,0.9c0.8,0.2,1.4,0.3,1.2,1c0.8-0.1,1.2,0.1,1.4,0.4
	c1.3,0-0.1-2.2-0.3-2.6c0.9,1.1,1.8,1,2,2.4l-1.1-0.2c1.7,2,2.5-0.5,2.8,1.8c-0.7-0.3-1.8-0.2-1.5,0.5l1.2-0.1
	c0.1,0.3-0.7-0.1-0.3,0.4c0.4-0.1,1.2-0.3,1.6-0.5l0.2-0.2c0.1,0.1,0,0.1-0.2,0.2l0,0.1l1.8,0.5c-0.2,0-0.3,0.2,0,0.4l1.4,0
	c0.1,0,0.2,0,0.5,0h-0.5c-0.5,0.1-0.2,0.5,0.3,0.9c1.5,0.9,2-1.6,3-0.2c-0.2-0.1-0.2,0-0.4-0.1l0.5,0.6c0.8-1.9,3.9,1.2,4.7-0.7
	c0.7,1.1-0.1,0.5-1.6,1l0.8,0.9c-0.4-0.1-0.7-0.3-1.2-0.3c1,1.3,2.6,0.7,3.5,0.5c0.4,0.4-0.9,1.3,0.6,1.5c2.1,0.3,0.1-1.5,1.4-1.4
	l0.5,1.3c1.8-0.2,2.7,0.8,4,1.4c0.3,0,0.5,0,0.6-0.1h0l0.1-0.1c0.2-0.3-0.1-0.7,0.7-0.5l-0.7,0.5c0,0-0.1,0.1-0.1,0.1
	c1.3,0.9,3.2,0,4.2,0.7c-0.3,0.1,0.4,0.8,0.4,1.1h2.1c-0.9,0-1,0.6-1.4,1.1c0.6,0.1,1-0.1,1.4,0c-0.3,0.1-0.6,0.2-0.4,0.6
	c0.8-0.1,1.5-0.2,2.3-0.3c-0.1-0.1-0.3-0.2-0.5-0.3c0.5,0.1,1.7,0.1,2.3,0.8c-0.1,0.2-0.4,0.3-0.6,0.5c-0.4-0.8-0.9-0.4-1.4,0
	c1.4,0.3,0.3,0.2,0.8,0.9c1,0.3,1.6-0.4,1.5-0.9c1,0.5,1.4,0.8,2.6,0.6l-0.4,0.7l1.1,0.1l-1.1,0.7c1.8,1.1,0.8-1.2,2.9-0.1l-0.2,0.7
	c0.9,0,1.6-1.1,2-0.1c0.9-0.2-1.1-1.4,0.9-1c0.2,0.5,0.9,0.9,1.4,1.2c0.6-0.1,0-0.8-0.5-0.9c2.8,0.6,1,2.9,3.9,2.7
	c-0.8-0.8,1.1-1.1-1-1.7c1.1-0.1,1.7,1.6,3,1.1l-0.9,0.7c0.4,0.1,0.9-0.1,1.1-0.1l-0.3,0.7c1.6-0.9,2.3,1.2,3.5-0.1
	c-0.9,1.1,1,0.2,1.4,0.8c-1.3,0.6-3.1-0.9-3.5,0.2c0.4,0.5,1,0,1.4,0.5c0.4-0.1,0.5-0.1,0.1,0.1c0,0-0.1-0.1-0.1-0.1
	c-0.4,0.1-1,0.2-1.1,0.4c1.5,1.1,2.8,0,3.9,0l-1.9-0.2c0.5-1.1,0.9,0,1.6-0.8c0.7,0.9,1.6,0.1,2.3,0.7c-0.2-0.1-0.2,0.1-0.4,0
	c1.9,0.5,2,2.5,2.8,2.7c0.7,0.3,2.3,0.1,1.9-0.5c0.7-0.1-2.7-0.3-1.2-1.5c0.7,2,2.4,0,4.6,1.7c-1.2,0.4,0.4,1.1-0.7,1.4
	c1.2,0.1,1.3-0.1,1.9-0.5l0.2,0.6c1.8-0.8,0.6-1,3.1-1.1c-0.9,0.2,0.7,1,0.1,1.2c0.6,0.2,1.3,0.2,1.8-0.1l-0.1,0.1
	c2.4,0.3,1.7,1.1,4,1l-0.1-0.4c2.9-0.2,6.3,1.1,9.3,1.3l-0.9-0.4c0.3,0.1,1,0,1.6,0.1c-1.4-5.5-0.4-11.9,3.4-19.4
	c10.6-21.1,7.7-41.8-9.7-56.9c-35.4-30.7-72.5-59.6-108.9-89.2c-7.6-6.1-15.3-12.1-23.4-17.6c-28.9-19.6-45.3-43.9-40.7-81.4
	c3.5-28.4-16.3-47.4-36.6-63.9c-7.8-6.4-16.4-11.8-25.3-17.5c-0.1,0.4-0.3,0.6-0.8,0.7l0.9,0.4c-0.8,0.6-2.5-1.8-3.5-1.3l-1.9-2.6
	c-0.1,0.3-0.8,0.5-0.5,0.9c0.2,0.1,0.5,0.3,0.7,0.4c-0.4-0.2-0.6-0.3-0.7-0.4c-0.6-0.4-1.2-0.8-0.7,0.2c-4.6-6.2-12.1-8.7-17.2-13.9
	c-0.4-0.2-0.4,0.2-0.4,0.5c-0.6-1.5-1.3-0.3-2-0.7l-0.8-2.2c-0.9-0.1-0.6,0.5-0.8,0.7c-3.1-1.9-5.4-5-8.2-6.1
	c-0.5-0.9,0.8-0.8-0.1-1.6c0.6,2.1-3.4-1.6-3-0.1c-0.2-1.9-3.5-2.8-1.9-4.2c-1.2-0.9-1.5,0-1.2,0.4c-1.4-1.1-2.6-1.8-4.1-2.1
	c-0.5-0.9-6.9-4.1-7.3-6.1c0.3,1.4-0.4,0.4-1.4,0.2l0.3,1.2l-1.8-1.4c-0.4-0.2-0.5-0.3-0.5-0.4c-0.3-0.2,0.4-0.4-0.3-1.1
	c-1.3-0.9-1.6-0.6-2.6-0.6l0.1,0.2l-0.9-0.5c-0.6-0.4,2.8,0.8,0.9-1c-0.1,0.2-2,0.3-2.3-0.6c1.1,0.7,1.3,0.1,1-0.3l-1.5-1l-0.1,1.2
	c-4.3-2.9-8.5-6.5-13.2-9.4c0.6-0.8-3.3-2.1-2.2-3l0.1,0.2c1.2,0.6,0.2-1.1-0.8-1.6c0.8,1-2.5,0.1-0.2,1.8l-2.2-0.6
	c-2.4,1.7-4.9-3.2-8.2-4.1c0.2,0,0.4-0.1,0.4-0.1c-3-0.7-5.3-4-6.1-3.9l0.1-0.8c-2.7-0.2-3-0.3-5.4-2.2c0.1-0.1,0.5-0.1,0.1-0.5
	c-0.9,0.1-1.8,0.2-3.5-0.9l0.2-0.2l-2.9-1.4c1.1-2-5.5-1.4-5.2-4c-0.9,0.3-3.1-0.6-4.1-0.8c-0.1,0.1-0.2,0.2-0.6,0.1
	c0-0.2,0.2-0.2,0.6-0.1c0.1-0.1,0-0.2-0.1-0.4c-1.6,0.5-3-2-4.3-2.5c-0.9-0.1-0.8,0.4-0.6,0.9c-1.1-1.7-4.8-1.1-5.2-1.8
	c-1.1-0.6-0.1-1-0.1-1.6c-1.8-0.6-0.6,2-2.5,0.1c0.3,0.1,0.8,0.2,0.7,0c-0.8-0.6-1.2-3.8-2.4-3.7l0.4,0.6c-1.9-0.2-3.1-3.4-4-2.2
	l-0.1,0.7c-2.4-2.1-1.3-0.3-3.8-2.3l0.1-0.1c-1.3-0.4-1.6-1.6-2.7-0.8l0.4,0.3c-1.6-0.6-1.7-0.7-3.3-1.4c-0.2,0-1.1-0.1-1.2-0.5
	c-0.4,0.9-3.9-1.1-4.5-1.5c1.3,0.4,0.9-0.2,0.7-0.7c-1,0.4-1.6,0.3-2.4-0.6c-0.6,1.1-1.3,2.2-3.3,1.4c0.4-0.1,0.9,0.1,0.8-0.2
	c-0.1-0.3-0.7-0.2-0.9-0.2c-0.1-0.3,0.6-0.2,0.5-0.7c-1.8,0.5-2.4-0.8-4.5-1.2c0.8-0.1,0.3-0.5,0.2-1c-0.6,1.2-2.3-2.1-2.2-0.2
	c-3.6-2.4-10-3.6-11.2-5.1c-0.3-0.6-1.6-0.2-2.3-0.4l0.3-0.5c-2.3,0.4-1.6-0.1-4.2,0.2c1.1-0.4,0.9-0.8,0.1-1.6
	c-0.6,0.2-1.3,0.4-1.9,0.7l-0.1-1c-0.8,0.1-1.4-0.2-2.1-0.5c-0.9,0.8-3.4,0-3.9,0.4c-0.4-1.4-2-0.2-2.2-1.5c-0.3,0.1-0.6,0.1-1,0.2
	c0.2,0.6,0.2,1.2-0.4,0.8c-0.1,0-0.1,0-0.1,0l0.1,0.7c-0.1,0.7-0.8-0.4-1.4-1.1c-0.2-0.2-0.5-0.4-0.7-0.5c-0.1,0-0.2-0.1-0.2-0.1
	c0.1,0,0.1,0,0.1,0c-0.4-0.3-0.8-0.4-1.4-0.4c-2.1-1.6-5.4,0.2-7.7-1.8c0.4,0.2,0.9,0.4,1.1,0.2c-2.1-0.4-4.1-1.8-5.5-1.6l0,0.7
	c-1.6,0-2.9-0.1-4.1-0.4l-0.2,0.7c-1.8-0.6-5.9,0-6.8-1.8c-0.6,0.5-2.5-0.6-3.6-0.6l-0.2-0.6c-1.4-0.4-2.2-0.2-3.1-0.2
	c0.1,0.1,0.2,0.1,0.4,0.2c-0.8,0.4-1.5,0.1-2.1-0.2c-0.5-0.1-1.1-0.3-1.7-0.6c0.3-0.5,0.9,0.1,1.7,0.6c0.6,0.1,1.2,0.1,1.7,0.1
	c-2.6-1.5-5.4-0.8-7.8-1.1l0-0.2l-2.5,0.2c0.1-0.1,0.2-0.1,0.2-0.1c-0.1,0-0.9,0.4-1.4,0.2c-0.8,0.2-2.1-0.1-3-0.5l-1.6-0.2
	c1.8-0.2-0.1-0.8-0.1-1.5c-0.4,0.1-0.7,0.3-1.1,0.5c-0.4-0.3,0.7-0.5-0.1-0.7c-0.7,0.3-2.7,0.2-3.4,0.9c0.1,0.2,0.3,0.3,0.6,0.5
	c0.1-0.1,0.1,0,0,0l0.1,0c0.4,0.1,0.6,0.2,0.7,0.2c0.3,0.1,0.6,0.1,0.9,0.1h-0.8c-0.1,0.1-0.5,0,0,0c0,0,0-0.1-0.1-0.1
	c-0.2-0.1-0.5-0.1-0.7-0.2c0,0-0.1,0-0.1,0c-0.1,0.1-0.2,0.2-0.3,0.2c0.1,0,0.3,0.1,0.5,0.1c-0.5,0.1-0.5,0-0.5-0.1
	c-1.2-0.2-0.8,0.1-0.8,0.4c-1.3-1-2.1-0.5-3.1-1.5c0.7,1.1-3.4-0.3-2.6,1c-1.1-1.1-0.7-0.1-1.4-1c1.5,0.2,3-0.6,4.2-1l-1.2-0.7
	c0.7-1.1,2.3,0.2,3.1,0.2c-0.5,0.1-1.1-0.1-1.3-0.3l0.2,0.9c1.7,0.4,3.1-0.2,4.3-0.6c-1.1-0.4,1.4-0.5,0.6-1.2l-0.9,0.1
	c-0.4-0.3,0.5-0.6,1-0.8c2.8,0.8,8.1,0.8,9.1,1.5c-0.6-0.3-1.7-0.2-2.2,0.1l1.3,0.5c-1.1-0.1-1.9-0.9-3.5-0.8c0.2,0.6-1,1.3,0.1,2.2
	c3,1.2,2.6-1.3,6.3-0.8c0.4-0.1-0.9,0.9,1.1,0.8c2.5-0.3,4.5-1.4,4.7-2.6c-1.1,0.2-3.3,0.7-3.5-0.2c1.1-0.2,2.9-0.2,3.1-0.8
	c1,1.2-2,0.1-0.7,1.1c0.8,0.1,1.1-0.2,1.5-0.4c-0.5,0.4,0.6,0.8,0.8,1.1c2.4,0.3,3.7,0.9,6.2,1.4c0,0,0-0.1-0.1-0.1
	c0,0,0.1,0,0.1,0.1c0,0,0,0-0.1,0c0.1,0.2,0.3,0.6,0.2,0.8c1.3-0.1,3.3-1.4,2.9-2.1c1.5,0.2,1.4,0.7,2.7,0.6
	c-1.8-1.3,0.4,0.2,0.8-0.8c1.3,0.1,0.4,0.6,0.9,0.9c0.2-0.1,0.8-0.3,0.9-0.6c-0.1-0.1-0.3-0.3-0.7-0.5c0.6,0.1,0.7,0.3,0.7,0.5
	c0.6,0.9-1.9,1.7-1.1,2.8c0.5,0.6,3,2.2,3.2,2.3c0.8-0.7,1.3-4.2,0.6-5.6c0.2-0.6,1.1,0.9,1.6,1.1c1.4,1.3,2.6-0.2,3.9,0.4l-1.1,0.3
	c0.2,0.3,2.2,0.4,2.6,0.1c0,0.3-1.4,1.5-0.9,2c2.3,0.7,5-0.5,5.1-1.6c-1.3,0.1-2.6,0.1-3.9,0.1c0.1-0.9,2.8-0.2,2.9-1.2l3.3,1.1
	c-0.4-0.1-1.8-0.2-1.4,0.4c1.4,0.3,0.7,0.3,1.6,0.9c-1.9,0.6-5.6,2.6-6.9,3.6l1.8-0.1l0.3,0.6c2.4-0.1,5.2-2.8,6-3.5
	c1.2,0.5,0.3,2.2-0.1,2.4c2.5,0.7,3.1-1.9,5.6-0.9l-0.9-0.6c0.6,0,2.6,0.9,2.6,0.6c0.4,0.6,0.5,1.8-0.1,1.9l2.6-1
	c-0.3,0.2-0.5,1.5-0.7,1.7c0.8,0.3,1.8-0.9,1.6-1.4c1.4,1.4,1.1,0.8,2.2,2.3c0.5,0.1,0.4-1.5,0.1-1.7c1.3,0,1.9,0.4,2.4,0.7
	c-2.1,0-1.4,2.9-2.1,3.9l5.4-2.8c-0.2,0.2-1,1.4-1,1.6c0.7-1.1,5.6,0.2,7.8,1.2l-0.3-0.1c-0.5,0.2,0.5,0.9,1.5,1.1
	c1.2,1.4,2.6-1.1,3.9,0.5c-1.4-0.6-1.8-0.2-1.9,0.3c1.3,0,3.9,1.4,3.8-0.2c0.6,0.6,1.4,0.6,1.1,1.3l3.2,0.2
	c-0.3,0.1-0.6,0.4,0.2,0.8c-1.5-0.8-3.5-0.1-4.1-1.3c-0.4,0.9,0.1,1.5-1,2c3.2,0.7,5.4-0.1,7.8-0.3l2.5,1.7l0.3-0.3l0.1,1.2
	c0.4-0.1,0.7-0.2,0.8-0.1c0,0.1-0.1,0.2-0.3,0.3c0.3,0.1,0.6,0.1,0.8,0c0-0.1,0.1-0.3,0-0.4c0.2,0.3,0.2,0.4,0,0.4
	c-0.1,0.6-0.8,1-1.5,1.3c0,0.1,0.1,0.2,0.1,0.3c1.5-0.1,3.3-0.3,2.5-1.4l-0.9-0.8c0.4,0.3,0.7,0.6,0.9,0.8l1.3,1.2
	c2.2-0.2,1.8-0.1,4.4,0.1c0,0.4-0.7,0.4-0.4,0.9c2.1-0.4,3.4,2.9,4.1,2.2c1.4,0.3,0.9-0.6,1.8-0.5c-0.1,0.1-0.2,0.3,0,0.4l1.3-0.3
	c0.3,0.4-1.1,0.1-0.1,0.9c2.1,0.3,3.4,0.5,4.8,1.5c2.3,0.9-0.3-1.8,1.5-0.8c0,0.7-0.1,1.5,1.1,2.1c0.8-0.1,0.9-0.6,2.1-0.3l-0.5,0.8
	c1,0.4,1.8,0.6,1.5,1.3c1,0,1.5,0.3,1.8,0.7c1.7,0.3-0.2-2.3-0.4-2.8c1.1,1.4,2.3,1.5,2.6,2.9l-1.4-0.4c2.2,2.4,3.2,0.1,3.5,2.5
	c-0.9-0.5-2.2-0.7-1.9,0.1l1.6,0.3c0.1,0.3-0.8-0.2-0.4,0.3c0.5,0,1.5,0,2-0.1l0.2-0.2c0.1,0.1,0,0.1-0.2,0.2l-0.1,0l2.3,1
	c-0.3-0.1-0.4,0.1-0.1,0.4l1.8,0.4c0.1,0,0.3,0,0.6,0.1l-0.6-0.1c-0.6-0.1-0.2,0.5,0.4,1c1.9,1.3,2.6-1.1,3.8,0.6
	c-0.2-0.1-0.3-0.1-0.5-0.2l0.6,0.8c1.1-1.7,4.9,2.4,6,0.7c0.8,1.4-0.1,0.5-2.1,0.5l0.9,1.2c-0.5-0.2-0.9-0.6-1.5-0.7
	c1.2,1.6,3.2,1.5,4.4,1.5c0.5,0.6-1.2,1.1,0.7,1.7c2.6,1,0.3-1.6,1.8-0.9l0.5,1.5c2.3,0.4,3.3,1.8,4.8,2.8c0.4,0.1,0.6,0.1,0.8,0.1
	l-0.1,0l0.2,0c0.2-0.2,0-0.8,0.9-0.2l-0.9,0.2c0,0-0.1,0.1-0.1,0.1c1.4,1.4,4,1.2,5.1,2.2c-0.4,0,0.4,1,0.4,1.3l2.6,0.8
	c-1.1-0.3-1.4,0.2-1.9,0.6c0.7,0.4,1.2,0.3,1.8,0.5c-0.4,0-0.8,0-0.6,0.5l2.9,0.6c-0.1-0.2-0.3-0.4-0.5-0.5c0.6,0.4,2.1,0.8,2.6,1.7
	c-0.2,0.2-0.6,0.2-0.8,0.3c-0.4-1-1.1-0.8-1.6-0.6c1.7,0.9,0.3,0.4,0.9,1.2c1.1,0.7,2,0.3,2-0.3c1.2,1,1.5,1.4,3.1,1.7l-0.7,0.5
	l1.4,0.5l-1.5,0.2c2,1.9,1.2-0.9,3.5,1l-0.4,0.6c1.1,0.4,2.1-0.4,2.4,0.8c1.2,0.2-1.1-1.9,1.2-0.6c0.2,0.6,0.9,1.3,1.4,1.9
	c0.7,0.1,0.2-0.7-0.3-1.1c3.1,1.8,0.6,3.2,4,4.4c-0.8-1.1,1.6-0.6-0.8-2.2c1.4,0.4,1.7,2.4,3.4,2.5l-1.3,0.3
	c0.4,0.3,1.1,0.3,1.4,0.4l-0.5,0.5c2.2-0.1,2.5,2.3,4.2,1.5c-1.3,0.7,1.1,0.7,1.5,1.4c-1.7,0-3.5-2.3-4.3-1.4
	c0.4,0.7,1.2,0.5,1.6,1.2c0.4,0.1,0.7,0.2,0.1,0.1c0-0.1-0.1-0.1-0.1-0.1c-0.5-0.1-1.2-0.2-1.5-0.1c1.5,1.8,3.4,1.3,4.7,1.8
	l-2.2-1.1c0.8-0.9,1,0.4,2.1,0c0.7,1.2,1.9,1,2.6,1.8c-0.2-0.1-0.3-0.1-0.5-0.2c2.2,1.4,1.7,3.4,2.6,4.1c0.8,0.7,2.7,1.2,2.4,0.4
	c0.9,0.2-3.1-1.6-1-2.1c0.2,2.3,2.9,1.1,5,4c-1.5-0.3,0.1,1.3-1.2,1c1.4,0.8,1.6,0.6,2.4,0.6l0.1,0.7c2.4,0.1,1-0.6,3.9,0.5
	c-1.1-0.2,0.6,1.4-0.3,1.2c0.7,0.5,1.5,0.8,2.2,0.9h-0.1c2.7,1.5,1.7,2,4.4,3.1l0-0.4c3.6,1.4,7.1,4.6,10.5,6.4l-0.9-0.9
	c0.5,0.4,2.4,1.1,3,2.1c0.1,0.1,0.2,0.1,0.1,0.2c0-0.1-0.1-0.1-0.1-0.2c-0.2-0.1-0.6-0.2-0.8-0.4c-0.2,0.3-0.1,1.1,0.6,1.7l0.6-0.3
	l0.1,0.6c1.1,0.8,0.1-0.9,1.3-0.1c-0.3,1.8,4.8,3.7,5,5.6c1.5-0.4-2.1-1.7-0.6-1.9c0.2,0.4,0.3,0.7,1,1.3l0.2-0.8
	c3.2,2.8,4.2,4.2,7.4,6.3l-0.2,0c0.4,0.4,0.7,0.7,1.1,0.9c22.7-18,38.1-40.6,47-68.3c9.2-28.3,5.9-54.9-15.4-74.6
	c-25.8-23.8-55.1-43.8-83.1-65.1c-5.7-4.3-12.6-7.1-20.4-11.4c20.4-25.9,48.7-32.9,77.6-35.4c46.2-3.9,92.7-4.1,138.9-8.2
	c23.4-2.1,47.6-6.4,69.4-14.9c54.4-21.3,69.7-70.2,72-121.4c1.4-30.8-7.9-62.6-15.6-93.1c-9.9-39.7-5.1-73,28.8-100.1
	c20.5-16.4,19.9-46.9,0.3-64.6c-7.6-6.8-17.1-11.6-26-16.9c-15.8-9.4-16.8-15.5-2.3-27c16.9-13.6,32-27.9,39-49.4
	c5.2-16,2.5-28.7-10.6-39.2c-10-8-20.7-15.2-30.1-23.9c-25.9-23.8-27.8-53.1-1.4-75.9c35-30.3,72.9-57.2,108.9-86.4
	c12.2-9.9,23.9-21.2,33.4-33.7c26.5-34.7,22.1-63.8-13.2-89.3c-22.2-16.1-46.9-29.1-67.9-46.6c-38.8-32.2-77.9-64.8-112.9-100.9
	c-35.6-36.7-42.6-80.4-27.6-132c51.3-175.6,99.2-352.1,147.6-528.6c7.1-25.7,9.4-52.7,13.9-79.2c2.1-12.2-3.2-17-15.6-18.9
	c-170.1-26.2-339.6-56.1-506-100.4c-52.4-14-104.8-28.5-156.9-43.8c-26.4-7.8-52.9-15-79.3-22.8l-58.1-7.1c-7-0.2-13.9-2-20.9-2.7
	c-131.6-14.2-269.3-11-395.9,31.3c-181.2,60.4-326.6,169.5-456.7,310.6c-105.7,114.6-208.2,277-247.9,427.9
	c-28.7,109.1-44,220.6-47.1,332.9c-5.1,189.9-22.1,379.9-23.6,569.8c-0.7,92-12.6,180.6-39.3,267.7c-37.7,123-79,244.9-116.3,368
	c-35.9,118.5-60.2,239.3-53.6,364.1c2.3,44.5,6.9,88.9,11.6,133.2c8.6,81.8-7.2,156.5-53.3,226.4
	c-106.8,161.8-161.8,336.8-224.9,519.7c-42.9,124.5-67.4,253.1-79.4,384.3c-1.7,18.8-3.2,37.7-4.3,56.5
	c461.5-562,1456.4-950.8,2609.3-950.8c87.9,0,174.9,2.3,260.8,6.7c-74.8-61.5-149.9-133.4-145.1-176.1L3290,2879.8z M2879.6,2494.1
	l0.7-1.4l0.2,0.1L2879.6,2494.1L2879.6,2494.1z M2962.5,2523.1c-0.2,1-0.3,0.1-1-0.2C2961.8,2522.9,2962.2,2522.9,2962.5,2523.1z
	 M2953.1,2520.9l-0.1,0.9l0-0.9L2953.1,2520.9L2953.1,2520.9z M2942.7,2516.2l0.4,0.8c-0.4-0.2-0.5-0.3-0.6-0.6L2942.7,2516.2
	L2942.7,2516.2z M2893.7,2496.1c0.9,0.9,0.6-0.7,1.6,0.2c-0.1,1.1-0.4,0.7-1.3,0.7C2894.4,2496.9,2893.3,2496.3,2893.7,2496.1
	L2893.7,2496.1z M2893.9,2497c-0.1,0-0.2,0-0.4,0C2893.7,2497,2893.8,2497,2893.9,2497z M2867,2483.1c1.2,0.6-0.3,0.3-0.5,0.5
	C2865.7,2482.9,2866.7,2483.3,2867,2483.1z M2866.1,2485.5c0.4,0.1,0.6,0.4,0.4,0.6l-1.1-0.4
	C2865.4,2485.4,2865.8,2485.5,2866.1,2485.5z M2864.2,2482.2l-0.5,0.8c0-0.3,0.1-0.4-0.1-0.7L2864.2,2482.2L2864.2,2482.2z
	 M2854.3,2480.1c0.1,0,0.2-0.1,0.3-0.2C2854.6,2480,2854.5,2480.1,2854.3,2480.1z M2854.9,2479.3c0.2,0.1,0.3,0.1,0.4-0.1l0.8,0.7
	C2855.9,2480.2,2855.4,2479.7,2854.9,2479.3c-0.3-0.1-0.6-0.2-0.8-0.3C2854.3,2479,2854.6,2479.2,2854.9,2479.3L2854.9,2479.3z
	 M2854.1,2478.1l-0.6-0.4l-0.2-0.3L2854.1,2478.1z M2447.4,1493.1c-0.2-0.8-0.4-0.2-0.6-0.2c0-0.9,0.1-1.8,0-2.8l-0.3-1.3l0.3,0.3v1
	C2447,1491.1,2447.2,1492.1,2447.4,1493.1L2447.4,1493.1z M2447.1,1499.9c-0.6-2.3-0.9-0.5-1.3-1.6
	C2446.3,1495.2,2446.7,1498.4,2447.1,1499.9z M2446.1,1534.3c0.4-3-0.7-7.6,0.4-9.2c-0.3,2.6,0.1,7.4,0.2,11.1l-0.8-1.4
	L2446.1,1534.3L2446.1,1534.3z M2446.7,1506.8l0-0.8l0.9,5.1L2446.7,1506.8z M2447.5,1488.6v0.2
	C2447.4,1488.7,2447.5,1488.7,2447.5,1488.6c0-0.4-0.1-0.7-0.1-1l0,0.1c0-0.6,0-1.1,0-1.4c0,0.4,0,0.8,0.1,1.4l0.6-1.1
	C2448,1488,2447.7,1488.4,2447.5,1488.6L2447.5,1488.6z M2448.1,1495.7c0.3-0.2,0.6-1.2,0.9-1c-0.4,0.1-0.4,1.8-0.6,2.7
	L2448.1,1495.7c-0.2,0.2-0.4-0.3-0.4-2.6L2448.1,1495.7L2448.1,1495.7z M2448.5,1484.6l-0.3-1.1l1,2.6L2448.5,1484.6L2448.5,1484.6z
	 M2447.9,1472.9c0.4,1.4,0.9,2.9,1.1,4.7c-0.3-1.2-0.5,1.5-1,0.4C2448.3,1475.9,2448.2,1474.4,2447.9,1472.9
	c-0.3-0.8-0.5-1.6-0.6-2.3C2447.6,1471.4,2447.8,1472.1,2447.9,1472.9L2447.9,1472.9z M2444.9,1449.2l0.5,1.5l-0.6-0.2
	L2444.9,1449.2z M2446.2,1456.9l-0.7-0.5l-0.5-1.9L2446.2,1456.9L2446.2,1456.9z M2444.2,1439.6c-0.1-0.2-0.2,0.1-0.4,0.2
	c0.1-0.7,0.1-1.1-0.1-2.4L2444.2,1439.6z M2442,1424.4c0.2-0.5-0.7-0.1-0.7-1C2440.3,1418.6,2442.9,1425.2,2442,1424.4z
	 M2325.3,829.7l0.8,1.5l-1,0.5C2325.3,831.4,2325.3,830.3,2325.3,829.7z M2326.4,834.1l-0.5,2.4l-0.1-0.9L2326.4,834.1L2326.4,834.1
	z M2351.9,1105.6c0.8-0.5,0.4,0.7,0.8,2.5C2352.4,1107.3,2352.1,1106.4,2351.9,1105.6z M2360.6,1133l-0.1-0.6l0.7-0.7L2360.6,1133
	L2360.6,1133z M2369.2,1165.1l-0.3-0.1v-2C2369.2,1164.1,2369.3,1164.6,2369.2,1165.1z M2412.4,1311.8c-0.5-0.8,0.3,2.8-0.2,2
	c-0.4-3.5-0.9-0.3-1.5-4.1C2411.4,1308.4,2411.5,1309.6,2412.4,1311.8c0.1,0.2,0.2,0.5,0.5,1.1
	C2412.7,1312.5,2412.5,1312.1,2412.4,1311.8z M2431.6,1398.4c-0.8-4,0.5,0.2,0.8,0.5C2432.7,1401.8,2431.9,1398.6,2431.6,1398.4z
	 M2434,1408.1l-0.6-1.4l0.9-0.1C2434.2,1407.1,2434.1,1407.2,2434,1408.1L2434,1408.1z M2433.7,1396.7c-0.3-1.2-0.3-2.1,0-1.8
	l0.8,3.2C2434.3,1398.6,2434,1397.5,2433.7,1396.7z M2437.4,1425.8c-0.1-6.5-2.7-18.1-2.3-20.5c0,1.3,0.5,3.7,1,4.8l-0.1-3
	c0.4,2.4-0.1,4.5,0.8,8c0.5-0.7,1.7,1.8,2.1-1.1c-0.2-7-2.4-5.4-3.4-13.7c-0.3-0.7,1.3,1.6,0.1-2.8c-1.6-5.4-3.6-9.2-4.9-9
	c0.8,2.2,2.4,6.8,1.6,7.6c-0.8-2.3-1.7-6.2-2.4-6.3c0.6-2.6,1.1,4.3,1.4,1c-0.3-1.6-0.8-2.3-1.1-3c0.6,1,0.4-1.6,0.6-2.1
	c-1-5.3-1-8.4-2.1-14c0,0.1,0,0.1-0.1,0.2c0,0,0-0.1,0-0.3c0,0.1,0,0.1,0,0.1c0.1-0.3,0.3-1,0.6-0.9c-0.9-2.7-3.2-6.3-3.6-5.1
	c-0.7-3.2-0.2-3.5-1.1-6.2c0,4.6,0-0.9-1.1-1.1c-0.7-2.8,0.3-1.1,0.2-2.4c-0.2-0.4-0.8-1.5-1.1-1.5c-0.1,0.3-0.1,0.8,0,1.7
	c-0.2-1.3-0.2-1.7,0-1.7c0.4-1.9,2.7,2.9,3.1,0.7c0.3-1.5-0.1-7.7-0.1-8.2c-1.1-1.2-4.5,0-5.2,2.3c-0.6-0.1,0-2.8-0.2-4
	c0.1-3.8-2-5.2-2.3-8.3l1,2.1c0.1-0.5-1.1-4.8-1.6-5.4c0.3-0.2,2.2,1.9,2.3,0.4c-1.1-5.3-4.1-9.9-5-9.3l3,7.8
	c-0.7,0.5-2.2-5.6-3.1-5l-1.5-7.5c0.2,0.9,1.2,3.8,1.4,2.5c-0.8-3.2-0.3-1.7-0.4-3.9c1.9,3.4,6.2,9.5,8.1,11.6l-1.5-3.7l0.2-1.1
	c-1.9-4.9-6.2-8.6-7.3-9.7c-0.5-2.9,1.5-2.4,2-1.8c-1.3-5.7-3.8-5-5.1-10.7l0.2,2.2c-0.5-1.3-1.4-6.3-1.6-5.7
	c0.2-1.2,0.9-2.4,1.5-1.6l-2.7-4.3c0.4,0.4,1.6-0.3,1.9-0.1c-0.5-2-2.4-3-2.4-1.8c0-4.1-0.3-3,0-6.5c-0.4-1.1-1.4,0.5-1.4,1.4
	c-1.1-2.5-1.3-4.1-1.5-5.4c0-0.1-0.1-0.1-0.1-0.1l0-0.1c-0.2-1.4-0.4-2.5-1.6-4.1l3.1,2.2l-1.4,1.9c0,0,0,0.1,0,0.2
	c1.8,4.2,3.4,0.3,4.7,0.9l-6.7-8.2c0.3,0.3,1.9,0.6,2,0.5c-1.4-0.4-4.3-10.5-5.7-15.9l0.1,0.3c0.7,0.9-0.2-3.7-1.1-5.4
	c0.3,0.2,0.4,0.7,0.6,1.5c-0.1-3.8-3.1-4-3.1-7.9c0.8,3.3,1.5,3.8,1.9,3.5c-1.2-2.5-2.4-8.8-3.5-7.1c-0.2-1.8-0.8-3.2,0-3.3
	l-2.7-6.2c0.3,0.4,0.8,0.7,0.4-1.2c0.9,3.7,3.2,6.8,2.8,9c0.9-0.2,1-1.7,2.2-0.1c-2.4-6.9-5.1-10.3-7.4-14.5l-1.1-6.4l-0.5-0.1
	l0.7-1.4c-0.5-0.7-0.8-1.1-0.8-1.3c0.1-0.2,0.2,0,0.5,0.2c-0.2-0.6-0.5-1.2-0.7-1.5c-0.1,0.1-0.2,0.2-0.3,0.5
	c-0.1-0.8,0.1-0.8,0.3-0.5c0.5-0.4,1.4,0.5,2.3,1.5c0-0.2,0-0.4,0-0.6c-1.5-2.8-3.3-5.9-3.2-3.1l0.3,2.5c-0.2-1.1-0.3-1.9-0.3-2.5
	l-0.4-3.8c-2.2-3.9-1.8-3.2-4.1-8.2c0.3-0.4,1,0.9,1-0.1c-2.2-3.4-1.3-9.6-2.6-10.1c-1.1-3-1.3-1-2.1-2.9c0.1,0.1,0.4,0.2,0.3-0.4
	l-1.4-2.1c0-1,1.1,1.9,0.7-0.7c-1.8-4.3-2.9-6.8-3.7-10.5c-1.7-5.2-0.8,2.7-2-1.8c0.4-0.8,1-1.6,0.2-4.4c-0.8-1.3-1.2-1-2.2-3.4
	l1-0.1c-0.7-2.3-1.4-4.1-0.7-4.3c-0.9-1.8-1.2-3.1-1.4-4.1c-1.5-3.4-1.1,3.1-1.3,4c-0.3-3.6-1.4-5.9-0.8-8.2l1.1,3
	c-0.7-6.8-3.1-5.8-2-9.4c0.6,2.2,1.8,4.8,1.9,3.3l-1.4-3.1c0.1-0.4,0.7,1.8,0.6,0.2c-0.5-0.8-1.5-2.6-2-3.3l-0.3-0.2
	c-0.1-0.4,0.1-0.2,0.3,0.2l0.1,0l-1.6-5.2c0.2,0.6,0.4,0.5,0.2-0.4l-1.6-3.7c-0.1-0.2-0.2-0.4-0.4-0.8l0.4,0.8
	c0.6,1.1,0.5-0.2,0.2-1.9c-1.1-5-3.2-3.4-3.3-7.4c0.1,0.6,0.3,0.6,0.4,1.2l-0.1-2.1c-2.1,0.1-3.4-11.6-5.4-11.4c0-3,0.4-0.3,2.3,3
	l-0.2-3.1c0.4,1.2,0.5,2.2,1.1,3.5c-0.2-4.2-2.3-7.6-3.4-9.5c-0.1-1.6,1.8,0.8,0.3-3.4c-2-5.9-1.1,1.5-2.3-2l0.3-2.9
	c-2-4.4-2.2-8.1-3.1-12c-0.3-0.8-0.5-1.3-0.7-1.4l0,0.1l-0.2-0.2c-0.4-0.1-0.4,1-1-1.3l1,1.3c0,0,0.1,0.1,0.2,0.1
	c-0.7-4.3-3.2-8.5-3.6-11.7c0.4,0.7,0.2-1.9,0.3-2.4l-1.9-5.1c0.8,2,1.3,1.8,2,2.1c-0.5-1.8-1-2.5-1.4-3.7c0.4,0.7,0.8,1.4,0.8,0.4
	l-2.4-5.7c0,0.4,0.1,1.1,0.2,1.7c-0.4-1.5-1.5-4.7-1.5-6.9c0.3,0.1,0.6,0.8,0.9,0.9c-0.2,1.9,0.6,2.8,1.2,3.7
	c-1.1-4.1-0.1-1.1-0.1-3.2c-0.7-2.9-1.8-3.9-2.1-3c-0.5-3.3-0.6-4.4-2-7.7l0.9,0.4l-0.9-3l1.5,2.3c-0.8-6-1.6-0.8-2.7-7.5l0.7-0.2
	c-0.8-2.5-2.2-3.1-1.7-5.3c-0.9-2.4-0.1,4.4-1.5-1.3c0.1-1.1,0-3.4-0.2-5.1c-0.6-1.6-0.6,0.8-0.3,2.2c-1.9-8.1,1.4-5.6-1.1-13
	c0,2.8-1.8-2-0.5,4.4c-0.5-1.5-0.6-3-0.7-4.6c-0.1-1.6-0.2-3.1-0.9-4.6l1.3,1.9c-0.2-1.1-0.8-2.3-1-3l0.8,0.1
	c-2-3.7-0.8-7.4-2.8-9.4c1.6,1.4-0.6-2.9-0.4-4.6c1.5,3.1,1.7,9.2,2.9,9.5c0.1-1.6-0.7-2.8-0.7-4.3c-0.3-0.9-0.5-1.4,0-0.3
	c0,0.1,0,0.2,0,0.3c0.4,1,0.9,2.4,1.2,2.7c-0.2-5.1-2.1-7.6-3-10.6l1.2,5.2c-1.2-0.2-0.6-2.3-1.8-3.7c0.1-2.8-1.1-4.7-1.1-6.9
	c0.1,0.5,0.2,0.6,0.2,1c-0.9-5.7,0.7-7.6,0.4-9.8c-0.2-2.3-1.5-6.5-1.8-4.9c-0.6-1.8,1.6,7.7-0.5,4.6c0.6-1.8,0.2-3.5-0.4-5.6
	c-0.3-1.1-0.6-2.3-0.9-3.7c-0.2-1.4-0.4-3-0.3-4.9c1,3.1,0.8-2,1.6,0.8c-0.6-3.5-0.9-3.5-1.6-5l0.4-1.1c-1.8-4.4-1.2-0.9-2.8-7.7
	c0.7,2.2,0.4-2.8,1.1-1.1c-0.2-1.9-0.7-3.7-1.1-5.1l0.1,0.2c-1-6.9,0.1-5.8-1.1-12l-0.3,0.7c-0.4-2-0.8-4.3-1.1-6.5
	c-0.3-2.3-0.6-4.6-0.7-7c-0.3-4.8-0.6-9.5-1.1-13.8l-0.1,2.8c0-1.4-0.9-5.7-0.5-8.2c0-0.3-0.1-0.5,0.1-0.4c0,0.1,0,0.3-0.1,0.4
	c0.1,0.5,0.3,1.5,0.2,2c0.4-0.1,0.9-1.2,0.8-3.2l-0.6-0.8l0.4-0.8c-0.1-3.2-0.8,1-0.9-2.2c1.6-1.9-0.1-13.7,1.3-16.4
	c-1.2-2.1,0,6-1.2,3.6c0.2-1,0.4-1.4,0.4-3.5l-0.7,0.7c0-1.2,0.1-2.3,0.1-3.3c0.1-1,0.1-2,0.2-2.9c0.1-1.8,0.3-3.5,0.4-5
	c0.2-3.2,0.4-6.2,0.4-10.5l0.1,0.3c0.3-3,0.2-4.7-0.3-6c0.4-0.6,0.4,1.6,0.8,0.4c-1.5-5.4,1.9-10.6,0.9-13.9
	c1.4,0.5,3.2-6.3,4.1-3.4l-0.1-2.2c0.9,0.8-0.4,6.8,0.5,8.1l-1.4,6.8c0.4-0.2,0.8,0.9,1-0.2c0.1-0.8,0.1-1.7,0.1-2.2
	c0,1.2,0,1.8-0.1,2.2c-0.1,1.7-0.1,3.2,0.5,1c-0.9,4-1.2,8.2-1.4,12.3c-0.2,4.1-0.2,8.3-0.2,12.4c0,2.1,0.1,4.1,0.1,6.2
	c0.1,2.1,0.1,4.1,0.2,6.2c0.1,4.1,0.1,8.2-0.1,12.2c0.1,1.1,0.4,0.5,0.6,0c-0.8,3,0.6,2.8,0.9,4.4l-1.1,4.4c0.5,1.7,0.8,0.3,1.1,0.5
	c0.4,4.1,0.4,8.2,0.4,12c0,3.9,0.4,7.5,1.1,10.8c-0.3,2.2-1.1-0.4-1,2.4c1-3.8,1.4,7.5,2.1,5.7c-0.5,1.4-0.4,3.8-0.3,5.8
	c0.1,2,0.1,3.6-1,3.1c0.3,3.3,1.2,2.7,1.3,1.7c0.4,3.9,0.8,7,1.8,10.1c-0.1,1.1,0.6,5.5,1.2,10c0.7,4.4,1.3,8.9,0.9,10.9
	c0.5-2,0.5,0.4,1.2,2.5l0.5-2.2l0.7,5.1c0.2,1,0.2,1.3,0.2,1.3c0.1,0.9-0.5-0.1-0.4,2.1c0.5,3.5,1.1,3.5,1.8,5.3l0-0.5l0.5,2.3
	c0.3,1.7-2-5.9-1.4-0.2c0.2,0,2,3.1,1.6,4.7c-0.5-2.9-1-2.4-1.1-1.3l0.7,4l0.8-1.5c1.9,11.5,3.8,23.5,6.4,35.7
	c-1,0.1,1.9,8.6,0.3,7.8l0-0.5c-0.8-2.9-0.9,1.1-0.2,3.5c-0.1-2.7,2.4,4.2,1.2-2l1.7,4.6c1.6,1,2.3,4.2,2.9,8
	c0.6,3.8,1.2,8.2,2.5,11.7c-0.2-0.5-0.4-0.6-0.5-0.6c2.4,6.2,2.8,14.5,3.7,15.9l-0.6,0.8c2.5,5.2,2.8,5.8,4.1,12.4
	c-0.1-0.1-0.5-0.8-0.4,0.3c1,1.4,1.9,2.9,2.9,7.3l-0.3-0.1l2,6.9c-2.2,0.6,4.6,11.5,2.8,14.3c1,1.2,2.6,6.2,3.6,8.4
	c0.1-0.1,0.3,0.2,0.7,1c-0.1,0.2-0.4-0.2-0.7-1c-0.1,0-0.1,0.2-0.1,0.6c1.9,2.3,1.8,7.8,2.8,10.7c0.8,1.8,1,0.9,1.1-0.1
	c0.1,4.1,4.1,10.2,4.1,11.7c0.7,2.8-0.6,1.3-0.8,2.2c1.4,4.1,1.8-1.3,2.5,4.5c-0.3-0.6-0.7-1.8-0.7-1.3c0.4,2.2-1,6.7,0.1,8.7v-1.5
	c1.7,3.7,0.9,9.7,2.5,9.8l0.6-0.6c1,6.9,1.1,2.7,2.2,9.7l-0.1,0c1,2.9,0.6,4.8,2.1,5.9l-0.1-1.1c1.1,3.6,1.1,4,2.2,7.7
	c0.2,0.4,0.9,2.1,0.8,2.7c1-0.1,2.9,8.5,3.4,10.2c-1-2.9-1-1.4-1.1-0.5c1.3,1.5,1.7,2.7,1.8,5.3c1.3,0,2.6,0.2,4.1,4.9
	c-0.4-0.7-0.8-1.8-0.9-1.3c-0.1,0.5,0.5,1.6,0.7,1.9c-0.1,0.5-0.7-0.9-1-0.3c2,2.9,1.7,5.5,3.4,10.1c-0.8-1.4-0.6,0-0.9,0.6
	c1.4,0,0.7,6.7,1.9,4.4c1.5,9.4,6.4,23.2,6.3,27.1c-0.2,1.1,1.3,3.4,1.7,5l-0.6-0.1c2.2,4.2,1.3,3.4,3.8,8.3c-1.3-2-1.3-1-1.3,1.3
	l2.2,3.3l-0.7,0.9c0.7,1.4,1,3,1.3,4.7c1.4,1.2,2.7,6.8,3.5,7.6c-0.8,1.9,1.4,4.3,0.6,5.7c0.3,0.5,0.6,1.1,0.9,1.8
	c0.3-0.9,0.8-1.3,1,0.2c0,0.1,0.1,0.2,0.1,0.3l0.5-0.7c0.6-0.4,0.3,1.9,0.2,3.9c0.1,0.7,0.1,1.3,0.1,1.9c0.1,0.2,0.1,0.4,0.1,0.5
	c0-0.1-0.1-0.2-0.1-0.3c0.1,1,0.2,1.9,0.8,3.2c0.2,5.5,4.4,11.2,4.2,17.4c-0.1-0.9-0.2-2.2-0.6-2.4c1.1,4.8,1.2,9.9,2.5,12.8
	l0.6-0.4c1.1,3.5,1.9,6.2,2.5,9h0.8c0.6,4.2,3.6,12.9,2.6,15.8c0.8,0.9,1,5.8,1.7,8.1l-0.5,0.7c0.4,3.2,0.9,5,1.4,6.8
	c0-0.3,0-0.6,0-0.9c0.7,1.5,0.9,3.2,0.9,4.7c0.2,1.1,0.3,2.5,0.3,4.1c-0.6-0.4-0.4-2.1-0.3-4.1c-0.2-1.4-0.5-2.6-0.9-3.8
	c-0.1,6.5,2.2,12.1,3,17.7l-0.1,0.1l1.3,5.6c-0.1-0.2-0.2-0.3-0.2-0.4c0.1,0.2,0.8,1.9,0.9,3.1c0.6,1.7,0.9,4.7,0.8,6.8l0.5,3.6
	c-1-3.9-0.8,0.4-1.4,0.7c0.3,0.7,0.6,1.5,0.9,2.2c-0.2,1-0.7-1.4-0.6,0.3c0.6,1.5,1.1,6,2,7.4c0.1-0.2,0.2-0.8,0.3-1.5
	c0,0,0-0.1,0-0.1c0,0,0,0,0,0.1c0-0.1,0-0.1,0-0.2c0-0.8,0-1.3,0-1.6c0-0.6-0.1-1.3-0.2-2c0.1,0.8,0.2,1.3,0.2,1.7
	c0.1,0.2,0.2,1.2,0,0c0-0.1-0.1,0.1-0.1,0.3c0,0.6,0,1.1,0,1.6v0.2c0.1,0.2,0.2,0.5,0.3,0.6c0-0.3-0.1-0.7-0.1-1.1
	c0.2,1.1,0.2,1.2,0.1,1.1c0.2,2.9,0.4,1.8,0.6,1.7c-0.6,3.4,0.3,5.1-0.6,7.7c1-3.5,0.9,7.4,2,5.2c-0.8,2.6,0.1,1.7-0.6,3.3
	c0-3.4-1.5-6.7-2.3-9.4l-0.3,2.8c-1.4-1.6-0.3-6.1-0.9-7.6c0.4,1,0.4,3.2,0.2,3.6l0.8-0.8c-0.1-3.9-1.2-6.8-2-9.5
	c0,2.6-0.9-3-1.4-1.1l0.4,2C2438.3,1428.8,2437.8,1426.8,2437.4,1425.8L2437.4,1425.8z M2424.1,1350.7l1.7,0.4l-1.5,0.4
	L2424.1,1350.7L2424.1,1350.7z M2442.3,1446.1c0,0.1,0,0.2,0,0.3c-0.3-1.8-0.7-3.5-0.1-3.8
	C2442.7,1444.6,2443.2,1446.5,2442.3,1446.1L2442.3,1446.1z M2442.6,1448.6c0-0.6-0.1-1.2-0.2-1.7
	C2442.6,1447.9,2442.9,1448.7,2442.6,1448.6z M2439.7,1440.4l-0.2-3l0.2,2.1L2439.7,1440.4L2439.7,1440.4z M2439.6,1433.5
	c-0.1-0.4-0.2-0.8-0.4-0.8l-0.2-3C2439.3,1429.6,2439.4,1431.7,2439.6,1433.5c0.2,0.8,0.3,1.8,0.4,2.3
	C2439.9,1435.3,2439.7,1434.4,2439.6,1433.5z M2440.6,1433.6c-0.1-0.2-0.2-0.4-0.4-0.4C2440.3,1433.2,2440.5,1433.3,2440.6,1433.6z
	 M2440.3,1442.7l0.7,1l-0.7,0.8L2440.3,1442.7z M2442.3,1464.6c-0.1-0.4-0.1-0.8-0.2-1.2c0-1.7,0.4-0.6,0.5,1.1L2442.3,1464.6z
	 M2441.7,1458.8c0.4-2.8-0.4-5.8-1.1-6c0.1-0.9,0.4,0.2,0.6,0.2l-0.7-3.1c1-0.9,1.9,5.1,2.5,3.6c-0.1,1.8-0.7,1.2-0.1,4.8
	c0.8,2.2,0.7-2.9,0.9-3.9c0.6,2.7,0.9,2.7,1.1,2.7c0-0.1,0.1-0.2,0.1-0.2l0,0.3c0.2,0.1,0.5,0.5,0.9,2.3c-0.3,1.7-0.4,2.7-0.4,4
	l0.8,5.3c0,0,0-0.1,0-0.1c0.1-0.8,0.1-1.4,0.2-2.1c0.2,0.2,0,1.4-0.2,2.1c-0.1,0.9-0.1,1.8-0.1,2.8c0.1,1.5,0.2,2.8,0.6,4
	c0.1,1.7-0.3,1-0.5,0.8c0.1,1,0.1,1.9,0.3,2.8c0.2,0.5,0.4,0.9,0.5,1.6c0.1-0.2,0.1-0.2,0.1,0.2c0-0.1,0-0.1-0.1-0.2
	c-0.1,0.1-0.1,0.2-0.1,0.4c0,0.1,0,0.2,0.1,0.3c-0.1,0-0.1-0.1-0.1-0.3c-0.1-0.6-0.2-1.2-0.3-2c-0.2-0.7-0.4-1.4-0.4-2.6
	c-0.1-0.4,0-0.4,0.1-0.3c-0.1-1.6-0.1-3.2-0.1-4.8c-0.1-0.9-0.2-1.8-0.3-2.9c-0.1,3.9-1.1-2.9-0.6,2.4c-0.4-1.9-0.8-0.9-1.1-4.2
	c0.5-1.7,1.1,1,1.8,1.8c-0.3-2.5-0.4-3.9-0.5-5.1l-0.2-1.1l0.1,0.4l-0.4-5.6c0,0-0.1,0-0.1,0
	C2444.2,1459.5,2442.5,1461.4,2441.7,1458.8L2441.7,1458.8z M2444.7,1476.4l0.6,4.4c-0.3-0.3-0.6,0.3-0.7-2.3l-0.3,0.1
	L2444.7,1476.4L2444.7,1476.4z M2444.5,1495.3c0,0-0.1,0-0.1,0.2C2444.3,1494.9,2444.4,1495,2444.5,1495.3c0.2-0.1,0.4,1,0.5-0.1
	c0.1-1.3-0.2-1.6-0.3-2c0.5-1.3,0.9-1.9,1.3-2.5c0.1-0.2,0.1-0.3,0.1-0.2c-0.1,0.1-0.1,0.1-0.1,0.2c-0.2,0.7-0.7,2.7-0.8,4.4
	l0.1,0.4C2445,1498,2444.7,1496.1,2444.5,1495.3L2444.5,1495.3z M2445.4,1527.5l-0.3-1.5l0.3-1.8
	C2445.8,1524.1,2445.3,1526.8,2445.4,1527.5z M2446,1542.2l-0.2-2.4l0.5,2.7L2446,1542.2z M2446.3,1560.5c-0.2,0,0.6-0.9,0.6,0.9
	C2446.8,1561.3,2446.1,1561.6,2446.3,1560.5z M2448,1516.2c-0.2,0.2-0.3-0.8-0.5-3.1c0.4,2.4,0.5,0.7,0.7-0.7
	C2448.4,1514.8,2448.2,1516.1,2448,1516.2L2448,1516.2z M2448.2,1509.6c-0.7-0.8-0.3-0.8-0.1-1.2l-0.2-1.2c0.3,0.7,0.3,1,0.2,1.2
	l0.4,2.6C2448.2,1509.9,2447.8,1509.4,2448.2,1509.6L2448.2,1509.6z M2449,1517.8c0,0.1-0.1,0.2-0.1,0.4c-0.1-4.1-0.2-1.6,0.2-2.1
	C2449,1516.9,2449,1517.4,2449,1517.8C2449.3,1516.6,2449,1519.6,2449,1517.8L2449,1517.8z M2449.1,1511.8l-0.4-2.4
	c0.4-1.4,0.6-1.9,0.9,0.5C2449.3,1509.2,2449.3,1511.3,2449.1,1511.8L2449.1,1511.8z M2537.2,2085.8c0,0-0.1,0-0.1,0
	c0.8-0.1,1.6-0.3,1.6,0.3C2537.9,2086.4,2537,2086.6,2537.2,2085.8z M2538.4,2084.9l-0.3-0.8l0.8,0.2L2538.4,2084.9z M2540.3,2084.1
	l-0.4-0.2l1.3,0.3L2540.3,2084.1L2540.3,2084.1z M2543,2084.9c-0.3,0.1-0.8,0.1-1.1,0.1C2542.1,2084.9,2542.5,2084.9,2543,2084.9
	c0.2-0.1,0.4-0.1,0.4-0.2l1.3,0.3C2544.7,2085.2,2543.8,2085,2543,2084.9L2543,2084.9z M2555.2,2084.4c-0.2-0.3-0.2-0.4-0.6-0.6
	l0.7-0.3L2555.2,2084.4L2555.2,2084.4z M2560.3,2086.2l-1.5,0c-0.2-0.3,0.4-0.3,0.7-0.4C2560.1,2085.7,2560.4,2085.9,2560.3,2086.2z
	 M2559.2,2083.3c1.8,0.2-0.2,0.4-0.3,0.6C2557.6,2083.5,2559.1,2083.5,2559.2,2083.3z M2579.8,2089.8l0.2-1.5l0.4,0.1L2579.8,2089.8
	z M2598.7,2089.9c-0.1,0.1-0.2,0.1-0.6,0.1C2598.4,2090,2598.5,2090,2598.7,2089.9c0.5-0.2-1.1-0.6-0.7-0.9c1.4,0.8,0.4-0.8,2.1,0
	C2600.3,2090.2,2599.8,2089.8,2598.7,2089.9L2598.7,2089.9z M2612.5,2095.7l-0.1-2c0,0-0.1-0.1-0.1-0.1h0.1v0.1c0.6,0.3,1,0.6,2,0.1
	L2612.5,2095.7L2612.5,2095.7z M2623.6,2098.5c0.2,0.1,0.5,0.1,0.7,0.1C2624.1,2098.8,2623.9,2098.7,2623.6,2098.5z M2664.2,2112
	l0.2-0.2l0.6,0.9C2664.4,2112.4,2664.2,2112.3,2664.2,2112L2664.2,2112z M2677.4,2120.1l0-1l0.2,0.1L2677.4,2120.1L2677.4,2120.1z
	 M2688,2123.7c0.4,0.2,0.9,0.3,1.2,0.6C2688.9,2125.2,2688.9,2124.2,2688,2123.7z M2704.5,1966.5l0.4,0l0.3,0.8L2704.5,1966.5z
	 M2707.5,1967.1l-1,0.4l0.3-1C2706.8,1966.8,2707.3,1967,2707.5,1967.1L2707.5,1967.1z M2637,1885.6c-0.4,0.8-0.4,0-1-0.5
	C2636.4,1885.3,2636.8,1885.4,2637,1885.6z M2626.9,1880.8l0.2,0.1l-0.2,0.8L2626.9,1880.8L2626.9,1880.8z M2616.1,1874l0.4,0.8
	c-0.4-0.2-0.6-0.4-0.6-0.7L2616.1,1874L2616.1,1874z M2562.9,1847.7c0.9,1.1,0.6-0.6,1.7,0.4c-0.1,1.1-0.4,0.7-1.4,0.6
	c-0.1,0-0.2,0-0.5,0c0.2,0,0.3,0,0.5,0C2563.7,1848.5,2562.5,1847.8,2562.9,1847.7L2562.9,1847.7z M2534.8,1830.7
	c1.2,0.9-0.3,0.3-0.6,0.4C2533.5,1830.2,2534.5,1830.8,2534.8,1830.7z M2533.7,1832.9c0.4,0.2,0.6,0.5,0.4,0.6
	c-0.4-0.2-0.8-0.4-1.1-0.6C2532.9,1832.6,2533.3,1832.8,2533.7,1832.9L2533.7,1832.9z M2532,1829l-0.6,0.7c0-0.3,0.1-0.4,0-0.8
	L2532,1829L2532,1829z M2522.6,1823.8c0.2,0.1,0.3,0.1,0.4,0l0.7,0.9C2523.6,1825,2523.1,1824.3,2522.6,1823.8
	c-0.3-0.1-0.6-0.4-0.7-0.6C2522.1,1823.3,2522.4,1823.6,2522.6,1823.8L2522.6,1823.8z M2522.3,1824.3c-0.1,0.1-0.2,0.1-0.3,0.1
	C2522.1,1824.4,2522.2,1824.4,2522.3,1824.3z M2522,1822.3l-0.5-0.6l-0.1-0.3L2522,1822.3L2522,1822.3z M2520.1,1820.4l0.3,0.6
	l-0.7,0.1L2520.1,1820.4L2520.1,1820.4z M2519.1,1822.2c-0.7-0.4-1.5-0.7-0.7-1.2c0,0,0,0-0.1,0
	C2518.9,1821.4,2519.5,1821.7,2519.1,1822.2L2519.1,1822.2z M2517.7,1820.4c0.1,0.2,0.3,0.3,0.5,0.5
	C2517.8,1820.6,2517.4,1820.6,2517.7,1820.4z M2514.9,1814.6c0.2,0.1,0.2,0.2,0.4,0.3c0.3,0.6-0.2,0.4-0.6-0.1L2514.9,1814.6
	L2514.9,1814.6z M2510.6,1811.1l0.2-0.2l0.1,1l-1.3-1.2C2509.9,1810.7,2510.1,1810.3,2510.6,1811.1L2510.6,1811.1z M2507.7,1805.3
	c0,0,0.1-0.1,0.1-0.1C2507.9,1805.3,2507.9,1805.3,2507.7,1805.3c-0.2,0.1-0.5-0.2-0.4,0.3c0.2,0.4,0.5,0.4,0.6,0.5
	c-0.2,0.7-0.4,1.1-0.7,1.6c0.1-0.4,0.1-1.3-0.1-1.9l-0.1-0.1C2506.8,1804.7,2507.4,1805.1,2507.7,1805.3L2507.7,1805.3z
	 M2507.9,1813.3c0.2,0.9,0.5,1.4,1.1,1.8c0.4,0.2,0.7,0.3,0.9,0.4c-0.4-0.1-0.7-0.2-0.9-0.4c-0.6-0.2-1.3-0.5-1.8-1.1
	C2507.7,1814.2,2507.3,1813.2,2507.9,1813.3z M2507.2,1807.8l0.1-0.1C2507.2,1807.7,2507.2,1807.8,2507.2,1807.8z M2506.7,1808.3
	l0.4,0.3l-0.3,0L2506.7,1808.3l-1-0.8c0.3,0.2,0.4-0.2,0.5-0.2L2506.7,1808.3z M2506.3,1809.2
	C2506.4,1809.2,2506.4,1809.2,2506.3,1809.2c0.1,0.2,0.2,0.3,0.2,0.4l0,0c0.2,0.3,0.3,0.5,0.4,0.6c-0.1-0.1-0.2-0.3-0.4-0.6
	l-0.3,0.7C2506,1809.7,2506.3,1809.4,2506.3,1809.2C2506.3,1809.2,2506.3,1809.2,2506.3,1809.2L2506.3,1809.2z M2506,1804.9
	c0.2,1.3-0.8,0.5-1.4,0.1C2505.5,1805.6,2505.4,1804.8,2506,1804.9z M2502.2,1802.6l0.4,0.3
	C2502.2,1802.8,2502.2,1802.7,2502.2,1802.6l-0.8-0.8c0.4,0.3,0.8,0.3,0.4,0.4C2502.6,1802.2,2502.3,1802.4,2502.2,1802.6z
	 M2501.6,1795.2l0,0.8c-0.3,0.2-0.2-1-0.5-1.2L2501.6,1795.2L2501.6,1795.2z M2501.9,1800.6c-0.8-0.6-0.6,0-0.5,0.6
	C2500.4,1799.7,2500.9,1799.1,2501.9,1800.6z M2500.7,1801.9l0.8,0.7c-0.1,0.7-0.2,1-0.9,0.2
	C2501,1802.9,2500.6,1802.1,2500.7,1801.9z M2500.5,1796.1c-0.1-1.1-1.4-2.6-2.1-3.8l1,0.2l-0.1,0.3
	C2499.4,1793.9,2501.2,1795.1,2500.5,1796.1L2500.5,1796.1z M2500.3,1800.2c-0.1,0-0.2-0.1-0.3,0.1c-0.1-0.3-0.2-0.5-0.3-0.6
	c-0.1,0.6-0.4-0.6,0,0c0-0.1,0-0.1,0-0.2C2500.1,1800,2500.2,1800.1,2500.3,1800.2L2500.3,1800.2z M2487.2,2093.3
	c0.1-0.1-0.2-0.7,0.2-0.7C2487.4,2092.4,2488,2093,2487.2,2093.3z M2493.5,1783.4c0.1,0,0.7-0.3,0.8,0.1
	C2494.4,1783.5,2493.9,1784.1,2493.5,1783.4z M2494.9,2089.8l0.1-0.3l1-0.6L2494.9,2089.8L2494.9,2089.8z M2497.9,1789.9l0.7,0.7
	c-0.3-0.2-0.7-0.5-1-0.8L2497.9,1789.9L2497.9,1789.9z M2497.7,2089.5l0.5-0.9l0.2,0.2c1.4,0.2,3.2-1.3,4.1-0.4
	C2501.3,2088.3,2499.2,2089.1,2497.7,2089.5L2497.7,2089.5z M2501.2,2087.5l0.6-0.4l0.8,0.2
	C2502.7,2087.6,2501.5,2087.3,2501.2,2087.5L2501.2,2087.5z M2502.2,1801.4l1.5,1.1l0.2,0.3L2502.2,1801.4L2502.2,1801.4z
	 M2504.1,1807.9c0.3-0.2,0-0.9,0-1.3l0.6,0.4c0.2-0.2,0.4-0.2,0.9,0.7l-0.9-0.7C2504.4,1807.3,2504.3,1807.8,2504.1,1807.9
	L2504.1,1807.9z M2506.2,1811.2l0.5,0.2l-1.3-0.4L2506.2,1811.2z M2506.7,2090.1c-0.4,0-0.6,0.1-0.8,0.1c0.6,0.3-0.8,0.1,0,0
	c-0.1,0-0.1,0-0.2-0.1c0.7-0.2,0.9-0.3,1-0.3C2506.7,2089.9,2506.5,2090,2506.7,2090.1L2506.7,2090.1z M2507.7,2088.5
	c-1,0.5-0.2,0.5,0.4,0.7C2506.2,2089.6,2505.8,2088.9,2507.7,2088.5z M2509.3,2090.4c0.3-0.2-0.6-0.2-0.8-0.4l1-0.5
	C2510.1,2089.9,2510.4,2090.1,2509.3,2090.4L2509.3,2090.4z M2509.9,2088.9l-1.1,0.4c0.4-0.3,0.6-0.6,0.6-0.3
	C2509.6,2088.4,2509.7,2088.7,2509.9,2088.9l0.5-0.2C2510.1,2089,2510,2089,2509.9,2088.9L2509.9,2088.9z M2508.6,2088.5l1.8-1
	l0.4-0.1L2508.6,2088.5L2508.6,2088.5z M2512.5,1817.1l-1.6-1.4v0.1c0.1,0.3,0.2,0.6,0.3,0.8c-0.2,0-0.3-0.5-0.3-0.8
	c-0.1-0.3-0.2-0.7-0.4-1.1c-0.4-0.4-0.7-0.8-1.2-1.1c-0.4-0.5,0-0.5,0.2-0.6c-0.2-0.3-0.5-0.6-0.8-0.8c-0.2-0.1-0.5-0.1-0.7-0.3
	c-0.1,0.1-0.1,0.2-0.1,0l0.1,0c0-0.1,0.1-0.2,0.1-0.2l-0.1-0.1c0.1-0.1,0.1,0,0.1,0.1c0.2,0.1,0.4,0.3,0.6,0.5
	c0.3,0.1,0.6,0.2,0.8,0.7c0.1,0.1,0.1,0.1,0,0.2c0.4,0.5,0.7,1.1,1,1.6c0.2,0.2,0.5,0.6,0.8,0.8c-0.6-1.4,1.4,0.4,0-1.2
	c0.7,0.4,0.8-0.2,1.7,0.8c-0.1,0.9-1,0.3-1.8,0.4C2511.9,1816.3,2512.3,1816.7,2512.5,1817.1l0.3,0.3l-0.2-0.1l1.4,1.7l0.1-0.1
	c0.2-1.4,1.3-3.2,2.3-2.7c0.2,1.2,1.4,1.8,1.9,1.4c0.1,0.4-0.4,0.2-0.5,0.3c0.4,0.2,0.7,0.4,1.1,0.6c-0.6,1-2.4-0.6-2.6,0.4
	c-0.2-0.7,0.3-0.9-0.8-1.7c-1-0.3,0,1.4,0,2c-1-0.6-1.1-0.4-1.4-0.3l0,0.2l-0.1-0.1c-0.2,0.1-0.4,0.1-1.1-0.2
	C2512.8,1818,2512.7,1817.5,2512.5,1817.1L2512.5,1817.1z M2515.2,2084.9c0.3,0,0.2,0.1,0.1,0.1c0.1,0.2-0.4,0.4,0.1,0.5
	c0.6,0,0.7-0.3,0.9-0.4c0.6,0.5,0.9,0.8,1.2,1.3c0.1,0.1,0.1,0.1,0.1,0.1c0-0.1-0.1-0.1-0.1-0.1c-0.3-0.2-1.2-0.7-2-0.8l-0.1,0.1
	c-1.1-0.2-0.3-0.6,0.1-0.8C2515.3,2085,2515.3,2085,2515.2,2084.9L2515.2,2084.9z M2515.1,1821.5l0.5-0.3l0.2,0.5L2515.1,1821.5
	L2515.1,1821.5z M2514,1819.5l0.7,0.4l-1.4-0.2L2514,1819.5z M2513.5,2087.8c1-0.6,0.2-0.9,0.6-1.4
	C2515.5,2086.8,2514.1,2087.4,2513.5,2087.8z M2515.9,2089.5c-0.1-0.3-0.8-0.4-1.2-0.5l0.7-0.3c-0.1-0.2,0.1-0.4,1.1-0.5l-1.1,0.5
	C2515.5,2088.9,2516,2089.3,2515.9,2089.5L2515.9,2089.5z M2518.2,2087.4l-0.4,0c-0.4,0.2-0.9,0.3-1.3,0.5c0.3-0.2,0.1-0.4,0.1-0.6
	c0.4,0,0.8,0,1.2,0.1l0.6-0.2L2518.2,2087.4L2518.2,2087.4z M2518.1,1824.6c0.1,0.1,0.2-0.2,0.3-0.3c0.1,0.3,0.1,0.5,0.5,0.8
	L2518.1,1824.6L2518.1,1824.6z M2518.5,2088.1c0,0-0.1,0-0.1,0C2518.4,2088.1,2518.4,2088.1,2518.5,2088.1h0.4l0,0c0.6,0,0.9,0,1,0
	c-0.1,0-0.5,0-1,0l0.5,0.6C2518.8,2088.6,2518.6,2088.3,2518.5,2088.1L2518.5,2088.1z M2519.6,2089.8l0.6-0.6l0.5-0.3L2519.6,2089.8
	L2519.6,2089.8z M2521.5,1827.1C2521.5,1827.1,2521.5,1827.1,2521.5,1827.1c-0.1,0-0.3,0-0.4,0c0.1,0.1,0.2,0.2,0.3,0.3
	c-0.4-0.2-0.4-0.3-0.3-0.3c-0.7-0.9-0.6-0.4-0.8-0.2c-0.2-1.7-1.2-1.7-1-3.2c-0.1,1.9-2.1-2.1-2.4-0.6c0.1-1.4-0.4-0.5-0.2-1.6
	c0.7,1.2,2.4,1.4,3.4,1.9l-0.3-1.2c1.2-0.3,1.3,1.7,1.9,2.1c-0.4-0.2-0.8-1-0.6-1.1l-0.4,0.8c0.8,1.4,2.2,1.6,3.3,2
	c-0.5-0.9,1.3,0.4,1.2-0.6l-0.7-0.4c-0.1-0.5,0.7-0.2,1.2-0.1c0.7,1.1,1.9,2.3,3.1,3.3c1.2,1,2.2,1.9,2.3,2.4
	c-0.2-0.5-1.1-0.9-1.6-1l0.7,1c-0.8-0.6-0.8-1.7-2.1-2.3c-0.2,0.6-1.5,0.5-1.2,1.8c1.5,2.4,2.7,0.2,5,2.5c0.3,0.1-1.1,0.3,0.4,1.2
	c2.1,0.9,4.1,0.8,4.9-0.2c-0.9-0.2-2.8-0.8-2.5-1.6c0.9,0.2,2.3,1,2.7,0.6c0.1,1.4-1.5-0.8-1.1,0.7c0.5,0.4,0.9,0.2,1.3,0.3
	c-0.6,0.1,0,0.9,0,1.2c1.6,1.2,2.3,2.3,4.1,3.6c0-0.1,0-0.2,0,0l0,0c0,0.2,0,0.6-0.2,0.8c1.1,0.4,3.2-0.1,3.2-0.8
	c1.1,0.7,0.8,1.1,1.9,1.5c-0.9-1.7,0.2,0.3,0.9-0.4c1,0.5,0.1,0.6,0.3,1.1c0.2,0,0.8-0.1,0.9-0.3c0-0.2-0.1-0.4-0.3-0.6
	c0.4,0.3,0.4,0.5,0.3,0.6c0.1,1-2.2,1-2,2.2c0.1,0.8,1.6,2.9,1.7,3.1c0.9-0.4,2.7-3.5,2.6-4.9c0.4-0.4,0.5,1.1,0.9,1.4
	c0.6,1.6,2.2,0.5,2.9,1.4h-1c0.1,0.3,1.6,0.9,2.1,0.8c-0.1,0.3-1.6,1-1.4,1.6c1.7,1.2,4.3,0.6,4.7-0.3l-3.2-0.7
	c0.3-0.8,2.4,0.4,2.8-0.5c0.8,0.6,1.5,1.2,2.3,1.7c-0.3-0.2-1.4-0.5-1.3,0.1c1.1,0.6,0.5,0.4,1,1.2c-1.8,0.2-5.4,1.2-6.9,1.8
	l1.6,0.3l0.1,0.6c2,0.5,5.3-1.5,6.1-2c0.9,0.8-0.4,2.1-0.8,2.3c1.9,1.2,3.2-1.1,5,0.2l-0.5-0.8c0.5,0.1,2,1.3,2,1
	c0.1,0.6,0,1.8-0.6,1.8l2.5-0.5c-0.3,0.2-0.8,1.4-1,1.5c0.7,0.4,2-0.8,1.7-1.3c0.9,1.7,0.8,1,1.3,2.7c0.4,0.1,0.7-1.4,0.5-1.7
	c1.1,0.2,1.6,0.6,1.9,1c0,0,0,0,0.1,0l0,0.1c0.4,0.4,0.7,0.7,1.7,0.3l-2.1,1.6l0.4-1.9l0-0.1c-1.8-0.3-1.9,2.6-2.8,3.4l5.3-2
	c-0.2,0.2-1.1,1.2-1.2,1.4c0.9-1,4.7,0.9,6.5,2l-0.3-0.1c-0.4,0.2,0.3,0.9,1.1,1.2c0,0,0,0,0,0c0.2,0.1,0.4,0.1,0.6,0.1
	c-0.2,0.2-0.3,0-0.6-0.1c0.8,1.5,2.5-0.9,3.2,0.8c-1.1-0.7-1.5-0.4-1.7,0.1c1.1,0.1,3.1,1.7,3.3,0.1c0.4,0.6,1.1,0.7,0.7,1.3
	l2.7,0.4c-0.2,0.1-0.6,0.4,0,0.8c-1.2-0.8-3.1-0.2-3.3-1.4c-0.5,0.8-0.2,1.5-1.2,1.9c2.7,0.9,4.8,0.2,6.8,0l1.9,1.7l0.3-0.3
	l-0.1,1.2c0.4-0.1,0.7-0.2,0.7-0.1c0,0.1-0.1,0.2-0.3,0.3c0.2,0.1,0.5,0.1,0.7,0.1c0-0.1,0.1-0.3,0.1-0.4c0.2,0.2,0.1,0.4-0.1,0.4
	c-0.2,0.5-0.9,0.9-1.5,1.2c0.1,0.1,0.1,0.2,0.1,0.3c1.4-0.1,2.9-0.2,2.4-1.3l-0.7-0.8c0.3,0.3,0.5,0.6,0.7,0.8l1,1.2
	c2-0.2,1.6-0.1,3.8,0.1c-0.1,0.4-0.7,0.4-0.5,0.8c1.9-0.4,2.6,2.9,3.4,2.1c1.2,0.3,0.9-0.6,1.7-0.5c-0.1,0.1-0.2,0.2-0.1,0.4
	l1.2-0.3c0.2,0.4-1,0.1-0.2,0.8c1.8,0.3,2.9,0.5,4.1,1.5c1.9,0.8-0.1-1.8,1.4-0.8c-0.1,0.7-0.2,1.4,0.7,2c0.7-0.1,0.9-0.6,1.9-0.3
	l-0.5,0.8c0.8,0.4,1.6,0.6,1.2,1.2c0.9,0,1.3,0.3,1.6,0.6c1.5,0.2,0-2.2-0.1-2.7c0.9,1.3,1.9,1.4,2,2.8l-1.2-0.4
	c1.7,2.3,2.8,0,2.9,2.3c-0.8-0.5-1.9-0.6-1.7,0.2l1.4,0.2c0,0.3-0.7-0.2-0.4,0.3c0.4,0,1.3-0.1,1.8-0.2l0.2-0.2
	c0.1,0.1,0,0.2-0.2,0.2l-0.1,0.1l1.9,0.9c-0.3-0.1-0.4,0.1-0.1,0.3l1.6,0.3c0.1,0,0.3,0,0.5,0.1l-0.5-0.1c-0.5,0-0.2,0.5,0.2,0.9
	c1.6,1.2,2.5-1.1,3.3,0.5c-0.2-0.1-0.3,0-0.4-0.2l0.4,0.8c1.2-1.7,4.1,2.2,5.3,0.6c0.5,1.3-0.2,0.5-1.9,0.5l0.7,1.1
	c-0.4-0.2-0.7-0.5-1.3-0.6c0.9,1.5,2.7,1.4,3.7,1.4c0.3,0.6-1.2,1.1,0.4,1.7c2.2,1,0.4-1.5,1.8-0.9l0.3,1.4c2,0.3,2.8,1.7,4,2.7
	c0.3,0.1,0.6,0.1,0.7,0.1l-0.1-0.1l0.2,0c0.2-0.2,0.1-0.7,0.9-0.2l-0.9,0.2c0,0-0.1,0.1-0.1,0.1c1.1,1.3,3.5,1.1,4.3,2.1
	c-0.4,0,0.2,0.9,0.2,1.2l2.2,0.8c-1-0.4-1.3,0.2-1.8,0.5c0.6,0.4,1.1,0.3,1.5,0.5c-0.4,0-0.7,0-0.6,0.4l2.5,0.6
	c-0.1-0.2-0.3-0.4-0.4-0.5c0.5,0.3,1.8,0.8,2.1,1.7c-0.2,0.1-0.6,0.1-0.8,0.3c-0.2-1-0.9-0.8-1.4-0.6c1.4,0.9,0.2,0.4,0.6,1.2
	c0.9,0.7,1.8,0.3,1.9-0.3c0.9,1,1.1,1.4,2.6,1.7l-0.7,0.5l1.1,0.6l-1.4,0.2c1.5,1.9,1.2-0.8,3,1.2l-0.4,0.6c1,0.4,2-0.3,2.1,0.9
	c1,0.3-0.6-1.9,1.2-0.5c0.1,0.6,0.6,1.3,0.9,1.9c0.7,0.2,0.3-0.8-0.1-1.2c2.6,2-0.1,3.2,2.8,4.5c-0.4-1.1,1.6-0.4-0.3-2.1
	c1.2,0.5,1.1,2.3,2.5,2.7l-1.2,0.1c0.3,0.3,0.9,0.4,1.2,0.5l-0.6,0.4c2,0.2,1.6,2.4,3.5,1.9c-1.4,0.5,0.9,0.8,1,1.5
	c-1.6-0.2-2.6-2.6-3.6-1.9c0.2,0.7,1,0.6,1.1,1.3c0.4,0.2,0.6,0.3,0,0.1c0-0.1,0-0.1,0-0.1c-0.4-0.2-1-0.3-1.3-0.3
	c0.9,1.8,2.7,1.6,3.7,2.3c-0.5-0.5-1.1-0.9-1.6-1.3c1-0.7,0.8,0.5,1.9,0.3c0.2,1.2,1.5,1.2,1.8,2.1c-0.1-0.2-0.2-0.1-0.4-0.3
	c1.6,1.7,0.6,3.4,1.1,4.1c0.5,0.7,2,1.7,2,0.8c0.3,0.2-0.2-0.4-0.6-0.9c-0.4-0.5-0.7-1.1,0.3-1.2c-0.5,2.1,2.2,1.7,3.1,4.7
	c-1.3-0.6-0.3,1.2-1.4,0.6c1,1,1.2,0.8,2,1l-0.2,0.7c2.1,0.6,1.1-0.3,3.3,1.4c-0.9-0.5,0,1.3-0.8,1c0.4,0.6,0.9,1.1,1.5,1.4
	l-0.1-0.1c1.8,2.1,0.7,2.2,2.6,3.9l0.1-0.4c2.5,2.1,4.3,5.8,6.4,8.2l-0.4-1c0.2,0.4,1.7,1.5,1.8,2.5c0.1,0.1,0.1,0.1,0,0.2
	c0-0.1,0-0.1,0-0.2c-0.1-0.1-0.4-0.3-0.5-0.5c-0.3,0.2-0.5,0.9-0.1,1.6l0.6-0.1l-0.2,0.5c0.7,1,0.5-0.8,1.1,0.2
	c-0.9,1.6,2.9,4.2,2.4,5.8c1.4-0.1-1.3-1.8,0.1-1.8c0.1,0.4,0,0.6,0.4,1.3l0.4-0.7c1.9,2.9,2.4,4.4,4.7,6.4l-0.2,0
	c0.6,0.9,1.1,1.3,1.9,1.1c0,0.4-0.8,0-0.6,0.5c1.4-0.1,1.9,0.8,2.3,1.7c0.5,0.8,0.9,1.7,1.7,1.5c-1,1.1,0.6,3.7-1,4l0.8,0.3
	c-0.4,0.3-1,0-1.6-0.4s-1.2-0.8-1.7-0.6c-0.6-0.8-1.1-1.6-1.6-2.5c-0.2,0.3-0.8,0.4-0.6,0.8c0.2,0.2,0.4,0.3,0.6,0.4
	c-0.3-0.2-0.5-0.3-0.6-0.4c-0.6-0.4-1.1-0.8-0.7,0.2c-1.9-3-4.1-5.4-6.4-7.8c-2.2-2.4-4.4-4.8-5.7-7.8c-0.3-0.3-0.4,0.1-0.5,0.4
	c0.1-1.5-1-0.6-1.5-1.1l0.1-2.1c-0.7-0.3-0.7,0.3-1,0.4c-2-2.5-2.6-5.8-4.7-7.4c-0.1-0.9,1-0.4,0.5-1.4c-0.3,1.9-2.1-1.9-2.5-1
	c0.5-1.6-1.9-3.2-0.1-4c-0.6-1.1-1.3-0.4-1.2,0.1c-0.8-1.2-1.5-2.2-2.7-2.8c-0.2-0.9-4.5-4.9-4.3-6.8c-0.1,1.3-0.4,0.3-1.3-0.1
	l-0.1,1.2l-1.2-1.5c-0.3-0.2-0.4-0.3-0.3-0.4c-0.2-0.3,0.4-0.3,0-1.1c-0.8-1-1.2-0.7-2-0.9l0.1,0.2l-0.7-0.6c-0.4-0.5,2.3,1,1.1-0.8
	c-0.2,0.1-1.9,0.1-1.9-0.8c0.8,0.8,1.1,0.2,1-0.2l-1.1-1.1l-0.4,1.1c-1.5-1.5-2.9-3.3-4.6-4.9c-1.6-1.6-3.2-3.4-5.1-4.8
	c0.7-0.7-2.6-2.1-1.4-3l0.1,0.2c1,0.6,0.4-1.1-0.4-1.6c0.5,1-2.2,0-0.5,1.7l-1.9-0.6c-2.5,1.6-3.8-3.1-6.6-4.1
	c0.2,0,0.3-0.1,0.4-0.1c-2.6-0.7-4.2-3.8-4.9-3.7l0.2-0.7c-2.4-0.2-2.7-0.3-4.6-2c0.1-0.1,0.5-0.1,0.2-0.4c-0.8,0.1-1.6,0.2-3-0.8
	l0.2-0.2c-0.8-0.5-1.6-0.9-2.4-1.3c1.2-1.9-4.7-1.2-4.2-3.8c-0.8,0.3-2.6-0.5-3.6-0.7c-0.1,0.1-0.2,0.2-0.6,0.1
	c0-0.2,0.2-0.2,0.6-0.1c0.1-0.1,0.1-0.2,0-0.4c-1.5,0.6-2.4-1.8-3.5-2.3c-0.8-0.1-0.7,0.4-0.6,0.9c-0.8-1.6-4.2-1-4.4-1.7
	c-0.9-0.6,0.1-1,0-1.6c-1.5-0.6-0.8,1.9-2.2,0.1c0.3,0.1,0.7,0.2,0.6,0c-0.6-0.6-0.7-3.6-1.7-3.5l0.3,0.6c-1.6-0.2-2.3-3.4-3.3-2.1
	l-0.2,0.7c-1.9-2.1-1.1-0.3-3.1-2.3l0.1-0.1c-1.1-0.4-1.3-1.5-2.3-0.7l0.3,0.3c-1.3-0.6-1.4-0.7-2.7-1.4c-0.2,0-0.9-0.2-1-0.5
	c-0.5,0.8-3.3-1.2-3.8-1.5c1.1,0.4,0.8-0.2,0.7-0.7c-1,0.4-1.4,0.2-2-0.7c-0.7,1-1.4,2-3.1,1.2c0.3,0,0.8,0.1,0.8-0.2
	c-0.1-0.3-0.6-0.3-0.8-0.3c-0.1-0.3,0.6-0.2,0.6-0.7c-1.7,0.4-2-0.9-3.8-1.4c0.7-0.1,0.3-0.5,0.3-1c-0.7,1.1-1.7-2.2-1.9-0.3
	c-2.7-2.6-8.1-4.3-8.9-6c-0.1-0.6-1.4-0.4-1.9-0.7l0.4-0.5c-2.1,0.1-1.4-0.3-3.8-0.3c1.1-0.2,0.9-0.7,0.4-1.6l-1.8,0.4l0.2-0.9
	c-0.7,0-1.2-0.4-1.7-0.8h0c-1,0.6-2.9-0.5-3.5-0.2c0-1.4-1.7-0.6-1.5-1.8c-0.3,0-0.6,0-0.9,0c0,0.6-0.2,1.2-0.6,0.7
	c-0.1,0-0.1,0-0.1-0.1l-0.1,0.7c-0.2,0.6-0.5-0.5-0.9-1.4c-0.2-0.2-0.3-0.4-0.4-0.7c-0.1,0-0.1-0.1-0.2-0.1c0,0,0.1,0,0.1,0
	c-0.2-0.3-0.5-0.6-1.1-0.6c-1.2-2-4.8-1-5.9-3.5c0.2,0.3,0.6,0.6,0.8,0.5c-1.7-0.9-2.8-2.8-4.1-3l-0.3,0.6c-1.4-0.5-2.4-0.9-3.3-1.6
	l-0.5,0.6c-1.3-1.1-4.9-2.1-4.8-4c-0.7,0.2-1.8-1.4-2.7-1.8l0.1-0.6c-0.9-0.9-1.6-1.2-2.3-1.5c0.1,0.1,0.1,0.2,0.2,0.3
	c-0.8,0-1.2-0.6-1.5-1.1c-0.4-0.3-0.7-0.7-1.1-1.3c0.5-0.3,0.6,0.5,1.1,1.3c0.4,0.4,0.9,0.6,1.3,0.8c-1.3-2.5-3.9-2.8-5.5-4.4
	l0.1-0.1l-2-1.1c0.8,0-0.6,0-1-0.5c-0.7-0.2-1.5-1.1-1.9-1.9l-1-1c1.4,0.8,0.5-0.7,0.9-1.3l-1-0.2c-0.1-0.5,0.8,0,0.4-0.6
	c-0.7-0.1-2-1.3-2.9-1.2c-0.1,0.2,0,0.4,0.1,0.7c0.1,0,0.1,0,0,0v0L2521.5,1827.1z M2548.7,1842.8l-1.1,1.2l0.8-1.3L2548.7,1842.8z
	 M2529.1,2084.4l-0.1-0.3c0.2-0.1,0.4,0,0.5-0.1C2530.3,2084.1,2529.8,2084.4,2529.1,2084.4L2529.1,2084.4z M2521.8,1827.7
	c0.1,0.2,0.3,0.4,0.5,0.6c-0.2-0.2-0.4-0.3-0.5-0.4c-0.1,0-0.4-0.3,0,0C2521.9,1827.9,2521.9,1827.8,2521.8,1827.7L2521.8,1827.7z
	 M2522.8,2085.6l-0.1-0.3l1,0.5l-2,0.4C2522,2085.9,2521.7,2085.5,2522.8,2085.6L2522.8,2085.6z M2522.7,1828.7
	c0,0.3,0.5-0.5,0.7-0.1C2525,1829.6,2521.9,1829,2522.7,1828.7z M2521.8,1827.6c-0.1-0.2-0.2-0.3-0.3-0.5
	C2521.7,1827.4,2521.8,1827.5,2521.8,1827.6z M2525.3,2089.1c-0.6,0.4-1.2,0.8-2,0.9c0.5-0.3-0.6-0.5-0.2-1
	C2524,2089.3,2524.7,2089.4,2525.3,2089.1c0.4-0.2,0.7-0.4,1-0.5C2526,2088.9,2525.7,2089,2525.3,2089.1L2525.3,2089.1z
	 M2532.3,2088.6l0.2-0.7l0.9-0.3L2532.3,2088.6z M2533.9,2085.9c-0.8-0.3-0.5-0.8-2.1-0.5c-1,0.5,1.2,1,1.7,1.3
	c-1.2,0.4-1.2,0.6-1.2,0.9l0.1,0.1l-0.1,0c-0.1,0.2-0.2,0.4-1.1,0.7c-0.8-0.5-1.1-0.7-1.7-0.8c-0.8,0.1-1.6,0.2-2.3,0.4
	c0,0,0.1,0,0.1,0.1c0.3,0.1,0.6,0.2,0.9,0.3c-0.1,0.2-0.6-0.2-0.9-0.3c-0.4-0.1-0.8-0.2-1.2-0.2c-0.6,0.1-1.2,0.1-1.7,0.4
	c-0.7,0.1-0.4-0.3-0.4-0.5c-0.4,0-0.9,0.1-1.2,0.2c-0.2,0.1-0.4,0.3-0.7,0.4c0.1,0.1,0.1,0.2-0.1,0l0.1,0c-0.1-0.1-0.1-0.1-0.2-0.2
	c0,0-0.1,0-0.1,0.1c0-0.1,0-0.1,0.1-0.1c0.2-0.1,0.6-0.2,0.9-0.2c0.3-0.2,0.6-0.4,1.1-0.3c0.2-0.1,0.1,0,0.1,0.1
	c0.7-0.1,1.4,0,2.1,0.1c0.4-0.1,0.8-0.1,1.3-0.2c-1.7-0.3,1.3-1-1-0.7c0.9-0.3,0.4-0.8,1.9-0.9c0.7,0.7-0.4,1-0.8,1.6
	c1.1-0.1,1.7-0.1,2.2,0l0.5-0.1l-0.2,0.1l2.4,0.1l0-0.1c-1-1.1-1.8-3-0.6-3.5c1.2,0.6,2.6,0.1,2.7-0.5c0.4,0.2-0.1,0.4-0.1,0.6
	l1.4-0.4C2536,2084.8,2533.3,2085.2,2533.9,2085.9L2533.9,2085.9z M2535,2088.4l0.1-0.6l0.6,0.2L2535,2088.4L2535,2088.4z
	 M2536.1,2085.8c0.2,0,0.5,0,0.8,0C2536.4,2085.9,2536,2086.2,2536.1,2085.8z M2539.8,2088.6c0.2-0.1,0.1-0.2,0-0.4
	c0.3,0.1,0.5,0.3,1,0.3L2539.8,2088.6L2539.8,2088.6z M2546.6,2088.6c0.2,0.2,0.1-0.7,0.5-0.5
	C2549.2,2087.8,2546.1,2089.3,2546.6,2088.6z M2785.5,2198.9l0.4,0.1l0.3,0.8L2785.5,2198.9L2785.5,2198.9z M2787.5,2200.1l0.4-0.9
	c0,0.3,0.5,0.5,0.7,0.6L2787.5,2200.1L2787.5,2200.1z M2849.8,2477.6c0.1,0.1,0.3,0.2,0.5,0.3
	C2849.9,2477.7,2849.5,2477.8,2849.8,2477.6z M2852,2476.9l0.4,0.4l-0.6,0.3L2852,2476.9L2852,2476.9z M2851.4,2478.8
	c-0.7-0.1-1.4-0.2-0.8-0.9c0,0-0.1-0.1-0.1-0.1C2851,2478.2,2851.6,2478.3,2851.4,2478.8L2851.4,2478.8z M2846,2473.2
	c0.2,0,0.2,0.1,0.4,0.1c0.4,0.4-0.1,0.4-0.6,0.2L2846,2473.2L2846,2473.2z M2841.3,2471.7l0.1-0.3l0.4,0.9l-1.4-0.6
	C2840.6,2471.5,2840.6,2471.1,2841.3,2471.7L2841.3,2471.7z M2837,2471.7C2837.1,2471.6,2837.1,2471.6,2837,2471.7
	c0.2,0.1,0.3,0.2,0.4,0.2l0,0c0.2,0.2,0.4,0.3,0.5,0.4c-0.1-0.1-0.3-0.2-0.5-0.4l-0.1,0.7C2837,2472.2,2837.1,2471.9,2837,2471.7
	C2837,2471.7,2837,2471.7,2837,2471.7z M2837,2467.7c0,0,0.1-0.1,0-0.2C2837.2,2467.7,2837.1,2467.7,2837,2467.7
	c-0.1,0.2-0.5,0.1-0.3,0.4c0.3,0.3,0.6,0.1,0.7,0.1c0.1,0.7,0.1,1.1-0.1,1.7c0-0.3-0.3-1.2-0.7-1.7l-0.1,0
	C2836,2467.6,2836.7,2467.7,2837,2467.7L2837,2467.7z M2835.4,2468.2c0.6,1-0.5,0.8-1.1,0.8
	C2835.2,2468.9,2834.9,2468.3,2835.4,2468.2z M2816,2458.1c0.1-0.1,0.4-0.6,0.6-0.4C2816.7,2457.6,2816.6,2458.4,2816,2458.1z
	 M2822.4,2460.3l0.2-0.1l0.9,0.2L2822.4,2460.3L2822.4,2460.3z M2824.1,2461.7l0.9-0.4v0.3c0.6,0.9,2.6,0.8,2.5,2
	C2826.9,2462.8,2825.2,2462.3,2824.1,2461.7z M2827.4,2462.2h0.6l0.3,0.6C2828.2,2463.1,2827.7,2462.2,2827.4,2462.2z
	 M2828.7,2467.2c-0.2-0.2-0.4-0.3-0.5-0.4c0.1,0.5-0.5-0.3,0,0c0-0.1,0-0.1-0.1-0.2C2829.5,2467.3,2828.8,2466.8,2828.7,2467.2
	L2828.7,2467.2z M2830.3,2466.6c-0.9-0.1-0.5,0.3-0.2,0.8C2828.7,2466.6,2829,2465.8,2830.3,2466.6z M2830.1,2468.9
	c0.3,0-0.2-0.4-0.2-0.8l0.9,0.1C2830.9,2468.9,2830.9,2469.2,2830.1,2468.9z M2831.4,2467.9l-0.9-0.2c0.4,0,0.8-0.1,0.5,0.1
	C2831.6,2467.4,2831.4,2467.7,2831.4,2467.9l0.4,0.1C2831.4,2468.2,2831.4,2468.1,2831.4,2467.9L2831.4,2467.9z M2830.9,2467
	l1.7,0.1l0.2,0.1L2830.9,2467L2830.9,2467z M2834.9,2470.6c-0.1,0.3-0.1,0.8-0.2,0.9c0.1-0.3-0.2-0.8-0.4-1.1L2834.9,2470.6
	c0.1-0.2,0.3-0.3,1,0.2L2834.9,2470.6z M2836.4,2470.1l0.7,0.6l0.5,0.1l-0.2,0.1l-0.3-0.2l-1.1-0.2
	C2836.3,2470.6,2836.3,2470.2,2836.4,2470.1z M2836.8,2473.6l0.7-0.2h0.5L2836.8,2473.6z M2840.9,2475.8c-0.6,0-1.2,0.1-1.8-0.2
	c0.5,0-0.1-0.8,0.4-0.9C2839.9,2475.3,2840.3,2475.7,2840.9,2475.8c0.3,0,0.7,0,0.9,0C2841.4,2475.9,2841.1,2475.8,2840.9,2475.8
	L2840.9,2475.8z M2845.8,2478.4l0.5-0.5l0.7,0.1L2845.8,2478.4L2845.8,2478.4z M2847.7,2479.3l0.4-0.5l0.2,0.4L2847.7,2479.3
	L2847.7,2479.3z M2848.3,2476.7c-0.4-0.6,0.1-0.9-1.1-1.3c-1,0.1,0.3,1.3,0.4,1.8c-1-0.2-1.1,0-1.3,0.2c0,0,0,0.1,0,0.1l-0.1,0
	c-0.1,0.1-0.4,0.2-1.1,0.2c-0.2-0.7-0.4-1.1-0.7-1.4c-0.6-0.2-1.2-0.4-1.8-0.7c0,0,0,0,0,0.1c0.2,0.2,0.3,0.4,0.4,0.7
	c-0.2,0.1-0.4-0.4-0.4-0.7c-0.2-0.3-0.4-0.5-0.6-0.8c-0.5-0.2-0.9-0.5-1.4-0.5c-0.5-0.3-0.1-0.5,0.1-0.6c-0.3-0.2-0.6-0.3-0.9-0.4
	c-0.2,0-0.4,0.1-0.7,0c0,0.1,0,0.2-0.1,0h0.1c0-0.1,0-0.1,0-0.2l-0.1,0c0.1-0.1,0.1-0.1,0.1,0c0.2,0,0.4,0.1,0.7,0.2
	c0.3,0,0.6,0,0.9,0.3c0.1,0,0.1,0.1,0,0.1c0.5,0.3,0.9,0.7,1.3,1.1c0.3,0.1,0.6,0.3,0.9,0.4c-0.9-1,1.4-0.2-0.3-1.1
	c0.7,0.1,0.7-0.5,1.7,0.1c0.1,0.9-0.8,0.6-1.4,1c0.8,0.4,1.2,0.6,1.5,0.9l0.4,0.1h-0.2l1.6,1.1l0.1-0.1c-0.1-1.4,0.4-3.3,1.4-3.2
	c0.5,1,1.7,1.1,2,0.7c0.2,0.3-0.3,0.3-0.4,0.5l1.1,0.2C2850.2,2476.6,2848.3,2475.8,2848.3,2476.7L2848.3,2476.7z M2851,2481.3
	c0.1,0,0.1-0.2,0.2-0.4c0.1,0.2,0.2,0.4,0.6,0.6L2851,2481.3L2851,2481.3z M2854.7,2483.1c-0.1-0.1-0.2-0.2-0.3-0.4
	C2854.5,2482.9,2854.6,2483,2854.7,2483.1z M2854.8,2483.3C2854.7,2483.4,2854.4,2483.1,2854.8,2483.3c0,0,0-0.1,0-0.1
	c0.1,0.1,0.3,0.3,0.5,0.4C2855,2483.5,2854.9,2483.4,2854.8,2483.3z M2855.6,2483.9c0,0.3,0.4-0.6,0.6-0.2
	C2857.8,2484.2,2854.9,2484.4,2855.6,2483.9z"/>
</svg>
