<?xml version="1.0" encoding="utf-8"?>
<!-- Generator: Adobe Illustrator 27.3.1, SVG Export Plug-In . SVG Version: 6.00 Build 0)  -->
<svg version="1.1" id="Layer_1" xmlns="http://www.w3.org/2000/svg" xmlns:xlink="http://www.w3.org/1999/xlink" x="0px" y="0px"
	 viewBox="0 0 800 800" style="enable-background:new 0 0 800 800;" xml:space="preserve">
<style type="text/css">
	.st0{fill:#619683;}
</style>
<g>
	<path class="st0" d="M400,0C179.1,0,0,179.1,0,400s179.1,400,400,400s400-179.1,400-400S620.9,0,400,0z M610.4,673.8
		c-8,4.2-17.1,6.5-26.2,6.5H215.8c-15.1,0-29.2-5.9-39.8-16.5S159.6,639,159.6,624c0-10.1,2.8-20.1,8-28.8l116.8-195.1l0,0
		c0.7-1.5,1.5-3,2.5-4.3l43.2-72.1V213.5H323c-25.8,0-46.9-21-46.9-46.9s21-46.9,46.9-46.9h170.9c25.8,0,46.9,21,46.9,46.9
		s-21.1,46.9-46.9,46.9h-4.5v110.9l37.6,71.2c1.6,1.9,2.8,4.1,3.6,6.6c0,0.1,0.1,0.2,0.1,0.4l103.2,195.3
		C648.4,625.2,637.8,659.3,610.4,673.8z"/>
	<path class="st0" d="M503.3,166.5c0,5.2-4.2,9.4-9.4,9.4h-23.4c-10.4,0-18.8,8.4-18.8,18.8c0,0.6,0,1.3,0.1,1.9v129.2
		c-0.1,5,1.1,10,3.4,14.4l29.5,55.8c-15.5,3.8-28.9,6.2-33.3,5.6h-0.2c-6.7-0.8-19-6.5-29.9-11.5c-17.1-7.9-33.2-15.3-47.4-15.3
		h-1.1l-1.1,0.1c-10.4,1.2-20.9,2.8-31.2,4.7l22.8-38.1c2.9-4.8,4.4-10.3,4.4-15.9V194.8c0-4.9-1.9-9.4-5-12.8
		c-0.4-0.4-0.8-0.8-1.2-1.2c-3.3-3.1-7.8-5-12.8-5H323c-5.2,0-9.4-4.2-9.4-9.4s4.2-9.4,9.4-9.4h170.9
		C499.1,157,503.3,161.2,503.3,166.5z"/>
	<path class="st0" d="M600.5,615.3L502.6,430c-15.2,4.1-36.2,9-50.3,9c-2,0-3.9-0.1-5.6-0.3c-12.4-1.5-26.2-7.9-40.9-14.6
		c-9.8-4.5-24.5-11.2-31-11.8c-20.4,2.6-40.8,6.4-60.8,11.4L199.7,614.5c-1.7,2.9-2.7,6.2-2.7,9.6c0,5,1.9,9.7,5.5,13.3
		c3.5,3.5,8.2,5.5,13.2,5.5h368.2c3,0,6-0.8,8.7-2.2c4.4-2.3,7.7-6.3,9.2-11C603.3,624.8,602.8,619.8,600.5,615.3z M364.3,542
		c-30,0-54.4-24.4-54.4-54.4s24.4-54.4,54.4-54.4s54.4,24.4,54.4,54.4C418.7,517.6,394.3,542,364.3,542z M478.5,631.2
		c-36,0-65.4-29.3-65.4-65.4s29.3-65.4,65.4-65.4s65.4,29.3,65.4,65.4S514.6,631.2,478.5,631.2z"/>
	<g>
		<g>
			
				<ellipse transform="matrix(0.9239 -0.3827 0.3827 0.9239 -180.1036 226.1939)" class="st0" cx="478.5" cy="565.8" rx="27.9" ry="27.9"/>
		</g>
		<g>
			<ellipse class="st0" cx="364.3" cy="487.7" rx="16.9" ry="16.9"/>
		</g>
	</g>
</g>
<path class="st0" d="M651.2-0.5H146.8C65.2-0.5-1,65.7-1,147.2v504.5c0,81.6,66.2,147.8,147.8,147.8h504.5
	c81.6,0,147.8-66.2,147.8-147.8V147.2C799,65.7,732.8-0.5,651.2-0.5z M399,778C190,778,20.5,608.5,20.5,399.5S190,21,399,21
	s378.5,169.5,378.5,378.5S608,778,399,778z"/>
</svg>
