<?xml version="1.0" encoding="utf-8"?>
<!-- Generator: Adobe Illustrator 27.3.1, SVG Export Plug-In . SVG Version: 6.00 Build 0)  -->
<svg version="1.1" id="Layer_1" xmlns="http://www.w3.org/2000/svg" xmlns:xlink="http://www.w3.org/1999/xlink" x="0px" y="0px"
	 viewBox="0 0 512 512" style="enable-background:new 0 0 512 512;" xml:space="preserve">
<style type="text/css">
	.st0{fill:#619683;}
</style>
<path class="st0" d="M184.3,117.3v245.2H140c-1.7,0-3.1-1.4-3.1-3.1V116.8c0-1.5,1.2-2.8,2.8-2.8H181
	C182.9,114,184.3,115.5,184.3,117.3z"/>
<path class="st0" d="M184.3,385.3v11.6H140c-1.7,0-3.1-1.4-3.1-3v-8.6c0-1.7,1.4-3.1,3.1-3.1h41.3
	C183,382.2,184.3,383.6,184.3,385.3z"/>
<path class="st0" d="M251.1,114l0.3,1.7v243.7c0,1.7-1.4,3.1-3.1,3.1H207c-1.7,0-3.1-1.4-3.1-3.1V116.1c0-1.2,1-2.2,2.1-2.2
	L251.1,114L251.1,114z"/>
<path class="st0" d="M251.5,385.3v8.6c0,1.7-1.4,3-3.1,3h-41.3c-1.7,0-3.1-1.4-3.1-3v-8.6c0-1.7,1.4-3.1,3.1-3.1h41.3
	C250.1,382.2,251.5,383.6,251.5,385.3z"/>
<path class="st0" d="M363.2,353l-40.4,8.3c-1.1,0.2-2.2-0.5-2.4-1.6l-46.2-231.1c-0.2-1.1,0.5-2.3,1.7-2.5l40.3-8.1
	c1.1-0.2,2.2,0.5,2.5,1.7l46.2,230.9C365,351.7,364.3,352.8,363.2,353z"/>
<path class="st0" d="M371.5,384c0.2,1.1-0.5,2.1-1.6,2.4l-40.5,8.1c-1.1,0.2-2.1-0.5-2.4-1.6l-2-9.8c-0.2-1.1,0.5-2.1,1.6-2.4
	l40.4-8.3c1.1-0.2,2.2,0.5,2.4,1.6L371.5,384z"/>
<path class="st0" d="M256,0C114.6,0,0,114.6,0,256s114.6,256,256,256s256-114.6,256-256S397.4,0,256,0z M393.1,401.9l-79.2,15.9
	c-1.1,0.2-2.1-0.5-2.4-1.6l-40.4-201.8v200c0,1.3-1,2.3-2.3,2.3H119.5c-1.3,0-2.3-1-2.3-2.3V104c0-5.4,4.3-9.7,9.7-9.7h135.9
	c4.6,0,8.4,3.8,8.4,8.4v4.3l53-10.6c5.2-1,10.3,2.3,11.3,7.6l59.1,295.6C394.9,400.6,394.2,401.6,393.1,401.9z"/>
<path class="st0" d="M417.4,0.5H94.6C42.3,0.5,0,42.8,0,95.1v322.9c0,52.2,42.3,94.6,94.6,94.6h322.9c52.2,0,94.6-42.3,94.6-94.6
	V95.1C512,42.8,469.7,0.5,417.4,0.5z M256,498.7c-133.8,0-242.2-108.5-242.2-242.2S122.2,14.3,256,14.3s242.2,108.5,242.2,242.2
	S389.8,498.7,256,498.7z"/>
</svg>
