<?xml version="1.0" encoding="utf-8"?>
<!-- Generator: Adobe Illustrator 27.3.1, SVG Export Plug-In . SVG Version: 6.00 Build 0)  -->
<svg version="1.1" id="Capa_1" xmlns="http://www.w3.org/2000/svg" xmlns:xlink="http://www.w3.org/1999/xlink" x="0px" y="0px"
	 viewBox="0 0 800 800" style="enable-background:new 0 0 800 800;" xml:space="preserve">
<style type="text/css">
	.st0{fill:#619683;}
</style>
<path class="st0" d="M651.2-0.5H146.8C65.2-0.5-1,65.7-1,147.2v504.5c0,81.6,66.2,147.8,147.8,147.8h504.5
	c81.6,0,147.8-66.2,147.8-147.8V147.2C799,65.7,732.8-0.5,651.2-0.5z M399,778C190,778,20.5,608.5,20.5,399.5S190,21,399,21
	s378.5,169.5,378.5,378.5S608,778,399,778z"/>
<path class="st0" d="M549.8,607.5v56.8H226.6c-15.7,0-28.4-12.7-28.4-28.4s12.7-28.4,28.4-28.4L549.8,607.5L549.8,607.5z"/>
<path class="st0" d="M236.5,476.5c-15.7,0-28.4-12.7-28.4-28.4c0-10.6,5.9-19.7,14.5-24.6h338.5v53H236.5z"/>
<path class="st0" d="M584.8,518.1v56.8H255c-15.7,0-28.4-12.7-28.4-28.4s12.7-28.4,28.4-28.4L584.8,518.1L584.8,518.1z"/>
<path class="st0" d="M400,0C179.1,0,0,179.1,0,400s179.1,400,400,400s400-179.1,400-400S620.9,0,400,0z M432.2,113
	c62,0,106.4,42.6,106.4,101.8c0,51.4-28.9,83.8-66.9,83.8c-16.5,0-28.5-8.5-30.3-27.1h-0.7c-10.9,18-26.8,27.1-45.4,27.1
	c-22.9,0-39.5-16.9-39.5-45.8c0-43,31.7-82.1,82.4-82.1c15.5,0,33.1,3.9,41.9,8.8l-10.6,65.1c-3.5,20.8-1.1,30.3,8.8,30.6
	c15.1,0.4,34.2-19,34.2-59.5c0-45.8-29.6-81.3-84.2-81.3c-53.9,0-101.1,42.3-101.1,109.5c0,58.8,37.7,92.3,90.1,92.3
	c18,0,37-3.9,51.1-11.3l6.3,20.4c-21.1,9.5-39.4,12.7-64.5,12.7c-58.5,0-109.9-41.9-109.9-110.9C300.5,175.3,352.6,113,432.2,113z
	 M624.5,518.1h-17v56.8h17v22.7h-28.4v9.9h-23.7v56.8h23.7V687H226.6c-28.2,0-51.1-22.9-51.1-51.1c0-26.6,20.6-48.3,46.6-50.6
	c-11-9.4-18.2-23.2-18.2-38.8c0-21.5,13.3-39.8,32.2-47.4c-27.9-0.3-50.6-23-50.6-51c0-16,7.5-30.1,19.1-39.5L272,302.4h4.7
	c20.7,53.7,71.4,89.8,133.8,89.8c31,0,53.7-4.5,78.4-15.7l27.5-12.4l-11.5-37.2c12-4.4,22.9-11.3,32.2-20.2l70.5,86.2v30.5H578
	l28,52.5v19.4h18.5V518.1z M391,248.6c0,13.4,6,21.8,17.6,21.8c13,0,26.8-16.5,29.9-37l4.9-33.5c-2.8-0.7-6.3-1.4-10.9-1.4
	C409.3,198.5,391,221.4,391,248.6z"/>
</svg>
