<?xml version="1.0" encoding="utf-8"?>
<!-- Generator: Adobe Illustrator 27.3.1, SVG Export Plug-In . SVG Version: 6.00 Build 0)  -->
<svg version="1.1" id="Layer_1" xmlns="http://www.w3.org/2000/svg" xmlns:xlink="http://www.w3.org/1999/xlink" x="0px" y="0px"
	 viewBox="0 0 16 16" style="enable-background:new 0 0 16 16;" xml:space="preserve">
<style type="text/css">
	.st0{fill:#87BB96;}
</style>
<path class="st0" d="M14.5,8H12V6c0-1.1,0.9-2,2-2h0.2C14.7,4,15,3.7,15,3.2V1.8C15,1.3,14.7,1,14.2,1H14c-2.8,0-5,2.2-5,5v7.5
	c0,0.8,0.7,1.5,1.5,1.5h4c0.8,0,1.5-0.7,1.5-1.5v-4C16,8.7,15.3,8,14.5,8z M5.5,8H3V6c0-1.1,0.9-2,2-2h0.2C5.7,4,6,3.7,6,3.2V1.8
	C6,1.3,5.7,1,5.2,1H5C2.2,1,0,3.2,0,6v7.5C0,14.3,0.7,15,1.5,15h4C6.3,15,7,14.3,7,13.5v-4C7,8.7,6.3,8,5.5,8z"/>
</svg>
