<?xml version="1.0" encoding="utf-8"?>
<!-- Generator: Adobe Illustrator 27.3.1, SVG Export Plug-In . SVG Version: 6.00 Build 0)  -->
<svg version="1.1" id="Layer_1" xmlns="http://www.w3.org/2000/svg" xmlns:xlink="http://www.w3.org/1999/xlink" x="0px" y="0px"
	 viewBox="0 0 800 800" style="enable-background:new 0 0 800 800;" xml:space="preserve">
<style type="text/css">
	.st0{fill:#619683;}
</style>
<path class="st0" d="M651.2-0.5H146.8C65.2-0.5-1,65.7-1,147.2v504.5c0,81.6,66.2,147.8,147.8,147.8h504.5
	c81.6,0,147.8-66.2,147.8-147.8V147.2C799,65.7,732.8-0.5,651.2-0.5z M399,778C190,778,20.5,608.5,20.5,399.5S190,21,399,21
	s378.5,169.5,378.5,378.5S608,778,399,778z"/>
<polygon class="st0" points="511.2,191.4 565.3,434.8 234.7,434.8 288.8,191.4 "/>
<path class="st0" d="M400,0C179.1,0,0,179.1,0,400s179.1,400,400,400s400-179.1,400-400S620.9,0,400,0z M590.8,469.1
	c-1.3,0.3-2.5,0.4-3.8,0.4h-82.5v52.2c0,11.6-5.8,17.4-17.4,17.4s-17.4-5.8-17.4-17.4v-52.2h-52.1v139.2h69.5
	c11.6,0,17.4,5.8,17.4,17.4c0,11.6-5.8,17.4-17.4,17.4H313.2c-11.6,0-17.4-5.8-17.4-17.4c0-11.6,5.8-17.4,17.4-17.4h69.5V469.6
	H213.1c-9.6,0-17.4-7.8-17.4-17.4c0-1.3,0.1-2.6,0.4-3.8l61.8-278.2c1.8-7.9,8.9-13.6,17-13.6h250.2c8.2,0,15.2,5.6,17,13.6
	l61.8,278.2C606,457.8,600.1,467.1,590.8,469.1z"/>
<path class="st0" d="M382.6,434.7L382.6,434.7h34.8l0,0H382.6z"/>
</svg>
