<?xml version="1.0" encoding="utf-8"?>
<!-- Generator: Adobe Illustrator 27.3.1, SVG Export Plug-In . SVG Version: 6.00 Build 0)  -->
<svg version="1.1" id="designs" xmlns="http://www.w3.org/2000/svg" xmlns:xlink="http://www.w3.org/1999/xlink" x="0px" y="0px"
	 viewBox="0 0 800 800" style="enable-background:new 0 0 800 800;" xml:space="preserve">
<style type="text/css">
	.st0{fill:#619683;}
</style>
<path class="st0" d="M651.2-0.5H146.8C65.2-0.5-1,65.7-1,147.2v504.5c0,81.6,66.2,147.8,147.8,147.8h504.5
	c81.6,0,147.8-66.2,147.8-147.8V147.2C799,65.7,732.8-0.5,651.2-0.5z M399,778C190,778,20.5,608.5,20.5,399.5S190,21,399,21
	s378.5,169.5,378.5,378.5S608,778,399,778z"/>
<path class="st0" d="M320.5,418.6c1.6,0,3.3-0.1,4.9-0.2c-0.4,1-0.7,2-1,3c-1.3,2.7-2.6,5.2-4.2,7.7c-1.2,1.3-2.5,2.6-3.9,3.8
	c-2.3,1.5-4.6,2.8-7.1,3.9c-4.3,1.6-8.6,2.8-13.1,3.6c-4.6,0.4-9.2,0.4-13.9-0.1c-2.5-0.5-5-1.1-7.4-2c-3.9-1.9-7.6-4.1-11.2-6.6
	c-2.2-1.8-4.2-3.7-6-5.7c-1.7-2.6-3.1-5.3-4.5-8.1c7.2,0.1,14.2-0.1,21.4,0C289.7,418.1,305,418.5,320.5,418.6z"/>
<path class="st0" d="M405,353.3c-1-7.3-2.2-14.7-4.5-21.7c-2.2-6.4-4.5-12.7-7.1-19.1c-3.6-7.8-8.1-15.2-13-22.3
	c-2.7-3.2-5.5-6.2-8.6-8.9c-4.7-3.3-9.6-6.2-14.5-9.2c-2.5-1.6-4.2-3.6-5.6-6c-3.3-3-5.4-7.2-5.4-11.8c0.2-22.6,0.8-45.3-1.6-67.8
	c-1-6.4-2.7-12.5-4.9-18.6c-1-1.9-2-3.7-3.2-5.5c-2.2-2.6-4.5-5-7.2-7.2c-4.4-3.1-9.1-5.7-14-8c-2.5-1-5.1-1.6-7.7-2.1
	c-2.4-0.2-4.8-0.4-7.1-0.2c-4.9,0.8-9.6,2-14.3,3.7c-1.5,0.7-2.8,1.6-4.1,2.5c-2.7,2.2-5.2,4.5-7.5,7.2c-2.5,3.4-4.7,6.9-6.5,10.7
	c-3,8.6-4.8,17.7-6.1,26.6c-2.2,20-1.4,39.9-0.8,60c0.2,4.7-2.1,8.9-5.4,12c-0.1,0.3,0,0.5-0.1,0.8c-1.2,4.5-4,7.1-7.5,9.8
	c-1.6,1.2-3.3,2.5-4.9,3.7c-7.2,5.7-13.9,11.5-19.9,18.4c-4.9,6.8-9.1,14-12.5,21.7c-3.3,8.6-5.7,17.4-7.1,26.4
	c-0.9,8.9-1.3,17.7-1.6,26.6c-0.1,4.9-0.4,9.8-0.6,14.6c12.4-0.2,24.7-0.2,37.1-0.5c15-0.3,30-0.5,45-0.2
	c15.1,0.3,30.4,0.6,45.6,0.2c14.5-0.4,29-1.7,43.4-2.2c7-0.3,13.9-0.3,20.9-0.4c3.8,0,7.6-0.1,11.4-0.1c0.8,0,1.6,0.1,2.5,0.1
	C407.1,375.2,406.3,364.2,405,353.3z M379.4,366.4c-2.9,2.9-6.8,4.5-10.8,4.5c-4.1,0-8-1.6-10.9-4.5c-3.1-3.1-4.1-6.6-4.5-10.8
	c-0.1-0.7-0.1-1.5-0.2-2.2c-1-6.9-2.5-13.8-4.8-20.3c-1.4-2.9-3.1-5.6-5.1-8.3c-4.2-5-8.9-9.3-14-13.5c-3-2.5-4.5-7.3-4.5-11.1
	c0-4.2,1.6-8.1,4.5-11.1c2.9-2.9,7-4.6,11.1-4.6c4.5,0,7.8,1.9,11.1,4.6c4.9,4,9.2,8.4,13.3,13.3c3.9,4.8,7.7,9.8,10.3,15.4
	c4.9,10.4,6.5,22.3,8.5,33.6C384.3,357,383.5,362.2,379.4,366.4z"/>
<path class="st0" d="M539.1,543.1c0-0.3,0-0.6,0-0.9C539.1,542.5,539.1,542.9,539.1,543.1C539.1,543.2,539.1,543.1,539.1,543.1z"/>
<path class="st0" d="M510.5,265.5c-4.2-6.9-9.5-13.4-14.8-19.4c-4.8-5.6-10.1-10.9-15.6-15.7c-12.4-10.7-26.8-18.6-42.2-24
	c-8.2-2.8-16.6-4.6-25.2-6c-6.8-1.2-13.5-1.8-20.4-1.8c-3.7,0-7.4,0.1-11.1,0.5c-1,0.1-1.8,0.4-2.7,0.6c-0.1-2-0.1-4-0.2-6
	c7.2-2.3,14.4-4.5,21.8-5.8c8.9-1,17.9-1,26.8-0.1c4.8,0.7,9.6,1.6,14.2,3c4.8,1.6,9.5,3.3,14.2,5.1c10.5,4.8,20,11.3,29.2,18.3
	c12.7,10.1,24.8,20.6,35.1,33c7.4,10.5,13.3,22,18.5,33.7c2.1,5.1,3.9,10.4,5.4,15.7c1.6,5.7,2.6,11.5,3.5,17.3
	c0.8,6.4,1.3,12.7,1.9,19.2c0.7,7.2,1.6,14.4,2.2,21.6c1.4,13.8,3.1,27.7,4.4,41.6c1.3,13.4,1.4,26.8,1.8,40.2
	c0.4,13.6,1.3,27.1,1.7,40.7c0.4,12.5,0.3,25.1,0.4,37.6c0.2,9.7,0.8,19.3,1.3,28.9c-7.1,0.1-14.3,0.2-21.5,0.2c0-0.2,0.1-0.3,0-0.5
	c-1.3-13.5-1-27-0.8-40.7c0-14.6,0.4-29.2,0.1-43.8c-0.6-30.5-2.4-61-5.1-91.4c-1.5-16.5-2.6-33.1-5.4-49.5
	c-1.3-7.7-2.8-15.2-4.7-22.8C520.8,284.8,516.1,274.8,510.5,265.5z"/>
<path class="st0" d="M573.4,570.7c0.8,10.8,1.7,21.6,2.5,32.4c-9,0.1-18,0.3-26.9,0.6c-14.4,0.4-28.7,1.3-43.1,1.6
	c-14.4,0.2-28.8,0.1-43,0.2c-15.3,0.1-30.5,0.4-45.7,0.3c-9.2-0.1-18.3-0.3-27.5-0.7c-8.9-0.4-17.8-0.4-26.7-0.6
	c-15-0.2-29.9-0.8-44.8-1.3c-0.1-4.4-0.1-8.7-0.1-13c0.1-6.3,0.1-12.7,0.1-18.9c25,0.5,49.9,0.3,74.9,0.3
	c27.5-0.1,54.9,0.2,82.4,0.2c18.2,0,36.4,0.6,54.6,0.1c10-0.2,19.9-0.8,29.9-1C564.3,570.6,568.9,570.7,573.4,570.7z"/>
<path class="st0" d="M400,1.7C179.1,1.7,0,180.8,0,401.7s179.1,400,400,400s400-179.1,400-400S620.9,1.7,400,1.7z M590.1,632.4
	c-17.3,0-34.8-0.8-52.1,0c-8.6,0.4-17.4,1-26.1,1.3c-8.9,0.3-17.7,0.2-26.6,0.2c-10.3,0-20.6,0.1-30.8,0.2
	c-19.9,0.2-39.8,0.5-59.6-0.2c-14.5-0.5-28.8-1-43.3-1.3c-13.7-0.4-27.4-0.4-41.1-0.7c-0.6,0.3-1,0.7-1.7,0.9
	c-7.4,2.1-16.4-2.4-18.1-10.3c-1.3-5.5-1.3-11.3-1.5-17c-0.1-4.5-0.2-9-0.3-13.6c-0.2-10.7-0.5-21.4-0.7-32
	c-0.2-7.2,5.3-13,12.1-14.5c2-1.3,4.2-2.2,6.7-2.2h0.5c39.2,1.5,78.5,1,117.8,0.9c27-0.1,53.9-0.2,80.9,0.1h3.7
	c-0.7-10.1-1-20.1-0.8-30.2c0.2-14.5,1-29,1.2-43.6c0.1-15.1-0.1-30.3-0.6-45.4c-0.5-15.3-1-30.5-2.4-45.7
	c-1.3-14.6-2.4-29.3-4.2-43.8c-2.3-13.9-5-27.8-10-40.9c-3.2-6.8-7.1-13-11.5-19c-7.1-8.8-14.8-17-23.2-24.4
	c-6.2-4.5-12.7-8.5-19.7-11.6c-5.4-2.2-10.9-4.1-16.6-5.7c-4.9-1.4-10-2.3-15.1-3.1c-8.6-0.9-17.1-0.5-25.8,0.4
	c-0.7,0.1-1.4-0.4-2.2-0.5c-0.1,5.4,0,10.9,0.1,16.3c5.7,3.7,11.2,7.5,16.3,11.8c6,5.2,11.1,11.7,15.5,18.2
	c3.8,5.7,7.6,11.3,10.4,17.4c3.4,7.4,6.3,15,9.1,22.7c5.3,14.6,7.1,29.9,9.2,45.2c0.8,6.7,1.6,13.4,2.2,20.1
	c0.4,5.7,1.6,11.7,1.1,17.4c-0.3,4.8-1.6,8.9-5.1,12.4c-3.3,3.3-7.8,5.1-12.4,5.1c-1.1,0-2.1-0.5-3.2-0.7c-1.8,0.7-3.7,1.2-5.8,1
	c-6.4-0.5-12.8-0.4-19.3-0.4c-2.8,0.1-5.4,0.1-8,0c-8.5-0.2-17.1-0.2-25.6-0.1c-1.6,0-3.2,0.1-4.8,0.2c-0.1,1,0.1,2-0.3,3.1
	c-2.6,7.2-5.1,14.8-9,21.5c-3.7,6.4-8.6,11.6-14.5,16c-5.4,3.9-11.8,6.4-18.1,8.5c-6.4,2.1-13.1,3.4-19.8,4c-8.2,0.7-17,0.4-25-1.6
	c-8.3-2-16.1-6-23-11.1c-7-5.1-13.7-11.2-17.8-19c-2.8-5.3-5.4-10.6-7.9-16c-0.7-1.6-1.2-3.1-1.5-4.6c-13.4,0.4-26.7,1.1-40.1,1.6
	c-8.2,0.3-15-7-15-15c0-3.1,1.1-5.7,2.7-8.1c1.6-26.2,1.6-53.2,9.5-78.5c4.2-13.2,10.4-25.9,18.8-36.9c8.6-11.2,19.6-20.1,30.7-28.7
	c-0.3-12.7-0.6-25.4-0.2-38.1c0.5-13.9,2.5-27.9,5.7-41.5c1.6-6.8,3.4-13.8,6.7-20c3.4-6.3,7.5-12.8,12.4-18.1
	c5.4-5.8,11.7-11.8,19-15c6.5-3,13.4-4.7,20.5-5.9c4-0.7,8-1.1,12.1-1.1c1.7,0,3.5,0.1,5.3,0.3c5.6,0.6,11.2,1,16.5,3.1
	c7.1,2.8,14.6,5.7,20.7,10.3c3.7,2.8,7.4,5.4,10.4,8.9c2.8,3.3,5.5,6.7,7.9,10.3c3.5,5.4,5.9,11.8,7.8,18c5.4-1.7,11-3.3,16.5-4
	c6.7-1,13.2-1.6,20-1.6h2.2c7.2,0.2,14.4,1,21.5,2.2c6.4,1.2,12.7,3,18.7,5.3c6.8,2.7,14,5.3,20.5,8.9c12.6,7.2,23.8,16,35,25.2
	c10.7,8.7,21,17.7,29.7,28.5c9.2,11.4,15.9,24.3,22.3,37.5c6.4,13.6,10.4,27.9,12.5,42.6c2,14.5,3.6,29.3,4.8,43.9
	c1.2,13.9,2.8,27.8,4.1,41.6c1.3,13.9,1.9,27.8,2.3,41.7c0.3,13.3,1.6,26.4,2.2,39.6c0.6,13,0.5,26.1,0.8,39.1
	c0.1,6,0.1,12.1,0.5,18.2c0.3,3.7,0.4,7.4,0.6,11c5.4,0.1,10.1,3.6,12,8.5c1.7,2.4,2.9,5.2,3.1,8.3c0.7,14.8,1,29.4,2.3,44.1
	c0.2,2.2-0.5,4.3-1.5,6.2c1,2.1,1.8,4.3,1.8,6.8C604.9,625.7,598.2,632.4,590.1,632.4z"/>
</svg>
