<?xml version="1.0" encoding="utf-8"?>
<!-- Generator: Adobe Illustrator 27.3.1, SVG Export Plug-In . SVG Version: 6.00 Build 0)  -->
<svg version="1.1" id="Layer_1" xmlns="http://www.w3.org/2000/svg" xmlns:xlink="http://www.w3.org/1999/xlink" x="0px" y="0px"
	 viewBox="0 0 800 800" style="enable-background:new 0 0 800 800;" xml:space="preserve">
<style type="text/css">
	.st0{fill:#619683;}
</style>
<path class="st0" d="M651.2-0.5H146.8C65.2-0.5-1,65.7-1,147.2v504.5c0,81.6,66.2,147.8,147.8,147.8h504.5
	c81.6,0,147.8-66.2,147.8-147.8V147.2C799,65.7,732.8-0.5,651.2-0.5z M399,778C190,778,20.5,608.5,20.5,399.5S190,21,399,21
	s378.5,169.5,378.5,378.5S608,778,399,778z"/>
<path class="st0" d="M400,0C179.1,0,0,179.1,0,400s179.1,400,400,400s400-179.1,400-400S620.9,0,400,0z M663.5,656.5
	c0,2.3-1.9,4.2-4.2,4.2H140.7c-2.3,0-4.2-1.9-4.2-4.2v-29.6c0-2.3,1.9-4.2,4.2-4.2h38.5c2.3,0,4.2-1.9,4.2-4.2v-272
	c0-0.4-0.2-0.8-0.6-0.9c-6.6-3.2-12.8-7.4-18.3-12.4c-8.3-7.6-14.9-16.9-19.2-27.3c-3.4-8.3-6.7-17.6-6.1-26.7
	c0.4-5.1,2.8-9.8,4.7-14.5c4.3-10.7,8.6-21.4,12.8-32.1c9.2-23,18.4-45.9,27.5-68.9c1.1-2.8,2.3-5.7,3.4-8.5
	c3.8-9.5,13-15.8,23.3-15.8h378.4c10.3,0,19.5,6.2,23.3,15.8l48.3,120.6c0,0.1,0.1,0.3,0.1,0.4l-0.2,3.9c-1,20.4-9.9,39.2-25,53
	c-5.6,5.1-11.7,9.2-18.3,12.5c-0.4,0.2-0.6,0.5-0.6,0.9v272c0,2.3,1.9,4.2,4.2,4.2h38.5c2.3,0,4.2,1.9,4.2,4.2v29.6H663.5z"/>
<g>
	<g>
		<path class="st0" d="M621.6,282.3c0.2,2.9-0.4,5.7-1.9,9.2c-2,4.7-5,9.1-8.7,12.7c-7.6,7.4-18.1,11.5-28.8,11.1h-0.8h-0.1h-0.8
			c-9.1,0.5-18.2-2.5-25.4-8c-7.3-5.6-11.9-14.2-15-22.8c-4.7-13-6-27.1-8.4-40.6c-3-16.5-6-33-9.1-49.5c-1-5.3-1.9-10.5-2.9-15.8
			c-0.1-0.7,0.4-1.2,1-1.2h59c0.4,0,0.8,0.3,1,0.7c3.5,8.6,6.9,17.2,10.4,25.9c6.5,16.3,13,32.6,19.6,48.9
			c2.1,5.2,4.1,10.4,6.2,15.6c1,2.6,2.1,5.2,3.1,7.8C620.9,278.4,621.4,280.4,621.6,282.3z"/>
		<path class="st0" d="M280.3,178.6c-1.8,9.9-3.6,19.8-5.4,29.7c-2.4,13.2-4.8,26.4-7.2,39.6c-1.1,6.1-1.6,12.3-2.7,18.5
			s-3.6,11.3-5.8,17.1c-1,2.7-1.5,5.6-2.7,8.2c-2.4,5.3-5.8,10.1-10.3,13.9c-16.6,14-44.1,12.7-58.8-3.3
			c-5.4-5.9-11.6-14.4-8.8-22.9c3.4-10.6,8.4-20.8,12.5-31.1c6.1-15.3,12.2-30.5,18.3-45.8c3.3-8.2,6.5-16.3,9.8-24.5l0,0
			c0.2-0.4,0.5-0.7,1-0.7h59.1C280,177.3,280.5,177.9,280.3,178.6z"/>
		<path class="st0" d="M381,178.4v100.2c-1.3,21.1-19.4,37.5-40.5,36.6h-0.8h-0.1h-0.8c-9.2,0.5-18.5-2.6-25.7-8.2
			c-5-3.9-9.7-9.2-12.2-15.1c-2.4-5.7-0.8-10.8,0.3-16.6l17.7-97.1c0.1-0.5,0.5-0.9,1-0.9H380C380.5,177.3,381,177.8,381,178.4z"/>
		<path class="st0" d="M500.3,286c-0.1,1.2-0.3,2.4-0.7,3.5c-5.9,15.9-21.6,26.4-38.5,25.7h-0.8h-0.1h-0.8
			c-21.1,0.9-39.2-15.5-40.5-36.5V178.4c0-0.6,0.5-1,1-1H480c0.5,0,0.9,0.4,1,0.9c1.8,9.8,3.6,19.6,5.4,29.5
			c3.2,17.7,6.5,35.5,9.7,53.2c0.8,4.6,1.7,9.2,2.5,13.8C499.3,278.3,500.6,282.3,500.3,286z"/>
		<path class="st0" d="M578.7,551.9v66.6c0,2.3-1.9,4.2-4.2,4.2h-63.4c-2.3,0-4.2-1.9-4.2-4.2v-66.6c0-0.6,0.5-1.1,1-1.1h69.7
			C578.2,550.9,578.7,551.3,578.7,551.9z"/>
		<path class="st0" d="M293.1,551.9v66.6c0,2.3-1.9,4.2-4.2,4.2h-63.4c-2.3,0-4.2-1.9-4.2-4.2v-66.6c0-0.6,0.5-1.1,1.1-1.1H292
			C292.6,550.9,293.1,551.3,293.1,551.9z"/>
		<path class="st0" d="M468.9,464v154.5c0,2.3-1.9,4.2-4.2,4.2H335.3c-2.3,0-4.2-1.9-4.2-4.2V464c0-0.6,0.5-1,1-1h135.8
			C468.5,463,468.9,463.4,468.9,464z"/>
		<path class="st0" d="M578.7,353.2v158.6c0,0.6-0.5,1-1.1,1H508c-0.6,0-1-0.5-1-1v-73.4c0-7.4-6-13.4-13.4-13.4h-187
			c-7.4,0-13.4,6-13.4,13.4v73.4c0,0.6-0.5,1-1,1h-69.7c-0.6,0-1.1-0.5-1.1-1V354.3c0-0.6,0.5-1,1-1c18.8-0.2,36.6-7.3,50.7-20
			c1.9-1.7,3.7-3.5,5.4-5.4c0.4-0.5,1.1-0.5,1.6,0c1.7,1.9,3.5,3.7,5.4,5.4c14.3,13,32.5,20,51.7,20c0.9,0,1.8,0,2.7,0
			c20.1,0.6,39.3-6.5,54.2-20.1c1.8-1.7,3.6-3.4,5.3-5.3c0.4-0.5,1.1-0.5,1.6,0c1.7,1.8,3.4,3.6,5.3,5.3
			c14.9,13.6,34.1,20.7,54.2,20.1c20.2,0.7,39.5-6.4,54.4-20c1.9-1.7,3.7-3.5,5.4-5.4c0.4-0.5,1.1-0.5,1.6,0
			c1.7,1.9,3.5,3.7,5.4,5.4C541.3,346.2,559.5,353.2,578.7,353.2L578.7,353.2z"/>
	</g>
</g>
</svg>
