<?xml version="1.0" encoding="utf-8"?>
<!-- Generator: Adobe Illustrator 27.3.1, SVG Export Plug-In . SVG Version: 6.00 Build 0)  -->
<svg version="1.1" id="Layer_1" xmlns="http://www.w3.org/2000/svg" xmlns:xlink="http://www.w3.org/1999/xlink" x="0px" y="0px"
	 viewBox="0 0 800 800" style="enable-background:new 0 0 800 800;" xml:space="preserve">
<g id="Layer_2_00000049934965349945178180000011944887818403715772_">
	<g id="Layer_1-2">
		<path d="M725,0H75C33.6,0,0,33.6,0,75v200c0,41.4,33.6,75,75,75h650c41.4,0,75-33.6,75-75V75C800,33.6,766.4,0,725,0z M750,275
			c0,13.8-11.2,25-25,25H75c-13.8,0-25-11.2-25-25V75c0-13.8,11.2-25,25-25h650c13.8,0,25,11.2,25,25V275z M550,225
			c0,13.8-11.2,25-25,25H175c-13.8,0-25-11.2-25-25s11.2-25,25-25h350C538.8,200,550,211.2,550,225z M650,225c0,13.8-11.2,25-25,25
			s-25-11.2-25-25s11.2-25,25-25S650,211.2,650,225z M450,400c-55.2,0-100,44.8-100,100s44.8,100,100,100s100-44.8,100-100
			S505.2,400,450,400z M450,550c-27.6,0-50-22.4-50-50s22.4-50,50-50s50,22.4,50,50S477.6,550,450,550z M286,600l-55,27.5l55,27.5
			c11.2,8.1,13.7,23.7,5.6,34.9c-4,5.5-9.9,9.1-16.6,10.1c-3.6,0.8-7.4,0.8-11,0l-64-34.5V725c0,13.8-11.2,25-25,25s-25-11.2-25-25
			v-59.5L86,700c-3.6,0.8-7.4,0.8-11,0c-13.8,0.1-25-11.1-25.1-24.9c0-9.6,5.4-18.4,14.1-22.6l55-27.5l-55-25
			c-12.4-6.1-17.6-21.1-11.5-33.5S73.6,548.9,86,555l64,29.5V525c0-13.8,11.2-25,25-25s25,11.2,25,25v59.5l64-32
			c12.4-6.1,27.4-0.9,33.5,11.5s0.9,27.4-11.5,33.5V600z M790,600l-73.5,50l73.5,55c11,8.3,13.3,24,5,35c-4.8,6.2-12.1,9.9-20,10
			c-5.4,0-10.7-1.7-15-5l-60-45v75c0,13.8-11.2,25-25,25s-25-11.2-25-25v-75l-60,45c-4.3,3.3-9.6,5-15,5c-7.9-0.1-15.2-3.8-20-10
			c-8.3-11-6-26.7,5-35l73.5-55L560,595c-11-8.3-13.3-24-5-35c8.3-11,24-13.3,35-5l60,45v-75c0-13.8,11.2-25,25-25s25,11.2,25,25v75
			l60-45c11-8.3,26.7-6,35,5c8.3,11,6,26.7-5,35L790,600z"/>
	</g>
</g>
</svg>
