<?xml version="1.0" encoding="utf-8"?>
<!-- Generator: Adobe Illustrator 27.3.1, SVG Export Plug-In . SVG Version: 6.00 Build 0)  -->
<svg version="1.1" id="Layer_1" xmlns="http://www.w3.org/2000/svg" xmlns:xlink="http://www.w3.org/1999/xlink" x="0px" y="0px"
	 viewBox="0 0 800 800" style="enable-background:new 0 0 800 800;" xml:space="preserve">
<g>
	<path d="M215.9,680.4c-15.1,0-29.2-5.9-39.8-16.5c-10.6-10.6-16.4-24.8-16.4-39.8c0-10.1,2.8-20.1,8-28.8l162.5-271.5v-129
		c0-10.4,8.4-18.8,18.8-18.8s18.8,8.4,18.8,18.8v130.8c0,5.6-1.5,11.1-4.4,15.9L199.8,614.5c-1.7,2.9-2.7,6.2-2.7,9.6
		c0,5,1.9,9.7,5.5,13.3c3.5,3.5,8.2,5.5,13.2,5.5h368.2c3,0,6-0.8,8.7-2.2c4.4-2.3,7.7-6.3,9.2-11c1.5-4.8,1-9.9-1.3-14.3
		L455.3,340.2c-2.3-4.4-3.5-9.4-3.4-14.4V194.8c0-10.4,8.4-18.8,18.8-18.8s18.8,8.4,18.8,18.8v129.6l144.5,273.5
		c14.5,27.4,3.9,61.5-23.5,76c-8,4.2-17.1,6.5-26.2,6.5H215.9z M489.4,325.8L489.4,325.8C489.4,325.9,489.4,325.8,489.4,325.8z"/>
</g>
<g>
	<path d="M494,213.5h-23.4c-10.4,0-18.8-8.4-18.8-18.8s8.4-18.8,18.8-18.8H494c5.2,0,9.4-4.2,9.4-9.4s-4.2-9.4-9.4-9.4H323.1
		c-5.2,0-9.4,4.2-9.4,9.4s4.2,9.4,9.4,9.4h25.8c10.4,0,18.8,8.4,18.8,18.8s-8.4,18.8-18.8,18.8h-25.8c-25.8,0-46.9-21-46.9-46.9
		s21-46.9,46.9-46.9H494c25.8,0,46.9,21,46.9,46.9S519.8,213.5,494,213.5z"/>
</g>
<g>
	<path d="M452.4,439c-2,0-3.9-0.1-5.6-0.3c-12.4-1.5-26.2-7.9-40.9-14.6c-9.8-4.5-24.5-11.2-31-11.8c-23,2.9-46,7.4-68.3,13.4
		c-10,2.7-20.3-3.2-23-13.2c-2.7-10,3.2-20.3,13.2-23c24.5-6.6,49.8-11.6,75-14.6l1.1-0.1h1.1c14.2,0,30.3,7.4,47.4,15.3
		c10.9,5,23.2,10.7,29.9,11.5l0.2,0c6.4,0.8,32.5-4.7,55.8-11.8c9.9-3,20.4,2.5,23.4,12.4c3,9.9-2.5,20.4-12.4,23.4
		C507.4,428.9,472.7,439,452.4,439z"/>
</g>
<g>
	<path d="M478.6,631.2c-36,0-65.4-29.3-65.4-65.4s29.3-65.4,65.4-65.4s65.4,29.3,65.4,65.4S514.7,631.2,478.6,631.2z M478.6,538
		c-15.4,0-27.9,12.5-27.9,27.9s12.5,27.9,27.9,27.9s27.9-12.5,27.9-27.9S494,538,478.6,538z"/>
</g>
<g>
	<path d="M364.4,542c-30,0-54.4-24.4-54.4-54.4s24.4-54.4,54.4-54.4s54.4,24.4,54.4,54.4S394.4,542,364.4,542z M364.4,470.8
		c-9.3,0-16.9,7.6-16.9,16.9s7.6,16.9,16.9,16.9s16.9-7.6,16.9-16.9S373.7,470.8,364.4,470.8z"/>
</g>
</svg>
