<?xml version="1.0" encoding="utf-8"?>
<!-- Generator: Adobe Illustrator 27.3.1, SVG Export Plug-In . SVG Version: 6.00 Build 0)  -->
<svg version="1.1" id="designs" xmlns="http://www.w3.org/2000/svg" xmlns:xlink="http://www.w3.org/1999/xlink" x="0px" y="0px"
	 viewBox="0 0 800 800" style="enable-background:new 0 0 800 800;" xml:space="preserve">
<path d="M691.9,718.5c1.4-2.6,2.2-5.4,2-8.4c-1.7-19.7-2.1-39.4-3.1-59.2c-0.2-4.2-1.8-8-4.1-11.2c-2.6-6.5-8.8-11.2-16.1-11.4
	c-0.2-4.9-0.4-9.9-0.8-14.8c-0.5-8.1-0.6-16.3-0.7-24.4c-0.4-17.5-0.3-35-1.1-52.5c-0.7-17.7-2.5-35.3-2.9-53.1
	c-0.5-18.7-1.3-37.4-3.1-56c-1.8-18.6-3.9-37.2-5.5-55.9c-1.6-19.6-3.7-39.4-6.4-58.9c-2.9-19.8-8.2-39-16.8-57.2
	c-8.5-17.7-17.6-35-29.9-50.3c-11.7-14.4-25.5-26.5-39.9-38.2c-15-12.3-30.1-24.2-47-33.8c-8.7-4.9-18.3-8.4-27.5-12
	c-8.1-3.1-16.5-5.5-25.1-7.1c-9.6-1.7-19.2-2.8-28.9-3c-1,0-2,0-3,0c-9,0-17.8,0.9-26.8,2.2c-7.5,1-14.9,3.1-22.2,5.4
	c-2.6-8.4-5.8-16.9-10.5-24.2c-3.2-4.9-6.8-9.5-10.6-13.9c-4.1-4.7-9.1-8.2-14-12c-8.2-6.2-18.2-10.1-27.8-13.8
	c-7-2.8-14.6-3.4-22.1-4.2c-2.4-0.3-4.8-0.4-7.1-0.4c-5.4,0-10.8,0.6-16.2,1.5c-9.5,1.6-18.7,3.9-27.5,7.9
	c-9.8,4.4-18.2,12.4-25.5,20.2c-6.6,7.1-12.2,15.8-16.7,24.3c-4.4,8.4-6.8,17.7-9,26.9c-4.3,18.2-7,37.1-7.6,55.7
	c-0.6,17.1-0.2,34.2,0.2,51.2c-14.9,11.5-29.7,23.5-41.2,38.5c-11.4,14.7-19.7,31.8-25.3,49.5c-10.6,34-10.6,70.2-12.8,105.4
	c-2.1,3.1-3.6,6.7-3.6,10.8c0,10.8,9.2,20.6,20.2,20.2c17.9-0.6,35.8-1.5,53.8-2.1c0.4,2.1,1,4.1,2,6.2c3.4,7.3,6.9,14.4,10.6,21.5
	c5.5,10.4,14.5,18.6,23.9,25.5c9.3,6.9,19.7,12.2,30.9,14.9c10.8,2.7,22.6,3.1,33.6,2.1c9-0.8,18-2.6,26.6-5.4
	c8.5-2.8,17.1-6.1,24.3-11.4c8-5.9,14.5-12.9,19.5-21.5c5.2-8.9,8.6-19.1,12.1-28.8c0.5-1.4,0.3-2.8,0.4-4.1
	c2.2-0.1,4.4-0.2,6.5-0.2c11.5-0.2,23-0.1,34.4,0.1c3.6,0.1,7.1,0.1,10.8,0c8.7,0,17.3-0.1,25.9,0.5c2.8,0.2,5.4-0.4,7.8-1.4
	c1.5,0.3,2.8,0.9,4.3,0.9c6.2,0,12.2-2.5,16.6-6.9c4.6-4.6,6.4-10.2,6.8-16.6c0.6-7.7-0.9-15.7-1.5-23.4c-0.8-9-1.9-18-3-27
	c-2.7-20.6-5.2-41.1-12.3-60.7c-3.7-10.3-7.6-20.6-12.2-30.5c-3.8-8.2-8.9-15.8-14-23.4c-5.9-8.8-12.8-17.5-20.8-24.5
	c-6.8-5.9-14.3-11-21.9-15.9c-0.1-7.3-0.2-14.6-0.1-21.9c1,0.1,2,0.7,2.9,0.6c11.6-1.2,23-1.7,34.6-0.5c6.9,1.1,13.7,2.3,20.3,4.2
	c7.6,2.1,15,4.7,22.3,7.6c9.4,4.2,18.1,9.5,26.4,15.6c11.4,9.9,21.7,20.9,31.2,32.7c6,8.1,11.2,16.4,15.5,25.5
	c6.7,17.6,10.3,36.3,13.4,54.9c2.4,19.5,3.9,39.2,5.6,58.8c1.8,20.4,2.5,40.9,3.2,61.4c0.7,20.3,0.9,40.7,0.8,61
	c-0.2,19.5-1.3,39-1.6,58.5c-0.2,13.6,0.2,27.1,1.1,40.6c-1.7,0-3.3,0-5,0c-36.2-0.4-72.4-0.2-108.6-0.1
	c-52.7,0.2-105.5,0.8-158.1-1.2c-0.2,0-0.4,0-0.6,0c-3.4,0-6.3,1.3-9,3c-9.1,1.9-16.4,9.8-16.2,19.4c0.2,14.3,0.7,28.7,0.9,43
	c0.1,6.1,0.3,12.1,0.4,18.2c0.2,7.6,0.3,15.4,2,22.8c2.3,10.6,14.4,16.6,24.3,13.8c0.9-0.2,1.5-0.8,2.3-1.2
	c18.4,0.5,36.8,0.5,55.2,1c19.4,0.4,38.7,1,58.1,1.7c26.6,0.9,53.3,0.6,80,0.3c13.8-0.2,27.6-0.3,41.4-0.3c11.9,0,23.8,0.1,35.7-0.3
	c11.7-0.4,23.4-1.2,35-1.8c23.3-1,46.7,0,70,0c10.8,0,19.9-9.1,19.9-19.9C694.3,724.3,693.3,721.3,691.9,718.5z M317.6,464.2
	c-1.7,3.6-3.5,7-5.7,10.3c-1.6,1.8-3.4,3.5-5.2,5.1c-3.1,2-6.2,3.7-9.5,5.2c-5.8,2.1-11.6,3.7-17.6,4.9c-6.2,0.5-12.4,0.5-18.7-0.1
	c-3.4-0.7-6.7-1.5-10-2.7c-5.2-2.6-10.2-5.5-15-8.9c-2.9-2.4-5.6-5-8.1-7.7c-2.3-3.5-4.2-7.1-6-10.9c9.6,0.1,19.1-0.1,28.7,0
	c20.6,0.3,41.2,0.9,61.9,1c2.2,0,4.4-0.1,6.6-0.2C318.5,461.6,318.1,462.9,317.6,464.2z M410.3,318c3.5,8.5,6.6,17,9.5,25.6
	c3.2,9.4,4.7,19.3,6.1,29.1c1.8,14.7,2.8,29.5,3.4,44.4c-1.1,0-2.2-0.1-3.3-0.1c-5.1,0-10.2,0.1-15.3,0.1
	c-9.4,0.1-18.7,0.1-28.1,0.5c-19.4,0.7-38.8,2.5-58.3,3c-20.4,0.5-40.9,0.1-61.2-0.3c-20.1-0.4-40.3-0.1-60.4,0.3
	c-16.6,0.4-33.2,0.5-49.8,0.7c0.3-6.5,0.7-13,0.8-19.6c0.3-11.9,0.9-23.8,2.1-35.7c1.9-12.1,5.1-24,9.6-35.5
	c4.6-10.3,10.2-20,16.8-29.1c8-9.3,17.1-17,26.7-24.7c2.2-1.6,4.4-3.3,6.6-4.9c4.7-3.6,8.4-7.1,10-13.1c0.1-0.4,0-0.7,0.1-1.1
	c4.5-4.1,7.5-9.8,7.3-16.1c-0.8-26.9-1.9-53.6,1.1-80.5c1.8-12,4.1-24.2,8.2-35.7c2.4-5.1,5.4-9.8,8.7-14.4
	c3.1-3.6,6.5-6.7,10.1-9.7c1.8-1.2,3.5-2.3,5.5-3.3c6.3-2.2,12.7-3.8,19.2-4.9c3.2-0.2,6.4,0,9.6,0.3c3.6,0.7,7,1.5,10.4,2.8
	c6.6,3.1,12.9,6.5,18.8,10.7c3.5,3,6.6,6.2,9.6,9.7c1.6,2.4,3,4.9,4.3,7.4c3,8.2,5.2,16.4,6.6,25c3.3,30.2,2.5,60.7,2.2,91
	c-0.1,6.3,2.8,11.9,7.2,15.9c1.9,3.2,4.2,6,7.5,8.1c6.5,4,13.1,7.9,19.4,12.3c4.2,3.6,8,7.6,11.6,11.9
	C399.4,297.6,405.5,307.5,410.3,318z M605.7,625.2c0.1,0.8,0.2,1.7,0.3,2.6c0-0.1,0-0.2-0.1-0.2C605.9,626.8,605.8,626,605.7,625.2z
	 M605,573.5c0-19.6,0.5-39.2,0.1-58.8c-0.8-41-3.3-81.9-6.9-122.7c-2-22.2-3.5-44.4-7.2-66.4c-1.8-10.3-3.8-20.4-6.3-30.6
	c-3.4-14.2-9.6-27.7-17.2-40.1c-5.6-9.3-12.8-18-19.9-26.1c-6.5-7.5-13.5-14.6-20.9-21.1c-16.6-14.4-36-25-56.7-32.2
	c-11-3.8-22.3-6.2-33.9-8.1c-9.2-1.6-18.2-2.4-27.4-2.4c-4.9,0-9.9,0.2-14.9,0.7c-1.3,0.1-2.4,0.5-3.6,0.8c-0.1-2.7-0.1-5.4-0.3-8.1
	c9.7-3.1,19.3-6.1,29.3-7.8c12-1.3,24-1.4,36-0.1c6.4,0.9,12.9,2.1,19.1,4.1c6.4,2.1,12.8,4.4,19,6.9c14.1,6.5,26.9,15.2,39.2,24.6
	c17,13.5,33.3,27.6,47.1,44.3c9.9,14.1,17.8,29.6,24.9,45.3c2.8,6.9,5.3,13.9,7.3,21.1c2.2,7.6,3.5,15.4,4.7,23.2
	c1,8.6,1.7,17.1,2.5,25.8c1,9.6,2.1,19.3,3,29c1.9,18.6,4.1,37.2,5.9,55.8c1.7,18,1.9,36,2.4,54c0.5,18.2,1.8,36.4,2.3,54.6
	c0.5,16.8,0.4,33.7,0.6,50.5c0.2,13,1,25.9,1.7,38.8c-9.6,0.1-19.2,0.2-28.8,0.2c0-0.2,0.1-0.4,0-0.6
	C604.4,610,604.8,591.8,605,573.5z M619.2,708.9c-19.3,0.5-38.5,1.8-57.8,2.1s-38.6,0.1-57.8,0.2c-20.5,0.1-40.9,0.6-61.4,0.4
	c-12.3-0.2-24.6-0.4-36.9-0.9c-11.9-0.5-23.9-0.6-35.9-0.8c-20.1-0.3-40.1-1-60.1-1.8c-0.1-5.9-0.1-11.7-0.1-17.5
	c0.1-8.5,0.1-17,0.1-25.4c33.5,0.6,67,0.4,100.5,0.4c36.9-0.1,73.7,0.3,110.6,0.3c24.4,0,48.9,0.8,73.3,0.2
	c13.4-0.3,26.7-1.1,40.1-1.4c6-0.2,12.1-0.1,18.2-0.1c1.1,14.5,2.3,29,3.3,43.5C643.2,708.3,631.2,708.5,619.2,708.9z M371.6,304.4
	c5.2,6.5,10.3,13.2,13.8,20.7c6.6,14,8.8,29.9,11.4,45.1c1.3,7.5,0.3,14.5-5.3,20.1c-3.9,3.9-9.1,6-14.5,6c-5.5,0-10.8-2.2-14.6-6
	c-4.1-4.2-5.5-8.9-6-14.5c-0.1-1-0.2-2-0.3-3c-1.4-9.2-3.3-18.5-6.5-27.3c-1.9-3.9-4.2-7.5-6.8-11.1c-5.6-6.7-12-12.5-18.8-18.1
	c-4.1-3.3-6.1-9.8-6.1-14.9c0-5.6,2.2-10.9,6.1-14.9c3.9-3.9,9.4-6.2,14.9-6.2c6,0,10.4,2.5,14.9,6.2
	C360.4,291.9,366.2,297.8,371.6,304.4z"/>
</svg>
